{"glyphs":{"0":{"ha":794,"x_min":-318,"x_max":779,"o":"m 126 103 l 135 96 q 152 85 135 96 q 194 59 169 74 q 244 29 218 44 q 288 4 271 14 q 292 1 289 3 q 294 0 294 0 l 681 0 l 692 11 q 699 21 692 11 q 714 43 706 31 q 731 69 722 56 q 746 92 740 83 q 747 96 746 93 q 749 99 749 99 q 760 134 753 111 q 773 172 768 157 q 779 190 778 188 l 779 194 l 329 858 l 314 874 q 298 883 314 874 q 261 906 282 893 q 217 932 240 918 q 181 954 194 946 q 172 958 178 956 q 165 961 165 961 l -222 961 l -231 954 q -237 944 -231 954 q -251 922 -243 935 q -269 896 -260 910 q -283 874 -278 882 q -286 869 -285 872 q -287 867 -287 867 q -294 848 -289 861 q -303 820 -299 835 q -312 793 -308 806 q -318 775 -317 781 l -318 769 q -314 756 -318 761 l 126 103 m 440 92 l 440 88 q 435 79 440 88 q 422 60 429 71 q 408 38 415 50 q 394 19 400 26 q 386 11 392 11 l 314 11 l 314 15 q 319 24 314 15 q 331 42 324 32 q 347 65 339 53 q 360 83 354 76 q 368 92 361 92 l 440 92 m 458 92 l 535 92 l 535 88 q 529 79 535 88 q 517 60 524 71 q 502 38 510 50 q 489 19 494 26 q 485 14 488 17 q 482 11 482 11 l 406 11 l 458 92 m 554 92 l 631 92 l 631 88 q 625 79 631 88 q 613 60 619 71 q 598 38 606 50 q 585 19 590 26 q 581 14 583 17 q 578 11 578 11 l 501 11 l 554 92 m 650 92 l 726 92 l 726 88 q 721 79 726 88 q 708 60 715 71 q 694 38 701 50 q 681 19 686 26 q 672 11 678 11 l 596 11 l 650 92 m 150 103 l 203 183 l 206 183 l 207 183 q 215 179 210 182 q 222 175 219 176 q 258 154 236 167 q 299 129 279 142 q 334 108 319 117 q 349 99 349 99 l 349 92 q 343 83 349 92 q 331 64 338 75 q 316 42 324 53 q 303 22 308 31 q 299 18 301 21 q 294 15 296 15 q 292 17 294 15 q 288 19 289 18 q 249 42 272 28 q 206 68 226 56 q 169 90 185 81 q 154 99 154 99 l 150 103 m 81 194 l 136 278 l 192 194 l 136 111 l 81 194 m 17 760 l 63 760 l 440 203 l 394 203 l 17 760 m 468 203 l 518 278 l 568 203 l 468 203 m 17 290 l 72 374 l 126 290 l 72 207 l 17 290 m 399 290 l 453 374 l 508 290 l 453 207 l 399 290 m -47 385 l 7 468 l 63 385 l 7 303 l -47 385 m 333 385 l 389 468 l 443 385 l 389 303 l 333 385 m -112 481 l -57 564 l -1 481 l -57 397 l -112 481 m 268 481 l 324 564 l 379 481 l 324 397 l 268 481 m -176 576 l -122 660 l -67 576 l -122 493 l -176 576 m 203 576 l 258 660 l 314 576 l 258 493 l 203 576 m -242 672 l -186 754 l -131 672 l -186 589 l -242 672 m 139 672 l 194 754 l 249 672 l 194 589 l 139 672 m -307 767 l -251 850 l -196 767 l -251 683 l -307 767 m 74 767 l 129 850 l 185 767 l 129 683 l 74 767 m -1 792 l -1 797 l 36 854 l 111 854 l 111 851 q 106 843 111 851 q 93 824 100 835 q 78 801 86 813 q 65 782 71 789 l 58 775 l 6 775 q -1 782 0 775 q -1 792 -1 789 m -47 854 l 19 854 l -12 806 q -15 807 -14 806 q -17 808 -17 808 q -32 831 -19 814 q -47 854 -44 849 m -246 904 l -246 903 q -251 881 -246 894 q -264 855 -257 868 q -278 831 -271 842 q -292 817 -286 821 q -274 864 -285 836 q -246 904 -262 892 m -242 915 q -239 911 -239 915 q -242 908 -239 908 q -244 911 -244 908 q -242 915 -244 915 z "},"1":{"ha":524,"x_min":-242,"x_max":565,"o":"m 304 0 l 501 0 l 508 7 q 515 17 508 7 q 531 40 522 26 q 548 66 539 53 q 563 88 557 79 q 565 99 565 99 q 563 111 565 100 l -14 961 l -115 961 l -124 954 q -130 944 -124 954 q -144 922 -136 935 q -162 896 -153 910 q -176 874 -171 882 q -181 865 -181 869 l -242 679 l -242 674 q -237 660 -242 665 l -112 475 l -17 475 l 304 0 m 375 92 l 451 92 l 451 88 q 446 79 451 88 q 433 60 440 71 q 419 38 426 50 q 406 19 411 26 q 397 11 403 11 l 321 11 l 375 92 m 471 92 l 547 92 l 547 88 q 542 79 547 88 q 529 60 536 71 q 514 38 522 50 q 501 19 506 26 l 493 11 l 417 11 l 471 92 m 253 99 l 308 182 l 364 99 l 308 17 l 253 99 m 188 194 l 243 278 l 299 194 l 243 111 l 188 194 m 124 290 l 178 372 l 233 290 l 178 207 l 124 290 m 58 385 l 114 468 l 169 385 l 114 303 l 58 385 m -6 481 l 49 564 l 104 481 l 49 397 l -6 481 m -43 568 l 32 568 l 32 564 q 26 556 32 564 q 14 537 21 547 q 0 515 7 526 q -12 496 -7 503 q -21 489 -17 489 l -97 489 l -43 568 m -165 576 l -110 658 l -54 576 l -110 493 l -165 576 m -231 671 l -175 754 l -119 671 l -175 589 l -231 671 m -169 808 l -169 807 q -175 785 -169 799 q -187 759 -181 772 q -202 735 -194 746 q -215 721 -210 725 q -198 769 -208 740 q -169 808 -187 797 m -139 904 l -139 903 q -144 881 -139 894 q -157 855 -150 868 q -172 831 -164 842 q -185 817 -179 821 q -168 864 -179 836 q -139 904 -157 892 m -165 819 q -162 815 -162 819 q -165 813 -162 813 q -168 815 -168 813 q -165 819 -168 819 m -135 915 q -132 911 -132 915 q -135 908 -132 908 q -137 911 -137 908 q -135 915 -137 915 z "},"2":{"ha":797,"x_min":-317,"x_max":840,"o":"m 197 0 l 74 183 q 69 197 69 189 l 69 203 l 188 572 l 63 760 l 17 760 q 26 745 19 756 q 42 722 33 735 q 57 699 50 710 q 67 683 64 688 q 69 675 68 678 q 69 672 69 672 q 67 660 69 674 q 52 638 61 651 q 35 612 43 625 q 19 590 26 599 q 13 581 13 581 l 6 572 l -189 572 l -312 756 q -317 769 -317 761 l -317 775 q -311 793 -315 781 q -302 820 -307 806 q -292 848 -297 835 q -286 867 -287 861 q -282 874 -286 869 q -267 896 -276 882 q -250 922 -258 910 q -235 944 -242 935 q -229 954 -229 954 l -221 961 l 165 961 q 172 959 165 961 q 181 954 178 957 q 217 932 194 946 q 261 906 240 918 q 298 883 282 893 q 314 874 314 874 l 329 858 l 456 671 l 338 297 l 336 294 q 340 282 336 288 q 356 258 347 272 q 374 232 365 244 q 388 210 382 219 q 394 200 394 200 l 776 200 l 783 190 q 790 181 783 190 q 806 158 797 171 q 823 133 814 146 q 838 111 832 119 q 840 99 840 97 q 840 96 840 99 q 838 88 839 93 q 823 66 832 79 q 806 40 814 53 q 790 17 797 26 q 783 7 783 7 l 776 0 l 197 0 m 268 92 l 215 11 l 292 11 q 294 14 292 11 q 299 19 297 17 q 312 38 304 26 q 326 60 319 50 q 339 79 333 71 q 344 88 344 88 l 344 92 l 268 92 m 364 92 l 310 11 l 386 11 q 394 19 392 11 q 408 38 400 26 q 422 60 415 50 q 435 79 429 71 q 440 88 440 88 l 440 92 l 364 92 m 458 92 l 406 11 l 482 11 q 485 14 482 11 q 489 19 488 17 q 502 38 494 26 q 517 60 510 50 q 529 79 524 71 q 535 88 535 88 l 535 92 l 458 92 m 554 92 l 501 11 l 578 11 q 581 14 578 11 q 585 19 583 17 q 598 38 590 26 q 613 60 606 50 q 625 79 619 71 q 631 88 631 88 l 631 92 l 554 92 m 650 92 l 596 11 l 672 11 q 681 19 678 11 q 694 38 686 26 q 708 60 701 50 q 721 79 715 71 q 726 88 726 88 l 726 92 l 650 92 m 746 92 l 692 11 l 768 11 l 776 19 q 789 38 781 26 q 804 60 797 50 q 817 79 811 71 q 822 88 822 88 l 822 92 l 746 92 m 146 99 l 201 17 l 257 99 l 201 182 l 146 99 m 81 194 l 136 111 l 192 194 l 136 278 l 81 194 m 142 332 q 114 292 125 319 q 96 244 103 264 q 110 259 101 249 q 125 283 118 269 q 138 309 132 296 q 143 331 143 322 l 142 332 m 172 428 q 144 388 156 415 q 126 340 133 360 q 140 355 132 344 q 156 378 149 365 q 168 403 163 390 q 174 425 174 417 q 173 427 174 426 q 172 428 172 428 m 146 343 q 143 339 143 343 q 146 336 143 336 q 149 339 149 336 q 146 343 149 343 m 203 522 q 175 483 186 511 q 157 435 164 454 q 171 449 163 439 q 186 473 179 460 q 199 499 193 486 q 204 521 204 513 l 203 522 m 176 439 q 174 435 174 439 q 176 431 174 431 q 179 435 179 431 q 176 439 179 439 m 233 618 q 206 578 217 606 q 188 531 194 550 q 201 545 193 535 q 215 569 208 556 q 228 595 222 582 q 233 617 233 608 l 233 618 m 207 535 q 204 531 204 535 q 207 526 204 526 q 210 531 210 526 q 207 535 210 535 m -118 664 l -172 583 l -96 583 q -87 592 -90 583 q -69 618 -81 601 q -51 647 -58 635 q -42 660 -43 658 l -42 664 l -118 664 m -22 664 l -76 583 l 0 583 q 1 585 0 583 q 6 592 3 588 q 22 618 11 601 q 42 647 33 635 q 51 660 50 658 l 51 664 l -22 664 m -240 672 l -185 589 l -129 672 l -185 754 l -240 672 m 139 672 l 194 589 l 249 672 l 194 754 l 139 672 m 238 629 q 235 625 235 629 q 238 622 235 622 q 240 625 240 622 q 238 629 240 629 m -306 767 l -250 683 l -194 767 l -250 850 l -306 767 m 74 767 l 129 683 l 185 767 l 129 850 l 74 767 m 0 792 q 0 782 0 789 q 6 775 0 775 l 58 775 q 62 778 60 775 q 67 782 64 781 q 78 801 71 789 q 94 824 86 813 q 106 843 101 835 q 111 851 111 851 l 111 854 l 36 854 l 0 797 l 0 792 m -46 854 q -31 831 -43 849 q -15 808 -18 814 q -14 807 -15 808 q -11 806 -12 806 l 19 854 l -46 854 m -244 904 q -272 864 -261 892 q -290 817 -283 836 q -277 831 -285 821 q -262 855 -269 842 q -250 881 -256 868 q -244 903 -244 894 l -244 904 m -240 915 q -243 911 -243 915 q -240 908 -243 908 q -237 911 -237 908 q -240 915 -237 915 z "},"3":{"ha":800,"x_min":-318,"x_max":779,"o":"m 126 103 l 135 96 q 152 85 135 96 q 194 59 169 74 q 244 29 218 44 q 288 4 271 14 q 292 1 289 3 q 294 0 294 0 l 681 0 l 692 11 q 699 21 692 11 q 714 43 706 31 q 731 69 722 56 q 746 92 740 83 q 747 96 746 93 q 749 99 749 99 q 760 134 753 111 q 773 172 768 157 q 779 190 778 188 l 779 194 l 589 476 q 574 489 583 486 q 556 495 568 490 q 529 506 543 500 q 503 516 515 511 q 486 522 490 521 q 499 544 489 528 q 513 565 510 560 q 517 576 517 571 q 513 588 517 581 l 329 858 l 314 874 q 298 883 314 874 q 261 906 282 893 q 217 932 240 918 q 181 954 194 946 q 172 958 178 956 q 165 961 165 961 l -222 961 l -231 954 q -237 944 -231 954 q -251 922 -243 935 q -269 896 -260 910 q -283 874 -278 882 q -286 869 -285 872 q -287 867 -287 867 q -294 848 -289 861 q -303 820 -299 835 q -312 793 -308 806 q -318 775 -317 781 l -318 769 q -314 756 -318 761 l -190 572 l 6 572 l 13 581 q 19 590 13 581 q 35 612 26 599 q 51 638 43 625 q 65 660 60 651 q 69 672 69 665 q 65 683 69 676 q 56 699 63 688 q 41 722 49 710 q 26 744 33 733 q 17 760 19 756 l 63 760 l 181 582 l 131 582 l 124 572 q 116 561 122 571 q 101 539 110 551 q 84 513 93 526 q 69 492 75 500 q 65 481 65 485 q 67 472 65 474 q 79 454 68 471 q 103 419 90 439 q 119 392 115 399 l 69 392 l 63 382 q 55 371 61 381 q 40 349 49 361 q 23 323 32 336 q 8 301 14 310 q 4 290 4 294 q 8 279 4 285 l 126 103 m 440 92 l 440 88 q 435 79 440 88 q 422 60 429 71 q 408 38 415 50 q 394 19 400 26 q 386 11 392 11 l 314 11 l 314 15 q 319 24 314 15 q 331 42 324 32 q 347 65 339 53 q 360 83 354 76 q 368 92 361 92 l 440 92 m 458 92 l 535 92 l 535 88 q 529 79 535 88 q 517 60 524 71 q 502 38 510 50 q 489 19 494 26 q 485 14 488 17 q 482 11 482 11 l 406 11 l 458 92 m 554 92 l 631 92 l 631 88 q 625 79 631 88 q 613 60 619 71 q 598 38 606 50 q 585 19 590 26 q 581 14 583 17 q 578 11 578 11 l 501 11 l 554 92 m 650 92 l 726 92 l 726 88 q 721 79 726 88 q 708 60 715 71 q 694 38 701 50 q 681 19 686 26 q 672 11 678 11 l 596 11 l 650 92 m 150 103 l 203 183 l 206 183 l 207 183 q 215 179 210 182 q 222 175 219 176 q 258 154 236 167 q 299 129 279 142 q 334 108 319 117 q 349 99 349 99 l 349 92 q 343 83 349 92 q 331 64 338 75 q 316 42 324 53 q 303 22 308 31 q 299 18 301 21 q 294 15 296 15 q 292 17 294 15 q 288 19 289 18 q 249 42 272 28 q 206 68 226 56 q 169 90 185 81 q 154 99 154 99 l 150 103 m 81 194 l 136 278 l 192 194 l 136 111 l 81 194 m 276 378 l 322 378 l 440 203 l 394 203 l 276 378 m 468 203 l 518 278 l 568 203 l 468 203 m 17 290 l 72 374 l 126 290 l 72 207 l 17 290 m 399 290 l 453 374 l 508 290 l 453 207 l 399 290 m 333 385 l 389 468 l 443 385 l 389 303 l 333 385 m 200 474 l 276 474 l 276 469 q 271 461 276 469 q 258 442 265 453 q 244 419 251 431 q 231 400 236 408 q 226 396 228 399 q 222 393 224 393 l 146 393 l 200 474 m 294 474 l 371 474 l 371 469 q 365 461 371 469 q 353 442 360 453 q 338 419 346 431 q 325 400 331 408 l 318 393 l 242 393 l 294 474 m 78 481 l 133 564 l 188 481 l 133 397 l 78 481 m 481 542 l 482 542 q 471 529 479 529 q 468 530 469 529 q 467 531 467 531 l 478 542 l 481 542 m -119 664 l -43 664 l -43 660 q -52 647 -44 658 q -71 618 -60 635 q -89 592 -82 601 q -97 583 -92 583 l -174 583 l -119 664 m -24 664 l 50 664 l 50 660 q 41 647 49 658 q 22 618 33 635 q 6 592 11 601 q 1 585 3 588 q -1 583 -1 583 l -78 583 l -24 664 m 208 583 l 258 660 l 308 583 l 208 583 m -242 672 l -186 754 l -131 672 l -186 589 l -242 672 m 139 672 l 194 754 l 249 672 l 194 589 l 139 672 m -307 767 l -251 850 l -196 767 l -251 683 l -307 767 m 74 767 l 129 850 l 185 767 l 129 683 l 74 767 m -1 792 l -1 797 l 36 854 l 111 854 l 111 851 q 106 843 111 851 q 93 824 100 835 q 78 801 86 813 q 65 782 71 789 l 58 775 l 6 775 q -1 782 0 775 q -1 792 -1 789 m -47 854 l 19 854 l -12 806 q -15 807 -14 806 q -17 808 -17 808 q -32 831 -19 814 q -47 854 -44 849 m -246 904 l -246 903 q -251 881 -246 894 q -264 855 -257 868 q -278 831 -271 842 q -292 817 -286 821 q -274 864 -285 836 q -246 904 -262 892 m -242 915 q -239 911 -239 915 q -242 908 -239 908 q -244 911 -244 908 q -242 915 -244 915 z "},"4":{"ha":800,"x_min":-318,"x_max":779,"o":"m 579 0 l 681 0 l 692 11 q 699 21 692 11 q 714 43 706 31 q 731 69 722 56 q 746 92 740 83 q 747 96 746 93 q 749 99 749 99 q 760 134 753 111 q 773 172 768 157 q 779 190 778 188 l 779 194 l 329 858 l 314 874 q 298 883 314 874 q 261 906 282 893 q 217 932 240 918 q 181 954 194 946 q 172 958 178 956 q 165 961 165 961 l 63 961 l 54 954 q 48 944 54 954 q 33 922 42 935 q 16 896 25 910 q 1 874 7 882 q -1 863 -1 865 q 1 851 -1 857 l 181 583 l 135 583 l -121 961 l -222 961 l -231 954 q -237 944 -231 954 q -251 922 -243 935 q -269 896 -260 910 q -283 874 -278 882 q -286 869 -285 872 q -287 867 -287 867 q -294 848 -289 861 q -303 820 -299 835 q -312 793 -308 806 q -318 775 -317 781 l -318 769 q -314 756 -318 761 l -60 379 l 322 379 l 579 0 m 650 92 l 726 92 l 726 88 q 721 79 726 88 q 708 60 715 71 q 694 38 701 50 q 681 19 686 26 q 672 11 678 11 l 596 11 l 650 92 m 528 99 l 583 182 l 639 99 l 583 17 l 528 99 m 463 194 l 518 278 l 574 194 l 518 111 l 463 194 m 399 290 l 453 374 l 508 290 l 453 207 l 399 290 m 333 385 l 389 468 l 443 385 l 389 303 l 333 385 m 8 474 l 85 474 l 85 469 q 79 461 85 469 q 67 442 74 453 q 52 419 60 431 q 39 400 44 408 l 32 393 l -43 393 l 8 474 m 104 474 l 181 474 l 181 469 q 175 461 181 469 q 163 442 169 453 q 148 419 156 431 q 135 400 140 408 q 131 396 133 399 q 126 393 128 393 l 50 393 l 104 474 m 200 474 l 276 474 l 276 469 q 271 461 276 469 q 258 442 265 453 q 244 419 251 431 q 231 400 236 408 q 226 396 228 399 q 222 393 224 393 l 146 393 l 200 474 m 294 474 l 371 474 l 371 469 q 365 461 371 469 q 353 442 360 453 q 338 419 346 431 q 325 400 331 408 l 318 393 l 242 393 l 294 474 m -112 481 l -57 564 l -1 481 l -57 397 l -112 481 m -176 576 l -122 660 l -67 576 l -122 493 l -176 576 m 208 583 l 258 660 l 308 583 l 208 583 m -242 672 l -186 754 l -131 672 l -186 589 l -242 672 m 139 672 l 194 754 l 249 672 l 194 589 l 139 672 m -307 767 l -251 850 l -196 767 l -251 683 l -307 767 m 74 767 l 129 850 l 185 767 l 129 683 l 74 767 m 8 863 l 64 946 l 119 863 l 64 779 l 8 863 m -246 904 l -246 903 q -251 881 -246 894 q -264 855 -257 868 q -278 831 -271 842 q -292 817 -286 821 q -274 864 -285 836 q -246 904 -262 892 m -242 915 q -239 911 -239 915 q -242 908 -239 908 q -244 911 -244 908 q -242 915 -244 915 z "},"5":{"ha":808,"x_min":-372,"x_max":788,"o":"m 143 99 q 147 111 143 104 q 161 133 153 119 q 178 158 169 146 q 194 181 188 171 q 201 190 200 190 l 208 200 l 449 200 l 331 379 l 44 379 q 40 383 43 381 q 36 385 38 385 q 8 403 29 390 q -37 430 -14 415 q -83 458 -61 444 q -112 476 -104 471 l -121 485 l -368 850 q -372 861 -372 856 q -368 874 -372 867 q -353 895 -362 882 q -336 922 -344 908 q -322 944 -328 935 q -315 953 -315 953 l -307 961 l 265 961 l 274 953 q 280 943 274 953 q 294 921 286 933 q 312 895 303 908 q 326 874 321 882 q 331 861 331 867 q 326 850 331 856 q 313 828 321 842 q 296 803 304 815 q 281 781 288 790 q 274 771 274 771 l 265 761 l 25 761 l 143 582 l 433 582 l 582 492 l 597 476 l 788 194 l 788 190 q 781 172 786 188 q 769 134 776 157 q 757 99 761 111 q 756 96 757 99 q 754 92 754 93 q 740 69 749 83 q 722 43 731 56 q 707 21 714 31 q 700 11 700 11 l 689 0 l 208 0 l 201 7 q 194 17 201 7 q 179 40 188 26 q 162 66 171 53 q 147 88 153 79 q 143 99 143 96 m 276 92 l 224 11 l 300 11 q 303 14 300 11 q 307 19 306 17 q 320 38 313 26 q 335 60 328 50 q 347 79 342 71 q 353 88 353 88 l 353 92 l 276 92 m 372 92 l 319 11 l 396 11 q 399 14 396 11 q 403 19 401 17 q 416 38 408 26 q 431 60 424 50 q 443 79 438 71 q 449 88 449 88 l 449 92 l 372 92 m 468 92 l 414 11 l 490 11 l 499 19 q 512 38 504 26 q 526 60 519 50 q 539 79 533 71 q 544 88 544 88 l 544 92 l 468 92 m 563 92 l 510 11 l 586 11 q 589 14 586 11 q 593 19 592 17 q 606 38 599 26 q 621 60 614 50 q 633 79 628 71 q 639 88 639 88 l 639 92 l 563 92 m 658 92 l 604 11 l 681 11 q 689 19 686 11 q 702 38 694 26 q 717 60 710 50 q 729 79 724 71 q 735 88 735 88 l 735 92 l 658 92 m 156 99 l 210 17 l 265 99 l 210 182 l 156 99 m 476 201 l 576 201 l 526 278 l 476 201 m 407 290 l 463 207 l 517 290 l 463 372 l 407 290 m 342 385 l 397 303 l 453 385 l 397 468 l 342 385 m 189 472 l 117 472 q 114 470 117 472 q 110 465 111 468 q 97 447 104 458 q 81 424 89 435 q 69 404 74 413 q 64 396 64 396 l 64 393 l 136 393 l 143 400 q 156 419 149 407 q 171 442 164 431 q 183 461 178 453 q 189 469 189 469 l 189 472 m 208 472 l 156 393 l 231 393 q 235 396 232 393 q 239 400 238 399 q 252 419 244 407 q 267 442 260 431 q 279 461 274 453 q 285 469 285 469 l 285 472 l 208 472 m 304 472 l 250 393 l 326 393 q 330 396 328 393 q 335 400 332 399 q 351 428 340 411 q 371 456 363 444 q 381 469 379 468 l 381 472 l 304 472 m -97 485 l -94 481 q -78 471 -93 481 q -42 449 -62 461 q 0 422 -21 436 q 36 400 21 408 l 44 396 q 48 399 46 397 q 51 404 50 401 q 69 431 58 414 q 88 459 81 447 q 97 472 96 471 l 97 481 q 83 490 97 481 q 48 510 68 499 q 8 535 28 522 q -25 557 -12 549 q -33 561 -28 558 q -40 564 -39 564 l -43 564 l -44 564 l -97 485 m -167 576 l -111 493 l -56 576 l -111 658 l -167 576 m -231 671 l -176 588 l -121 671 l -176 754 l -231 671 m -296 767 l -240 683 l -185 767 l -240 849 l -296 767 m 6 792 q 7 781 6 788 q 14 774 8 774 l 67 774 q 75 782 72 774 q 88 801 81 789 q 103 823 96 813 q 115 842 110 833 q 121 850 121 850 l 121 854 l 44 854 l 7 797 q 6 792 6 797 m 140 854 l 86 774 l 163 774 l 171 782 q 183 801 175 789 q 198 823 190 813 q 210 842 206 833 q 215 850 215 850 l 215 854 l 140 854 m 235 854 l 182 774 l 258 774 q 261 776 258 774 q 265 782 264 779 q 278 801 271 789 q 293 823 286 813 q 306 842 300 833 q 311 850 311 850 l 311 854 l 235 854 m -361 861 l -306 779 l -250 861 l -306 944 l -361 861 m -36 854 q -22 831 -33 849 q -6 808 -10 814 q -4 806 -6 807 q -3 804 -3 806 l 28 854 l -36 854 z "},"6":{"ha":800,"x_min":-318,"x_max":779,"o":"m 126 103 l 135 96 q 152 85 135 96 q 194 59 169 74 q 244 29 218 44 q 288 4 271 14 q 292 1 289 3 q 294 0 294 0 l 681 0 l 692 11 q 699 21 692 11 q 714 43 706 31 q 731 69 722 56 q 746 92 740 83 q 747 96 746 93 q 749 99 749 99 q 760 134 753 111 q 773 172 768 157 q 779 190 778 188 l 779 194 l 589 476 l 574 492 q 558 501 574 492 q 521 524 542 511 q 477 551 500 538 q 440 572 454 564 q 422 581 429 579 q 399 583 414 583 q 408 599 401 588 q 423 622 415 610 q 438 645 431 635 q 447 660 444 656 q 451 672 451 665 q 447 683 451 676 l 329 858 l 314 874 q 298 883 314 874 q 261 906 282 893 q 217 932 240 918 q 181 954 194 946 q 172 958 178 956 q 165 961 165 961 l -222 961 l -231 954 q -237 944 -231 954 q -251 922 -243 935 q -269 896 -260 910 q -283 874 -278 882 q -286 869 -285 872 q -287 867 -287 867 q -294 848 -289 861 q -303 820 -299 835 q -312 793 -308 806 q -318 775 -317 781 l -318 769 q -314 756 -318 761 l 126 103 m 440 92 l 440 88 q 435 79 440 88 q 422 60 429 71 q 408 38 415 50 q 394 19 400 26 q 386 11 392 11 l 314 11 l 314 15 q 319 24 314 15 q 331 42 324 32 q 347 65 339 53 q 360 83 354 76 q 368 92 361 92 l 440 92 m 458 92 l 535 92 l 535 88 q 529 79 535 88 q 517 60 524 71 q 502 38 510 50 q 489 19 494 26 q 485 14 488 17 q 482 11 482 11 l 406 11 l 458 92 m 554 92 l 631 92 l 631 88 q 625 79 631 88 q 613 60 619 71 q 598 38 606 50 q 585 19 590 26 q 581 14 583 17 q 578 11 578 11 l 501 11 l 554 92 m 650 92 l 726 92 l 726 88 q 721 79 726 88 q 708 60 715 71 q 694 38 701 50 q 681 19 686 26 q 672 11 678 11 l 596 11 l 650 92 m 150 103 l 203 183 l 206 183 l 207 183 q 215 179 210 182 q 222 175 219 176 q 258 154 236 167 q 299 129 279 142 q 334 108 319 117 q 349 99 349 99 l 349 92 q 343 83 349 92 q 331 64 338 75 q 316 42 324 53 q 303 22 308 31 q 299 18 301 21 q 294 15 296 15 q 292 17 294 15 q 288 19 289 18 q 249 42 272 28 q 206 68 226 56 q 169 90 185 81 q 154 99 154 99 l 150 103 m 81 194 l 136 278 l 192 194 l 136 111 l 81 194 m 276 378 l 322 378 l 440 203 l 394 203 l 276 378 m 468 203 l 518 278 l 568 203 l 468 203 m 17 290 l 72 374 l 126 290 l 72 207 l 17 290 m 399 290 l 453 374 l 508 290 l 453 207 l 399 290 m -47 385 l 7 468 l 63 385 l 7 303 l -47 385 m 333 385 l 389 468 l 443 385 l 389 303 l 333 385 m 256 411 q 256 414 256 413 q 257 415 257 415 l 294 474 l 371 474 l 371 469 q 365 461 371 469 q 353 442 360 453 q 338 419 346 431 q 325 400 331 408 l 318 393 l 264 393 q 258 400 260 393 q 256 411 256 407 m -112 481 l -57 564 l -1 481 l -57 397 l -112 481 m 211 474 l 278 474 l 246 424 q 242 428 242 424 q 226 451 238 433 q 211 474 214 468 m -176 576 l -122 660 l -67 576 l -122 493 l -176 576 m 17 760 l 63 760 l 181 583 l 135 583 l 17 760 m 261 664 l 338 664 l 338 660 q 328 647 336 658 q 308 618 319 635 q 292 592 297 601 l 283 583 l 207 583 l 261 664 m 356 664 l 432 664 l 432 660 q 423 647 431 658 q 404 618 415 635 q 386 592 393 601 q 382 586 385 589 q 379 583 379 583 l 303 583 l 356 664 m -242 672 l -186 754 l -131 672 l -186 589 l -242 672 m 139 672 l 194 754 l 249 672 l 194 589 l 139 672 m -307 767 l -251 850 l -196 767 l -251 683 l -307 767 m 74 767 l 129 850 l 185 767 l 129 683 l 74 767 m -1 792 l -1 797 l 36 854 l 111 854 l 111 851 q 106 843 111 851 q 93 824 100 835 q 78 801 86 813 q 65 782 71 789 l 58 775 l 6 775 q -1 782 0 775 q -1 792 -1 789 m -47 854 l 19 854 l -12 806 q -15 807 -14 806 q -17 808 -17 808 q -32 831 -19 814 q -47 854 -44 849 m -246 904 l -246 903 q -251 881 -246 894 q -264 855 -257 868 q -278 831 -271 842 q -292 817 -286 821 q -274 864 -285 836 q -246 904 -262 892 m -242 915 q -239 911 -239 915 q -242 908 -239 908 q -244 911 -244 908 q -242 915 -244 915 z "},"7":{"ha":806,"x_min":-372,"x_max":563,"o":"m 301 0 l 178 183 q 174 197 174 189 l 174 201 l 200 286 q 181 315 196 293 q 154 356 165 338 q 140 378 142 375 q 139 388 139 381 q 140 393 139 393 l 167 476 q 156 494 164 482 q 139 521 149 507 q 121 547 129 535 q 110 564 113 560 q 106 571 107 569 q 106 578 106 572 l 106 583 l 132 667 l 71 761 l -307 761 l -315 769 q -322 781 -315 771 q -336 803 -328 790 q -353 828 -344 815 q -368 850 -362 842 q -372 861 -372 856 q -368 874 -372 867 q -353 895 -362 882 q -336 922 -344 908 q -322 944 -328 935 q -315 953 -315 953 l -307 961 l 268 961 l 400 765 l 372 679 l 372 675 q 376 664 372 669 q 388 646 379 658 q 405 619 396 633 q 422 593 414 606 q 433 575 431 581 l 433 572 l 407 488 l 407 485 q 410 472 407 486 q 422 456 414 468 q 440 429 431 443 q 456 403 449 415 q 468 385 464 390 l 468 381 l 440 297 l 440 293 q 444 282 440 290 l 560 111 q 563 99 563 97 q 562 96 563 99 q 560 88 561 93 q 545 66 554 79 q 528 40 536 53 q 513 17 519 26 q 506 7 506 7 l 499 0 l 301 0 m 372 92 l 319 11 l 394 11 q 403 19 400 11 q 416 38 408 26 q 431 60 424 50 q 443 79 438 71 q 449 88 449 88 l 449 92 l 372 92 m 468 92 l 414 11 l 490 11 l 499 19 q 511 38 503 26 q 526 60 519 50 q 539 79 533 71 q 544 88 544 88 l 544 92 l 468 92 m 250 99 l 306 17 l 361 99 l 306 182 l 250 99 m 186 194 l 240 111 l 296 194 l 240 278 l 186 194 m 246 332 q 218 292 229 319 q 200 244 207 264 q 214 259 206 249 q 229 282 222 269 q 242 308 236 294 q 247 329 247 321 q 247 331 247 331 q 246 332 246 332 m 151 385 l 207 303 l 261 385 l 207 468 l 151 385 m 250 343 q 247 339 247 343 q 250 336 247 336 q 253 339 253 336 q 250 343 253 343 m 213 522 q 183 482 194 510 q 167 435 172 454 q 180 449 172 439 q 194 473 188 460 q 207 499 201 486 q 213 521 213 513 l 213 522 m 117 575 l 172 493 l 228 575 l 172 658 l 117 575 m 215 533 q 213 529 213 533 q 215 526 213 526 q 218 529 218 526 q 215 533 218 533 m 178 713 q 149 673 160 701 q 132 625 138 644 q 145 640 138 629 q 160 663 153 650 q 172 690 167 676 q 178 711 178 703 l 178 713 m 82 767 l 138 683 l 193 767 l 138 849 l 82 767 m 182 725 q 179 721 179 725 q 182 717 179 717 q 185 721 185 717 q 182 725 185 725 m -239 854 l -292 774 l -215 774 q -212 776 -215 774 q -208 782 -210 779 q -195 801 -203 789 q -181 823 -187 813 q -168 842 -174 833 q -162 850 -162 850 l -162 854 l -239 854 m -143 854 l -197 774 l -121 774 q -112 782 -115 774 q -99 801 -107 789 q -85 823 -92 813 q -72 842 -78 833 q -67 850 -67 850 l -67 854 l -143 854 m -49 854 l -101 774 l -25 774 q -22 776 -25 774 q -18 782 -19 779 q -6 801 -14 789 q 8 823 1 813 q 19 842 14 833 q 25 850 25 850 l 25 854 l -49 854 m 44 854 l -6 774 l 67 774 q 75 782 72 774 q 88 801 81 789 q 103 823 96 813 q 115 842 110 833 q 121 850 121 850 l 121 854 l 44 854 m -361 861 l -306 779 l -250 861 l -306 944 l -361 861 z "},"8":{"ha":800,"x_min":-318,"x_max":779,"o":"m 126 103 l 135 96 q 152 85 135 96 q 194 59 169 74 q 244 29 218 44 q 288 4 271 14 q 292 1 289 3 q 294 0 294 0 l 681 0 l 692 11 q 699 21 692 11 q 714 43 706 31 q 731 69 722 56 q 746 92 740 83 q 747 96 746 93 q 749 99 749 99 q 760 134 753 111 q 773 172 768 157 q 779 190 778 188 l 779 194 l 589 476 q 574 489 583 486 q 556 495 568 490 q 529 506 543 500 q 503 516 515 511 q 486 522 490 521 q 499 544 489 528 q 513 565 510 560 q 517 576 517 571 q 513 588 517 581 l 329 858 l 314 874 q 298 883 314 874 q 261 906 282 893 q 217 932 240 918 q 181 954 194 946 q 172 958 178 956 q 165 961 165 961 l -222 961 l -231 954 q -237 944 -231 954 q -251 922 -243 935 q -269 896 -260 910 q -283 874 -278 882 q -286 869 -285 872 q -287 867 -287 867 q -294 848 -289 861 q -303 820 -299 835 q -312 793 -308 806 q -318 775 -317 781 l -318 769 q -314 756 -318 761 l -131 485 q -112 468 -124 474 q -85 458 -100 463 q -57 450 -71 454 q -32 439 -43 446 q -36 431 -32 435 q -49 410 -39 426 q -62 389 -60 394 l -62 385 l 126 103 m 440 92 l 440 88 q 435 79 440 88 q 422 60 429 71 q 408 38 415 50 q 394 19 400 26 q 386 11 392 11 l 314 11 l 314 15 q 319 24 314 15 q 331 42 324 32 q 347 65 339 53 q 360 83 354 76 q 368 92 361 92 l 440 92 m 458 92 l 535 92 l 535 88 q 529 79 535 88 q 517 60 524 71 q 502 38 510 50 q 489 19 494 26 q 485 14 488 17 q 482 11 482 11 l 406 11 l 458 92 m 554 92 l 631 92 l 631 88 q 625 79 631 88 q 613 60 619 71 q 598 38 606 50 q 585 19 590 26 q 581 14 583 17 q 578 11 578 11 l 501 11 l 554 92 m 650 92 l 726 92 l 726 88 q 721 79 726 88 q 708 60 715 71 q 694 38 701 50 q 681 19 686 26 q 672 11 678 11 l 596 11 l 650 92 m 150 103 l 203 183 l 206 183 l 207 183 q 215 179 210 182 q 222 175 219 176 q 258 154 236 167 q 299 129 279 142 q 334 108 319 117 q 349 99 349 99 l 349 92 q 343 83 349 92 q 331 64 338 75 q 316 42 324 53 q 303 22 308 31 q 299 18 301 21 q 294 15 296 15 q 292 17 294 15 q 288 19 289 18 q 249 42 272 28 q 206 68 226 56 q 169 90 185 81 q 154 99 154 99 l 150 103 m 81 194 l 136 278 l 192 194 l 136 111 l 81 194 m 276 378 l 322 378 l 440 203 l 394 203 l 276 378 m 468 203 l 518 278 l 568 203 l 468 203 m 17 290 l 72 374 l 126 290 l 72 207 l 17 290 m 399 290 l 453 374 l 508 290 l 453 207 l 399 290 m -47 385 l 7 468 l 63 385 l 7 303 l -47 385 m 333 385 l 389 468 l 443 385 l 389 303 l 333 385 m 256 411 q 256 414 256 413 q 257 415 257 415 l 294 474 l 371 474 l 371 469 q 365 461 371 469 q 353 442 360 453 q 338 419 346 431 q 325 400 331 408 l 318 393 l 264 393 q 258 400 260 393 q 256 411 256 407 m 211 474 l 278 474 l 246 424 q 242 428 242 424 q 226 451 238 433 q 211 474 214 468 m -108 486 l -108 489 l -54 568 q -44 565 -54 568 q -19 556 -33 561 q 10 544 -6 550 q 36 535 25 539 q 43 531 38 533 q 50 526 49 528 q 14 491 33 504 q -21 454 -6 478 l -28 454 q -37 457 -29 454 q -57 464 -46 460 q -80 473 -68 468 q -100 481 -92 478 l -108 485 l -108 486 m -176 576 l -122 660 l -67 576 l -122 493 l -176 576 m 481 542 l 482 542 q 471 529 479 529 q 468 530 469 529 q 467 531 467 531 l 478 542 l 481 542 m 17 760 l 63 760 l 181 583 l 135 583 l 17 760 m 208 583 l 258 660 l 308 583 l 208 583 m -242 672 l -186 754 l -131 672 l -186 589 l -242 672 m 139 672 l 194 754 l 249 672 l 194 589 l 139 672 m -307 767 l -251 850 l -196 767 l -251 683 l -307 767 m 74 767 l 129 850 l 185 767 l 129 683 l 74 767 m -1 792 l -1 797 l 36 854 l 111 854 l 111 851 q 106 843 111 851 q 93 824 100 835 q 78 801 86 813 q 65 782 71 789 l 58 775 l 6 775 q -1 782 0 775 q -1 792 -1 789 m -47 854 l 19 854 l -12 806 q -15 807 -14 806 q -17 808 -17 808 q -32 831 -19 814 q -47 854 -44 849 m -246 904 l -246 903 q -251 881 -246 894 q -264 855 -257 868 q -278 831 -271 842 q -292 817 -286 821 q -274 864 -285 836 q -246 904 -262 892 m -242 915 q -239 911 -239 915 q -242 908 -239 908 q -244 911 -244 908 q -242 915 -244 915 z "},"9":{"ha":793,"x_min":-317,"x_max":585,"o":"m 229 101 l 229 107 l 317 379 l 35 379 q 31 383 33 381 q 28 385 29 385 q -1 403 19 390 q -47 430 -22 415 q -92 458 -71 444 q -122 476 -114 471 l -131 483 l -312 754 q -316 761 -315 760 q -317 768 -317 763 l -317 774 q -311 792 -315 779 q -302 819 -307 804 q -292 847 -297 833 q -286 865 -287 860 q -282 872 -286 868 q -268 894 -276 881 q -251 921 -260 908 q -236 943 -243 933 q -229 953 -229 953 l -221 960 l 164 960 q 171 958 165 960 q 179 953 176 956 q 217 931 194 944 q 261 904 240 917 q 297 882 282 892 q 313 872 313 872 l 328 857 l 585 479 l 461 99 q 460 96 461 99 q 458 92 458 93 q 444 69 453 83 q 426 43 435 56 q 411 21 418 31 q 404 11 404 11 l 393 0 l 294 0 l 286 7 q 276 24 285 10 q 253 58 267 38 q 233 88 240 78 q 230 94 231 93 q 229 101 229 96 m 363 92 l 310 11 l 386 11 q 389 14 386 11 q 393 19 392 17 q 406 38 399 26 q 421 60 414 50 q 433 79 428 71 q 439 88 439 88 l 439 92 l 363 92 m 240 99 l 296 17 l 351 99 l 296 182 l 240 99 m 301 236 q 274 196 285 224 q 256 149 263 168 q 269 163 261 153 q 283 187 276 174 q 296 213 290 200 q 301 235 301 226 l 301 236 m 332 332 q 303 292 314 319 q 286 244 293 264 q 299 259 292 249 q 315 282 307 269 q 327 308 322 294 q 332 329 332 321 l 332 332 m 306 247 q 303 243 303 247 q 306 240 303 240 q 308 243 308 240 q 306 247 308 247 m 363 426 q 333 387 344 415 q 317 339 322 358 q 330 353 322 343 q 344 377 338 364 q 357 403 351 390 q 363 425 363 417 l 363 426 m 336 343 q 333 339 333 343 q 336 335 333 335 q 339 339 339 335 q 336 343 339 343 m 179 472 l 107 472 l 100 465 q 87 447 94 458 q 72 424 79 435 q 59 404 64 413 q 54 396 54 396 l 54 393 l 126 393 q 133 400 129 393 q 151 426 140 410 q 170 455 163 443 q 179 468 178 467 l 179 472 m 199 472 l 146 393 l 222 393 q 225 395 222 393 q 229 400 228 397 q 247 426 236 410 q 266 455 258 443 q 275 468 274 467 l 275 472 l 199 472 m 294 472 l 240 393 l 317 393 q 325 400 321 393 q 343 426 332 410 q 362 455 354 443 q 371 468 369 467 l 371 472 l 294 472 m -107 483 l -103 481 q -87 471 -103 481 q -51 449 -72 461 q -9 422 -31 436 q 28 400 13 408 q 32 397 29 399 q 35 396 35 396 q 43 404 40 396 q 61 431 50 414 q 80 459 72 447 q 89 472 88 471 l 89 481 q 74 489 89 481 q 40 510 60 497 q -1 535 19 522 q -35 557 -22 549 q -42 560 -37 558 q -50 564 -47 563 l -51 564 l -54 564 l -107 483 m 367 439 q 364 435 364 439 q 367 431 364 431 q 369 435 369 431 q 367 439 369 439 m -175 575 l -121 493 l -65 575 l -121 658 l -175 575 m 15 758 l 133 583 l 179 583 l 61 758 l 15 758 m 208 583 l 308 583 l 258 658 l 208 583 m -240 671 l -185 588 l -131 671 l -185 754 l -240 671 m 138 671 l 193 588 l 249 671 l 193 754 l 138 671 m -306 765 l -250 683 l -194 765 l -250 849 l -306 765 m 74 765 l 128 683 l 183 765 l 128 849 l 74 765 m -1 792 q -1 781 -1 788 q 4 774 0 774 l 58 774 l 65 781 q 78 800 71 789 q 93 822 86 811 q 106 842 100 833 q 111 850 111 850 l 111 854 l 35 854 l 0 796 q -1 794 0 796 q -1 792 -1 793 m -46 854 q -31 831 -43 849 q -15 808 -19 814 q -14 806 -15 807 q -12 804 -12 804 l 18 854 l -46 854 m -244 903 q -274 863 -262 892 q -290 815 -285 835 q -277 830 -285 819 q -262 853 -269 840 q -250 880 -256 867 q -244 901 -244 893 l -244 903 m -240 914 q -243 910 -243 914 q -240 907 -243 907 q -237 910 -237 907 q -240 914 -237 914 z "},"\"":{"ha":1022,"x_min":14,"x_max":1008,"o":"m 239 11 q 262 21 250 11 q 281 38 274 31 q 309 49 290 44 q 339 57 328 54 q 345 58 342 58 q 349 57 349 57 l 349 35 q 353 31 349 35 q 361 26 358 28 q 382 15 372 19 q 399 0 392 10 l 414 0 q 468 7 442 0 q 520 22 494 14 q 573 36 546 29 q 628 43 600 43 q 662 42 644 43 q 689 26 679 42 q 713 15 696 17 q 739 14 729 14 q 753 19 743 14 q 772 31 763 24 q 790 45 782 38 q 799 57 797 53 q 803 58 800 57 q 807 58 806 58 q 831 54 817 58 q 853 43 846 50 q 867 23 861 35 q 886 11 874 11 q 935 22 907 11 q 976 49 964 33 l 976 64 q 968 129 976 97 q 960 196 960 161 l 960 201 l 1008 256 l 1008 267 q 1006 299 1008 283 q 1000 333 1003 315 q 984 356 989 342 q 976 382 979 369 q 975 396 976 385 q 972 419 974 407 q 969 443 971 432 q 968 457 968 454 q 956 485 965 472 q 947 514 947 499 q 953 536 947 526 q 965 557 960 546 q 969 584 967 565 q 973 625 971 603 q 977 666 975 647 q 979 693 979 685 q 980 703 979 694 q 981 717 981 713 q 980 729 981 719 q 979 742 979 739 q 967 751 971 743 q 963 770 964 760 q 961 790 961 781 q 961 806 961 800 q 970 873 961 840 q 979 942 979 906 l 979 963 q 935 972 956 964 q 892 988 914 979 q 849 1002 871 996 q 806 1008 828 1008 q 775 1003 789 1008 q 747 989 761 997 l 729 989 q 662 994 694 989 q 594 1000 629 1000 l 565 1000 q 536 990 550 997 q 508 974 522 982 q 481 960 494 967 q 453 954 467 954 l 453 997 q 445 1003 453 1000 q 428 1008 438 1006 q 409 1013 418 1011 q 397 1015 400 1015 q 394 1015 396 1015 q 390 1014 392 1014 q 351 990 371 1000 q 307 974 331 979 q 291 973 303 974 q 265 972 279 972 q 240 969 251 971 q 224 968 228 968 l 194 968 l 167 968 q 139 984 146 971 q 129 997 132 997 l 94 997 q 85 988 93 997 q 67 967 76 979 q 51 942 58 954 q 43 924 43 929 l 43 919 q 51 908 46 917 q 60 897 57 900 q 61 895 60 896 q 63 894 63 894 l 63 879 q 57 851 63 864 q 44 826 51 838 q 31 802 36 814 q 25 776 25 790 l 25 774 l 40 756 q 42 738 40 756 q 45 696 43 719 q 49 647 47 672 q 51 604 50 621 l 51 578 l 51 551 q 47 540 47 546 q 46 528 46 535 q 59 461 46 493 q 72 394 72 429 q 68 385 72 389 q 60 378 67 383 q 45 366 53 372 q 31 354 38 360 q 22 347 24 349 q 14 332 14 340 q 14 314 14 325 q 16 270 14 294 q 31 231 18 246 q 58 208 40 219 q 75 185 75 197 q 70 163 75 171 q 54 147 65 156 q 49 144 53 146 q 46 140 46 142 q 44 133 44 139 q 43 126 43 128 q 33 108 39 115 q 28 89 28 100 l 28 83 q 35 82 31 83 q 43 81 40 81 q 66 78 49 79 q 89 78 83 78 q 78 54 86 64 q 71 31 71 44 q 126 40 104 31 q 175 69 147 50 l 178 69 q 203 53 196 69 q 213 22 211 38 l 232 22 q 233 16 232 19 q 235 11 233 13 l 239 11 m 651 193 l 643 193 l 560 175 l 549 175 q 532 178 536 175 q 526 184 528 181 q 524 192 525 188 q 517 199 522 196 q 471 207 493 204 l 457 350 q 451 354 457 351 q 442 360 444 357 q 436 362 442 360 q 431 365 431 364 q 432 374 429 368 q 435 382 435 379 l 371 382 q 355 379 365 382 q 342 371 344 376 q 338 353 340 364 q 329 336 336 342 l 329 304 q 317 293 326 301 q 304 282 307 285 q 301 276 303 279 q 299 271 299 272 l 299 199 q 286 190 292 197 q 278 181 281 183 l 224 181 q 220 182 224 181 q 215 183 217 183 q 207 188 214 185 q 197 193 200 192 l 196 193 q 185 187 189 193 q 172 181 181 181 q 163 181 165 181 q 161 183 161 182 q 161 186 161 185 q 157 190 161 188 q 146 193 149 194 q 143 203 143 192 q 149 227 143 215 q 169 242 154 239 l 194 271 q 197 274 196 271 q 197 279 197 276 q 204 324 201 301 q 224 365 207 347 q 229 368 226 365 q 229 374 232 371 q 237 388 232 376 q 244 403 242 400 q 261 451 256 424 q 267 503 267 479 q 259 528 267 519 q 247 554 251 538 q 244 575 244 560 q 244 594 243 590 q 248 602 246 596 q 251 617 250 608 q 254 633 253 625 q 256 644 256 640 q 251 657 256 651 q 247 669 247 663 l 247 672 q 248 685 247 675 q 250 699 249 696 q 260 708 257 701 q 269 718 263 715 q 283 722 278 721 q 296 731 289 724 q 307 744 301 735 q 312 754 308 746 q 320 771 315 763 q 328 787 325 779 q 333 796 332 794 q 339 805 335 799 q 344 814 343 811 q 367 844 354 825 q 394 863 379 863 l 399 863 q 415 845 410 851 q 433 836 421 839 l 472 836 q 542 842 508 836 q 611 849 575 849 q 660 847 636 849 q 710 844 685 844 q 804 863 758 844 q 822 872 814 865 q 840 879 831 879 q 849 868 847 879 q 850 854 850 857 q 851 842 850 850 q 853 824 853 833 q 855 806 854 814 q 856 793 856 797 q 859 783 857 788 q 864 774 861 778 l 864 721 q 856 719 864 719 q 839 717 849 718 q 819 713 829 717 q 807 704 810 710 l 796 704 q 757 705 775 704 q 715 707 739 706 q 703 714 708 708 q 694 725 699 719 q 684 735 689 731 q 671 739 679 739 q 603 733 633 739 q 546 704 574 728 l 538 696 l 538 664 q 548 651 546 660 q 551 633 550 643 q 555 616 553 624 q 565 604 557 608 l 578 567 q 589 555 581 560 q 600 543 597 550 q 605 534 603 536 q 614 532 607 532 q 632 537 625 532 q 646 550 639 542 l 740 550 q 780 565 754 565 q 821 564 806 564 l 864 564 q 867 551 865 561 q 871 538 869 540 q 872 528 871 535 q 874 521 874 521 q 872 513 874 518 q 871 506 871 507 l 871 493 q 871 467 871 478 q 874 438 871 456 q 851 428 865 432 q 822 423 838 425 q 792 420 807 421 q 769 419 778 419 q 733 419 758 419 q 678 418 707 418 q 622 417 649 418 q 586 417 596 417 q 574 396 574 407 l 574 388 q 589 379 582 388 q 593 362 594 372 q 597 344 592 351 q 603 339 599 343 q 608 333 608 335 q 612 326 608 333 q 619 312 615 319 q 628 298 624 304 q 632 290 632 292 q 642 289 635 290 q 651 288 649 288 q 673 286 656 288 q 710 284 690 285 q 746 283 729 283 q 767 282 763 282 q 792 276 782 281 q 817 272 803 272 q 825 272 819 272 q 833 274 831 272 q 841 280 838 275 q 849 285 844 285 q 863 283 856 285 q 876 279 869 282 q 882 276 879 278 q 885 274 885 274 l 885 178 q 863 176 878 178 q 830 174 847 175 q 797 171 813 172 q 775 169 781 169 l 744 169 q 719 169 729 169 q 697 172 711 169 q 675 185 683 176 q 651 193 667 193 m 372 531 q 380 505 372 521 q 399 489 388 489 q 426 501 411 489 q 447 521 442 513 l 447 531 l 447 540 q 447 554 447 544 q 447 576 447 565 q 445 598 446 588 q 444 613 444 608 q 436 619 446 621 q 426 624 426 618 l 426 647 q 411 658 417 647 l 388 658 q 392 638 388 647 q 396 617 396 628 l 396 610 q 393 601 396 607 q 390 592 390 594 q 388 572 389 588 q 388 551 388 557 q 382 544 388 546 q 374 540 376 542 q 373 535 374 539 q 372 531 372 532 z "}," ":{"ha":694,"x_min":0,"x_max":0,"o":""},"!":{"ha":622,"x_min":-304,"x_max":567,"o":"m 306 0 l 503 0 l 510 7 q 517 17 510 7 q 532 40 524 26 q 549 66 540 53 q 564 88 558 79 q 567 99 567 99 q 564 111 567 100 l 439 296 l 319 296 q 329 311 322 300 q 344 335 336 322 q 359 358 351 347 q 369 374 367 369 q 372 385 372 385 q 369 396 372 385 l 254 568 q 250 579 250 574 q 251 583 250 583 l 278 669 l 151 857 l 136 872 q 121 882 136 872 q 84 904 106 892 q 40 931 63 917 q 3 953 17 944 q -5 958 0 956 q -11 960 -10 960 l -208 960 l -217 953 q -224 943 -217 953 q -239 921 -231 933 q -256 894 -247 908 q -269 872 -264 881 q -274 865 -274 868 q -280 847 -275 860 q -290 819 -285 833 q -299 792 -294 804 q -304 774 -303 779 l -304 768 q -303 761 -304 763 q -300 754 -303 760 l -179 574 l -17 475 l 113 283 l 232 283 q 215 256 228 276 q 192 221 201 236 q 179 203 181 204 q 178 194 178 201 q 182 183 178 189 l 306 0 m 376 92 l 453 92 l 453 88 q 447 79 453 88 q 435 60 442 71 q 420 38 428 50 q 407 19 413 26 q 403 14 406 17 q 400 11 400 11 l 324 11 l 376 92 m 472 92 l 549 92 l 549 88 q 543 79 549 88 q 531 60 538 71 q 515 38 524 50 q 503 19 507 26 l 494 11 l 418 11 l 472 92 m 254 99 l 310 182 l 365 99 l 310 17 l 254 99 m 190 194 l 244 278 l 300 194 l 244 111 l 190 194 m 182 378 l 258 378 l 258 374 q 253 365 258 374 q 240 346 247 357 q 226 324 233 335 q 213 304 218 313 l 206 297 l 129 297 l 182 378 m 278 378 l 354 378 l 354 374 q 349 365 354 374 q 336 346 343 357 q 322 324 329 335 q 308 304 314 313 q 304 300 307 303 q 300 297 301 297 l 224 297 l 278 378 m 60 385 l 115 468 l 171 385 l 115 301 l 60 385 m -3 481 l 51 563 l 106 481 l 51 397 l -3 481 m -160 579 l -106 660 l -104 660 l -103 660 q -94 656 -100 658 q -87 651 -89 653 q -51 631 -72 643 q -10 606 -31 618 q 24 584 10 593 q 38 575 38 575 l 38 568 q 32 560 38 568 q 19 540 26 551 q 6 518 13 529 q -7 499 -1 507 l -14 492 q -22 496 -18 492 q -60 518 -37 504 q -103 544 -82 532 q -140 566 -125 557 q -156 575 -156 575 l -160 579 m -228 671 l -172 754 l -118 671 l -172 588 l -228 671 m -293 765 l -237 849 l -182 765 l -237 683 l -293 765 m -232 903 l -232 901 q -237 880 -232 893 q -250 853 -243 867 q -265 830 -257 840 q -278 815 -272 819 q -261 863 -272 835 q -232 903 -250 892 m -228 914 q -225 910 -225 914 q -228 907 -225 907 q -231 910 -231 907 q -228 914 -231 914 z "},"#":{"ha":818,"x_min":-235,"x_max":728,"o":"m 240 103 l 247 96 q 265 85 247 96 q 308 59 283 74 q 358 29 332 44 q 400 4 383 14 q 408 0 404 0 l 410 0 l 411 0 q 418 6 414 1 q 424 11 422 10 l 476 92 l 476 107 l 425 186 l 469 186 l 594 4 l 599 0 l 600 0 l 603 0 l 614 11 q 624 27 617 15 q 640 51 632 39 q 656 76 649 64 q 667 92 664 88 q 669 96 668 93 q 671 99 671 99 q 676 117 672 104 q 685 144 681 129 q 695 172 690 158 q 701 190 700 185 l 701 193 l 701 194 q 692 208 694 207 q 689 219 689 210 q 690 222 689 219 q 690 225 690 224 q 697 235 692 228 q 707 251 701 243 q 717 267 713 260 q 725 278 722 275 q 728 290 728 289 q 725 301 728 290 q 710 323 719 310 q 693 349 701 336 q 678 371 685 361 q 671 381 671 381 l 664 390 l 568 390 l 431 594 l 431 606 q 436 617 432 610 q 446 632 440 624 q 457 648 451 640 q 465 660 463 656 q 469 671 469 665 q 465 682 469 675 q 451 703 460 690 q 433 729 442 717 q 419 751 425 742 q 411 763 413 761 l 404 772 l 308 772 l 251 857 l 236 872 q 221 882 236 872 q 184 904 206 892 q 140 931 163 917 q 103 953 117 944 q 93 959 96 957 q 85 961 90 961 q 76 957 78 961 l 15 865 l 15 857 q 26 842 18 853 q 41 819 33 832 q 56 797 49 807 q 65 782 63 786 q 69 774 65 778 l 24 774 l -101 961 l -104 961 q -112 957 -111 961 l -174 865 l -204 774 l -204 768 q -200 755 -204 761 q -196 742 -196 749 q -197 736 -196 736 q -203 726 -199 733 q -214 709 -208 718 q -224 692 -219 700 q -231 682 -229 685 q -235 671 -235 675 q -231 660 -235 665 q -216 638 -225 651 q -199 613 -207 625 q -184 590 -190 600 q -178 579 -178 581 l -169 569 l -75 569 l 61 365 l 61 354 q 53 343 58 350 q 43 328 49 336 q 33 313 38 319 q 26 301 28 306 q 22 290 22 293 q 26 278 22 283 q 41 256 32 269 q 58 231 50 243 q 74 208 67 218 q 81 199 81 199 l 88 189 l 183 189 l 240 103 m 263 103 l 317 183 l 318 183 l 321 183 q 328 179 322 182 q 336 175 333 176 q 371 154 350 167 q 412 129 392 142 q 447 108 432 117 q 461 99 461 99 l 461 92 q 456 83 461 92 q 443 64 450 75 q 428 42 436 53 q 415 22 421 31 l 408 15 l 400 19 q 363 41 385 28 q 319 67 340 54 q 283 90 299 81 q 267 99 268 99 l 263 103 m 603 179 l 606 175 q 611 167 606 175 q 624 149 617 160 q 640 126 632 138 q 651 107 647 114 q 656 99 656 103 q 654 96 656 99 q 651 92 653 93 q 635 65 646 82 q 615 35 624 47 q 606 22 607 24 l 603 19 q 599 22 601 19 q 594 26 596 25 q 581 45 589 33 q 566 68 574 57 q 553 88 558 79 q 549 96 549 96 l 549 103 q 553 111 549 103 q 566 130 558 119 q 581 152 574 140 q 594 171 589 164 l 603 179 m 194 194 l 250 278 l 306 194 l 250 111 l 194 194 m 481 194 l 536 278 l 590 194 l 536 111 l 481 194 m 157 282 l 233 282 l 233 278 q 224 265 232 276 q 204 236 215 253 q 188 210 193 219 l 179 201 l 103 201 l 157 282 m 404 219 l 404 225 l 442 282 l 518 282 l 518 278 q 509 265 517 276 q 490 236 501 253 q 472 210 479 219 q 468 204 471 207 q 465 201 465 201 l 411 201 q 406 209 407 201 q 404 219 404 217 m 35 290 l 90 372 l 144 290 l 90 207 l 35 290 m 358 282 l 426 282 l 393 232 l 389 236 q 374 259 386 242 q 358 282 361 276 m 644 282 l 711 282 l 679 232 l 675 236 q 659 259 671 242 q 644 282 647 276 m 65 385 l 121 468 l 168 396 l 168 390 l 88 390 l 72 374 l 65 385 m 164 568 l 210 568 l 328 393 l 282 393 l 164 568 m 356 393 l 406 468 l 457 393 l 356 393 m 0 481 l 56 563 l 111 481 l 56 397 l 0 481 m 286 481 l 342 563 l 397 481 l 342 397 l 286 481 m -64 575 l -8 658 l 46 575 l -8 493 l -64 575 m 221 575 l 276 658 l 332 575 l 276 493 l 221 575 m -101 663 l -25 663 l -25 660 q -31 651 -25 660 q -43 632 -36 643 q -58 609 -50 621 q -71 590 -65 597 l -78 583 l -154 583 l -101 663 m 144 601 l 144 606 l 183 663 l 260 663 l 260 660 q 254 651 260 660 q 242 632 249 643 q 227 609 235 621 q 214 590 219 597 q 210 586 213 589 q 206 583 207 583 l 153 583 q 146 590 147 583 q 144 601 144 597 m -224 671 l -168 754 l -112 671 l -168 588 l -224 671 m 99 663 l 167 663 l 133 614 l 129 618 q 124 626 128 619 q 114 640 119 632 q 104 653 108 647 q 99 663 100 660 m 385 663 l 453 663 l 419 614 l 415 618 q 410 626 414 619 q 400 640 406 632 q 390 653 394 647 q 385 663 386 660 m -193 767 l -137 849 l -90 778 l -90 772 l -169 772 l -185 754 l -193 767 m 97 774 l 147 849 l 197 774 l 97 774 m 85 942 l 88 938 q 93 929 88 938 q 106 910 99 921 q 122 888 114 900 q 133 869 129 876 q 136 865 135 867 q 138 861 138 863 q 136 858 138 861 q 133 854 135 856 q 117 827 128 844 q 97 798 106 810 q 88 785 89 786 l 85 782 q 81 785 83 782 q 76 789 78 788 q 58 815 69 799 q 40 844 47 832 q 31 857 32 856 l 31 865 q 35 874 31 865 q 48 892 40 882 q 63 915 56 903 q 76 933 71 926 l 85 942 m -132 903 l -132 901 q -137 880 -132 893 q -150 853 -143 867 q -165 830 -157 840 q -178 815 -172 819 q -161 863 -172 835 q -132 903 -150 892 m -128 915 q -125 911 -125 915 q -128 907 -125 907 q -131 911 -131 907 q -128 915 -131 915 z "},"$":{"ha":800,"x_min":-318,"x_max":779,"o":"m 135 99 q 139 88 135 93 q 159 58 146 78 q 181 24 172 38 q 192 7 190 10 l 200 0 l 681 0 l 692 11 q 699 21 692 11 q 714 43 706 31 q 731 69 722 56 q 746 92 740 83 q 747 96 746 93 q 749 99 749 99 q 760 134 753 111 q 773 172 768 157 q 779 190 778 188 l 779 194 l 589 476 l 574 492 l 425 582 l 325 582 l 207 761 l 257 761 l 264 771 q 272 782 265 772 q 286 804 278 792 q 303 830 294 817 q 318 851 313 843 q 322 863 322 857 q 318 874 322 867 q 303 896 313 882 q 286 922 294 910 q 271 944 278 935 q 264 954 264 954 l 257 961 l -222 961 l -231 954 q -237 944 -231 954 q -251 922 -243 935 q -269 896 -260 910 q -283 874 -278 882 q -286 869 -285 872 q -287 867 -287 867 q -294 848 -289 861 q -303 820 -299 835 q -312 793 -308 806 q -318 775 -317 781 l -318 769 q -314 756 -318 761 l -131 485 l -124 476 q -93 459 -115 472 q -47 431 -71 446 q -1 403 -22 417 q 28 385 19 390 q 32 383 29 385 q 36 379 35 381 l 131 379 l 249 200 l 200 200 l 192 190 q 185 181 192 190 q 169 158 178 171 q 153 133 161 146 q 139 111 144 119 q 135 99 135 104 m 268 92 l 344 92 l 344 88 q 339 79 344 88 q 326 60 333 71 q 312 38 319 50 q 299 19 304 26 q 294 14 297 17 q 292 11 292 11 l 215 11 l 268 92 m 364 92 l 440 92 l 440 88 q 435 79 440 88 q 422 60 429 71 q 408 38 415 50 q 394 19 400 26 q 386 11 392 11 l 310 11 l 364 92 m 458 92 l 535 92 l 535 88 q 529 79 535 88 q 517 60 524 71 q 502 38 510 50 q 489 19 494 26 q 485 14 488 17 q 482 11 482 11 l 406 11 l 458 92 m 554 92 l 631 92 l 631 88 q 625 79 631 88 q 613 60 619 71 q 598 38 606 50 q 585 19 590 26 q 581 14 583 17 q 578 11 578 11 l 501 11 l 554 92 m 650 92 l 726 92 l 726 88 q 721 79 726 88 q 708 60 715 71 q 694 38 701 50 q 681 19 686 26 q 672 11 678 11 l 596 11 l 650 92 m 146 99 l 201 182 l 257 99 l 201 17 l 146 99 m 278 203 l 328 278 l 378 203 l 278 203 m 482 217 q 486 229 482 222 q 495 242 490 235 q 505 258 500 250 q 513 270 510 265 q 517 275 517 275 l 519 275 l 568 203 l 489 203 q 486 207 489 203 q 482 214 483 211 l 482 217 m 207 290 l 263 374 l 318 290 l 263 207 l 207 290 m 469 232 l 417 310 l 417 313 q 422 324 417 315 q 433 342 426 333 q 444 360 439 351 q 451 369 450 368 l 456 369 l 508 290 l 469 232 m 142 385 l 197 468 l 253 385 l 197 303 l 142 385 m 406 328 l 353 404 q 351 408 351 404 q 356 419 351 411 q 367 438 360 426 q 380 457 375 450 q 386 465 385 464 l 390 465 l 443 385 l 406 328 m 181 474 l 181 469 q 175 461 181 469 q 163 442 169 453 q 148 419 156 431 q 135 400 140 408 q 131 396 133 399 q 126 393 128 393 l 54 393 l 54 397 q 63 410 56 399 q 82 439 71 422 q 100 465 93 456 q 108 474 101 474 l 181 474 m -108 485 l -54 565 l -53 565 l -51 565 q -43 561 -49 564 q -36 557 -37 558 q -1 535 -22 549 q 40 510 19 522 q 74 490 60 499 q 89 481 89 481 l 89 474 q 83 465 89 474 q 71 446 78 457 q 56 423 64 435 q 43 404 49 411 l 36 397 q 32 399 35 397 q 28 400 29 400 q -8 422 14 408 q -52 449 -31 436 q -89 472 -74 463 q -104 481 -104 481 l -108 485 m 307 474 l 374 474 l 340 424 q 339 425 340 424 q 338 428 338 426 q 322 451 333 433 q 307 474 310 468 m -176 576 l -122 660 l -67 576 l -122 493 l -176 576 m 126 599 q 131 610 126 601 q 142 629 136 619 q 154 647 149 639 q 161 657 160 656 l 165 657 l 214 583 l 135 583 q 131 588 133 583 q 126 596 128 593 l 126 599 m -242 672 l -186 754 l -131 672 l -186 589 l -242 672 m 115 614 l 63 690 l 63 694 q 65 706 63 694 q 77 724 69 713 q 90 743 85 736 q 96 751 94 750 l 100 751 l 154 672 l 115 614 m -307 767 l -251 850 l -196 767 l -251 683 l -307 767 m 50 708 l -1 786 l -1 789 q 3 801 -1 792 q 14 819 8 810 q 25 838 19 829 q 32 847 31 846 l 36 847 l 89 767 l 50 708 m 188 792 l 188 797 l 226 854 l 303 854 l 303 851 q 297 843 303 851 q 285 824 292 835 q 270 801 278 813 q 257 782 263 789 q 253 778 256 781 q 249 775 250 775 l 196 775 q 189 782 190 775 q 188 792 188 789 m -47 854 l 19 854 l -12 806 q -15 807 -14 806 q -17 808 -17 808 q -32 831 -19 814 q -47 854 -44 849 m 142 854 l 210 854 l 176 806 q 175 807 176 806 q 172 808 174 808 q 158 831 169 814 q 142 854 146 849 m -246 904 l -246 903 q -251 881 -246 894 q -264 855 -257 868 q -278 831 -271 842 q -292 817 -286 821 q -274 864 -285 836 q -246 904 -262 892 m -242 915 q -239 911 -239 915 q -242 908 -239 908 q -244 911 -244 908 q -242 915 -244 915 z "},"%":{"ha":794,"x_min":-317,"x_max":779,"o":"m 293 0 l 169 183 q 165 197 165 189 l 165 203 l 192 286 q 181 303 189 290 q 163 330 172 315 q 146 357 154 344 q 135 374 138 369 q 131 381 132 379 q 131 388 131 382 l 131 393 l 157 476 q 146 494 154 482 q 128 521 138 507 q 111 547 119 535 q 100 565 103 560 q 96 578 96 571 l 96 583 l 124 668 l 93 714 l 89 714 q 81 692 86 708 q 74 672 76 676 q 69 664 74 668 q 55 642 64 656 q 38 615 46 628 q 23 593 29 603 q 17 583 17 583 l 6 572 l -92 572 q -94 574 -92 572 q -99 576 -97 575 q -142 601 -115 586 q -192 631 -168 617 q -234 657 -217 646 q -251 668 -251 668 l -260 675 q -266 685 -260 675 q -281 707 -272 694 q -298 733 -289 719 q -312 756 -307 747 q -316 763 -315 761 q -317 769 -317 764 l -317 775 q -311 793 -315 781 q -302 820 -307 806 q -292 848 -297 835 q -286 867 -287 861 q -285 869 -286 867 q -282 874 -283 872 q -267 896 -276 882 q -250 922 -258 910 q -235 944 -242 935 q -229 954 -229 954 l -221 961 l -118 961 q -112 958 -118 961 q -103 954 -106 956 q -84 942 -99 951 q -51 923 -69 933 q -19 903 -33 913 q 0 893 -4 894 q 6 889 0 889 l 7 889 l 8 889 q 13 893 13 889 q 20 903 14 894 q 34 923 26 913 q 47 942 42 933 q 54 954 53 951 q 58 958 56 956 q 63 961 61 961 l 164 961 l 296 765 l 268 679 l 268 675 q 272 664 268 669 q 283 647 275 660 q 301 620 292 635 q 318 593 310 606 q 329 576 326 581 l 329 572 l 303 489 l 303 485 q 307 474 303 479 q 318 456 310 468 q 335 429 326 443 q 353 403 344 415 q 364 385 361 390 l 364 382 l 338 297 l 336 294 q 347 266 336 281 q 368 244 357 251 q 378 273 375 257 q 390 301 382 289 q 405 324 396 310 q 422 350 414 338 q 437 372 431 363 q 443 382 443 382 l 451 389 l 554 389 q 561 386 556 389 q 569 382 567 383 q 606 360 583 374 q 651 333 629 346 q 688 311 672 321 q 703 301 703 301 l 718 286 l 779 194 l 779 190 q 773 172 778 188 q 760 134 768 157 q 749 99 753 111 q 747 96 749 99 q 746 92 746 93 q 731 69 740 83 q 714 43 722 56 q 699 21 706 31 q 692 11 692 11 l 681 0 l 581 0 q 578 1 581 0 q 574 4 575 3 q 549 19 567 8 q 513 40 532 29 q 476 62 493 51 q 451 76 458 72 q 436 58 444 71 q 420 33 428 46 q 406 10 413 19 q 394 0 399 0 l 293 0 m 364 92 l 310 11 l 386 11 q 394 19 392 11 q 408 38 400 26 q 422 60 415 50 q 435 79 429 71 q 440 88 440 88 l 440 92 l 364 92 m 726 92 l 654 92 q 646 83 647 92 q 633 65 640 76 q 617 42 625 53 q 605 24 610 32 q 600 15 600 15 l 600 11 l 672 11 q 681 19 678 11 q 694 38 686 26 q 708 60 701 50 q 721 79 715 71 q 726 88 726 88 l 726 92 m 458 88 q 481 74 465 83 q 516 53 497 64 q 551 33 535 43 q 574 19 567 24 q 578 17 575 18 q 581 15 581 15 q 585 18 582 15 q 589 22 588 21 q 602 42 594 31 q 617 64 610 53 q 629 83 624 75 q 635 92 635 92 l 635 99 q 620 108 635 99 q 585 129 606 117 q 544 154 565 142 q 508 175 522 167 q 501 179 506 176 q 493 183 496 182 l 492 183 l 489 183 l 451 126 l 451 122 q 456 106 451 111 q 458 88 461 100 m 242 99 l 297 17 l 353 99 l 297 182 l 242 99 m 176 194 l 232 111 l 288 194 l 232 278 l 176 194 m 439 136 l 478 194 l 425 275 l 421 275 q 414 266 419 274 q 402 248 408 258 q 391 228 396 238 q 386 217 386 219 l 386 214 l 439 136 m 576 217 l 578 214 q 581 207 579 211 q 585 203 583 203 l 664 203 l 615 275 l 611 275 q 604 266 610 274 q 592 248 599 258 q 581 228 586 238 q 576 217 576 219 m 532 282 q 547 259 535 276 q 563 236 558 242 l 565 233 l 599 282 l 532 282 m 238 332 q 208 292 219 319 q 192 244 197 264 q 205 259 197 249 q 219 283 213 269 q 232 309 226 296 q 238 331 238 322 l 238 332 m 428 332 q 400 292 411 319 q 383 244 389 264 q 397 259 389 249 q 411 283 404 269 q 424 309 418 296 q 429 331 429 322 q 428 332 429 332 m 142 385 l 197 303 l 253 385 l 197 468 l 142 385 m 242 343 q 239 339 239 343 q 242 336 239 336 q 244 339 244 336 q 242 343 244 343 m 432 343 q 429 339 429 343 q 432 336 429 336 q 435 339 435 336 q 432 343 435 343 m 203 522 q 175 483 186 511 q 157 435 164 454 q 170 449 163 439 q 185 473 178 460 q 197 499 192 486 q 203 521 203 513 l 203 522 m 108 576 l 164 493 l 218 576 l 164 660 l 108 576 m 207 535 q 204 531 204 535 q 207 526 204 526 q 210 531 210 526 q 207 535 210 535 m 50 664 l -19 664 l -26 657 q -40 638 -32 649 q -55 615 -47 626 q -67 596 -62 604 q -72 588 -72 588 l -72 583 l 0 583 q 1 585 0 583 q 6 592 3 588 q 22 618 11 601 q 41 647 33 635 q 50 660 49 658 l 50 664 m -236 675 l -233 672 q -218 663 -233 672 q -181 640 -203 653 q -137 614 -160 628 q -99 592 -114 600 q -94 589 -97 590 q -92 588 -92 588 q -83 596 -86 588 q -71 615 -79 603 q -56 637 -62 626 q -43 656 -49 647 q -37 664 -37 664 l -37 672 q -52 681 -37 672 q -87 701 -67 689 q -128 726 -107 714 q -164 747 -150 739 q -172 751 -167 749 q -179 756 -176 754 l -182 756 l -183 756 l -236 675 m 169 714 q 140 674 151 701 q 124 626 129 646 q 137 641 129 631 q 151 664 144 651 q 164 690 158 676 q 169 711 169 703 l 169 714 m -306 767 l -250 683 l -194 767 l -250 850 l -306 767 m 96 735 l 96 733 l 129 683 l 185 767 l 131 847 l 126 847 q 120 839 125 846 q 108 820 115 832 q 96 801 100 808 q 94 793 94 796 q 93 790 93 790 l 93 786 q 98 777 93 785 q 104 767 103 769 l 104 765 l 104 763 q 100 750 103 761 q 96 736 97 739 l 96 735 m 172 725 q 169 721 169 725 q 172 718 169 718 q 175 721 175 718 q 172 725 175 725 m -96 790 l -96 786 q -92 779 -94 783 q -87 775 -89 775 l -8 775 l -57 847 l -61 847 q -67 838 -62 846 q -80 819 -72 831 q -92 801 -87 808 q -96 790 -96 793 m -142 854 q -126 831 -137 849 q -111 808 -114 814 q -108 807 -110 808 q -107 806 -107 806 l -74 854 l -142 854 m 24 878 q 53 840 43 863 q 81 806 63 818 l 119 863 l 64 946 l 24 885 l 24 878 m -244 904 q -272 864 -261 892 q -290 817 -283 836 q -277 831 -285 821 q -262 855 -269 842 q -250 881 -256 868 q -244 903 -244 894 l -244 904 m -240 915 q -243 911 -243 915 q -240 908 -243 908 q -237 911 -237 908 q -240 915 -237 915 z "},"(":{"ha":656,"x_min":-131,"x_max":676,"o":"m 511 0 l 613 0 l 619 7 q 626 17 619 7 q 642 40 633 26 q 659 66 650 53 q 674 88 668 79 q 676 99 676 99 q 674 111 676 100 q 659 133 668 119 q 642 158 650 146 q 626 181 633 171 q 619 190 619 190 l 613 200 l 517 200 l 357 297 l 43 761 l 93 761 l 101 771 q 108 781 101 771 q 124 803 115 790 q 140 828 132 815 q 154 850 149 842 q 158 863 158 856 q 154 874 158 867 q 140 896 149 882 q 122 922 131 910 q 108 944 114 935 q 101 954 101 954 l 93 961 l -4 961 l -12 954 q -19 944 -12 954 q -33 922 -25 935 q -51 896 -42 910 q -65 874 -60 882 q -69 865 -69 869 l -131 679 l -131 674 q -130 667 -131 668 q -126 660 -129 665 q -115 643 -124 656 q -98 616 -107 631 q -81 589 -89 601 q -69 572 -72 576 l -96 489 q -97 486 -96 488 q -97 483 -97 485 q -93 469 -97 475 q -78 447 -87 461 q -61 421 -69 433 q -46 399 -53 408 q -39 389 -39 389 l -32 382 l 126 285 l 189 193 l 511 0 m 658 92 l 658 88 q 653 79 658 88 q 640 60 647 71 q 625 38 633 50 q 613 19 617 26 l 604 11 l 532 11 l 532 15 q 537 24 532 15 q 549 42 542 32 q 565 65 557 53 q 578 83 572 76 q 582 89 579 86 q 585 92 585 92 l 658 92 m 368 103 l 421 183 l 422 183 l 425 183 q 433 179 428 182 q 440 175 438 176 q 476 154 454 167 q 517 129 497 142 q 552 108 538 117 q 567 99 567 99 l 567 92 q 561 83 567 92 q 549 64 556 75 q 534 42 542 53 q 521 22 526 31 q 517 18 519 21 q 513 15 514 15 q 510 17 513 15 q 506 19 507 18 q 467 42 490 28 q 424 68 444 56 q 388 90 403 81 q 372 99 372 99 l 368 103 m 207 199 l 261 278 l 261 279 l 263 279 l 264 279 q 265 278 265 279 q 272 275 267 278 q 281 271 278 272 q 315 249 294 263 q 356 224 336 236 q 391 203 376 213 q 406 194 406 194 l 406 188 q 400 179 406 188 q 388 160 394 171 q 373 137 381 149 q 360 118 365 125 l 353 111 q 350 113 353 111 q 344 114 347 114 q 307 136 329 122 q 264 163 285 150 q 228 185 243 175 q 211 194 213 194 l 207 199 m 139 290 l 194 372 l 250 290 l 194 207 l 139 290 m -17 389 l 36 469 l 38 469 l 40 469 q 47 465 42 468 q 56 461 53 463 q 90 440 69 453 q 131 415 111 428 q 166 394 151 403 q 181 385 181 385 l 181 378 q 175 369 181 378 q 163 350 169 361 q 148 328 156 339 q 135 308 140 317 l 128 301 l 119 306 q 82 328 104 314 q 39 354 60 342 q 3 376 18 367 q -12 385 -11 385 l -17 389 m -85 481 l -29 564 l 25 481 l -29 397 l -85 481 m -24 618 l -24 617 q -29 595 -24 608 q -42 569 -35 582 q -56 545 -49 556 q -69 531 -64 535 q -53 578 -64 550 q -24 618 -42 606 m -119 671 l -64 754 l -8 671 l -64 589 l -119 671 m -19 629 q -17 625 -17 629 q -19 622 -17 622 q -22 625 -22 622 q -19 629 -22 629 m -58 808 l -58 807 q -64 785 -58 799 q -76 759 -69 772 q -91 735 -83 746 q -104 721 -99 725 q -87 769 -97 740 q -58 808 -76 797 m 67 854 l 139 854 l 139 850 q 130 837 138 849 q 111 808 122 825 q 93 782 100 792 q 89 777 92 779 q 86 775 86 775 l 40 775 l 67 854 m -28 904 l -28 903 q -33 881 -28 894 q -46 855 -39 868 q -60 831 -53 842 q -74 817 -68 821 q -57 864 -68 836 q -28 904 -46 892 m -54 819 q -51 815 -51 819 q -54 813 -51 813 q -57 815 -57 813 q -54 819 -57 819 m -24 915 q -21 911 -21 915 q -24 908 -21 908 q -26 911 -26 908 q -24 915 -26 915 z "},")":{"ha":632,"x_min":-367,"x_max":444,"o":"m 151 99 q 154 88 151 99 q 169 66 160 79 q 186 40 178 53 q 201 17 194 26 q 208 7 208 7 l 215 0 l 315 0 l 326 11 q 333 21 326 11 q 349 43 340 31 q 366 69 357 56 q 381 92 375 83 q 382 96 381 93 q 383 99 383 99 l 444 286 l 444 290 q 433 307 442 294 q 415 333 425 319 q 398 360 406 347 q 388 378 390 372 q 383 389 383 386 l 383 393 l 411 479 l 343 582 l 182 679 l 117 774 l -196 961 l -301 961 l -310 954 q -316 944 -310 954 q -331 922 -322 935 q -348 896 -339 910 q -362 874 -357 882 q -367 863 -367 867 q -362 851 -367 857 q -348 830 -357 843 q -331 804 -339 817 q -316 782 -322 792 q -310 771 -310 772 l -301 761 l -203 761 q -199 758 -201 760 q -194 756 -196 757 q -166 738 -186 750 q -123 711 -146 725 q -79 685 -100 697 q -50 668 -58 672 l -46 664 l 265 200 l 215 200 l 208 190 q 201 181 208 190 q 186 158 194 171 q 169 133 178 146 q 154 111 160 119 q 151 99 151 100 m 285 92 l 361 92 l 361 88 q 356 79 361 88 q 343 60 350 71 q 328 38 336 50 q 315 19 321 26 q 307 11 313 11 l 231 11 l 285 92 m 163 99 l 218 182 l 274 99 l 218 17 l 163 99 m 319 236 l 319 235 q 315 215 319 229 q 301 201 311 201 l 299 201 q 296 203 297 201 q 306 221 300 211 q 319 236 311 231 m 224 290 l 279 374 l 335 290 l 279 207 l 224 290 m 322 249 q 325 244 325 249 q 322 240 325 240 q 319 244 319 240 q 322 249 319 249 m 158 386 l 214 468 l 269 386 l 214 303 l 158 386 m 93 481 l 149 564 l 204 481 l 149 397 l 93 481 m 29 576 l 85 660 l 139 576 l 85 493 l 29 576 m -35 672 l 19 754 l 75 672 l 19 589 l -35 672 m -192 771 l -137 851 l -136 851 l -133 851 q -126 847 -132 850 q -118 843 -121 844 q -83 822 -104 835 q -42 797 -62 810 q -8 776 -22 785 q 6 767 6 767 l 6 760 q -3 747 4 758 q -21 717 -10 735 q -39 690 -32 700 l -46 683 l -54 688 q -92 709 -69 696 q -135 735 -114 722 q -171 758 -156 749 q -187 767 -186 767 l -192 771 m -233 854 l -157 854 l -157 851 q -162 843 -157 851 q -175 824 -168 835 q -190 801 -182 813 q -203 782 -197 789 l -210 775 l -286 775 l -233 854 m -356 863 l -300 946 l -244 863 l -300 779 l -356 863 z "},"*":{"ha":808,"x_min":-143,"x_max":628,"o":"m 113 292 q 113 295 113 293 q 114 297 114 297 l 139 379 l -44 379 l -51 389 q -58 399 -51 389 q -74 421 -65 408 q -91 447 -82 433 q -106 468 -100 460 q -108 481 -108 482 q -108 483 -108 481 q -106 492 -107 486 q -97 505 -103 496 q -84 524 -90 514 q -72 544 -78 535 q -62 557 -65 553 l -62 558 q -72 569 -62 565 q -86 579 -82 574 q -97 595 -89 583 q -112 619 -104 607 q -128 644 -121 632 q -139 660 -136 656 q -143 671 -143 665 q -139 682 -143 675 q -124 704 -133 690 q -107 731 -115 718 q -92 753 -99 743 q -86 763 -86 763 l -78 769 l 22 769 q 28 767 22 769 q 38 763 35 764 q 56 751 42 760 q 89 731 71 742 q 122 712 107 721 q 140 701 136 703 q 144 699 142 700 q 147 697 147 697 l 150 697 l 151 697 l 156 701 q 163 712 157 703 q 177 731 169 721 q 190 751 185 742 q 197 763 196 760 q 201 767 199 764 q 206 769 204 769 l 307 769 l 374 669 l 346 581 l 529 581 l 536 572 q 544 561 538 571 q 558 539 550 551 q 576 513 567 526 q 590 492 585 500 q 594 481 594 483 q 593 472 594 474 q 581 454 592 469 q 563 427 574 443 q 549 404 551 411 q 560 392 551 401 q 571 381 568 383 q 578 369 572 379 q 593 347 585 360 q 610 322 601 335 q 625 301 619 308 q 628 289 628 288 q 627 286 628 289 q 625 278 626 283 q 610 256 619 269 q 593 230 601 243 q 578 207 585 217 q 571 197 571 197 l 564 190 l 464 190 q 461 192 464 190 q 457 194 458 193 q 433 209 450 199 q 396 231 415 219 q 359 252 376 242 q 335 267 342 263 q 331 263 331 267 q 324 251 329 260 q 310 231 318 242 q 297 212 303 221 q 289 201 290 203 l 278 190 l 178 190 l 171 197 q 164 207 171 197 q 149 230 157 217 q 131 256 140 243 q 117 278 122 269 q 113 285 114 283 q 113 292 113 286 m 247 282 l 193 201 l 269 201 q 278 210 275 201 q 291 228 283 217 q 306 251 299 240 q 318 269 313 261 q 324 278 324 278 l 324 282 l 247 282 m 610 282 l 536 282 q 533 279 536 282 q 529 274 531 276 q 516 255 524 267 q 501 233 508 243 q 488 214 493 222 q 483 206 483 206 l 483 201 l 556 201 l 564 210 q 576 228 568 217 q 592 251 585 240 q 604 269 599 261 q 610 278 610 278 l 610 282 m 342 278 q 365 264 349 274 q 399 244 381 254 q 434 224 418 233 q 457 210 450 214 q 461 207 458 208 q 464 206 464 206 q 468 208 465 206 q 472 213 471 211 q 485 232 478 221 q 500 254 493 243 q 513 274 507 265 q 518 282 518 282 l 518 289 q 503 298 518 289 q 469 319 489 307 q 427 344 449 332 q 392 365 406 357 q 384 369 389 367 q 376 374 379 372 q 372 365 376 369 q 367 349 371 361 q 357 322 363 336 q 347 296 351 308 q 342 278 343 283 m 125 289 l 181 207 l 236 289 l 181 372 l 125 289 m 186 426 q 157 387 168 415 q 140 339 146 358 q 153 353 146 343 q 168 377 161 364 q 181 403 175 390 q 186 425 186 417 l 186 426 m 22 472 l -29 392 l 44 392 q 53 400 50 392 q 71 426 60 410 q 90 455 82 443 q 99 468 97 467 l 99 472 l 22 472 m 117 472 l 64 392 l 140 392 q 143 394 140 392 q 147 400 146 397 q 165 426 154 410 q 184 455 176 443 q 193 468 192 467 l 193 472 l 117 472 m -97 481 l -42 397 l 11 481 l -42 563 l -97 481 m 483 446 q 490 435 483 442 q 504 424 496 429 q 522 415 513 418 q 535 411 531 411 l 536 411 l 578 472 l 499 472 q 492 464 497 472 q 483 450 486 456 l 483 446 m 190 438 q 188 433 188 438 q 190 431 188 431 q 193 433 193 431 q 190 438 193 438 m 431 472 q 447 461 433 469 q 467 453 460 453 q 476 460 471 453 q 481 472 481 468 l 431 472 m -62 579 q -60 576 -65 576 q -56 575 -56 575 q -44 581 -49 575 l 121 581 q 97 594 114 585 q 63 616 81 604 q 28 638 44 628 q 7 651 13 647 q 0 656 4 653 q -6 660 -4 658 l -8 660 l -10 660 l -62 579 m -132 671 l -76 588 l -21 671 l -76 754 l -132 671 m 182 713 q 172 701 176 708 q 167 686 167 693 l 175 686 q 178 694 175 686 q 182 708 181 703 l 182 711 l 182 713 m 186 724 q 183 719 183 724 q 186 717 183 717 q 189 719 189 717 q 186 724 189 724 z "},"+":{"ha":831,"x_min":-101,"x_max":601,"o":"m 279 190 l 151 379 l -36 379 l -44 389 q -51 400 -44 390 q -65 422 -57 410 q -83 448 -74 435 q -97 469 -92 461 q -101 481 -101 474 q -97 492 -101 485 q -83 513 -92 500 q -65 539 -74 526 q -51 561 -57 551 q -44 572 -44 571 l -36 582 l 10 582 l -36 660 q -40 671 -40 665 q -36 682 -40 675 q -22 704 -31 690 q -6 731 -14 718 q 8 753 1 743 q 14 763 14 763 l 22 771 l 219 771 l 346 582 l 538 582 l 544 572 q 551 561 544 571 q 566 539 557 551 q 584 513 575 526 q 599 492 593 500 q 601 483 600 486 q 601 481 601 481 q 599 469 601 481 q 584 448 593 461 q 566 422 575 435 q 551 400 557 410 q 544 389 544 390 l 538 379 l 488 379 q 497 364 490 375 q 512 340 504 353 q 527 317 519 328 q 538 301 535 306 q 540 289 540 288 q 540 286 540 289 q 538 278 539 283 q 523 256 532 269 q 506 230 514 243 q 490 207 497 217 q 483 197 483 197 l 476 190 l 279 190 m 350 282 l 296 201 l 372 201 q 381 210 378 201 q 394 228 386 217 q 408 251 401 240 q 421 269 415 261 q 426 278 426 278 l 426 282 l 350 282 m 446 282 l 392 201 l 468 201 l 476 210 q 489 228 481 217 q 504 251 497 240 q 517 269 511 261 q 522 278 522 278 l 522 282 l 446 282 m 228 289 l 283 207 l 339 289 l 283 372 l 228 289 m 163 385 l 218 301 l 274 385 l 218 468 l 163 385 m 29 472 l -21 393 l 53 393 q 56 395 53 393 q 60 400 58 397 q 73 419 65 407 q 88 442 81 431 q 100 461 94 453 q 106 469 106 469 l 106 472 l 29 472 m 125 472 l 71 393 l 147 393 q 156 400 151 393 q 169 419 161 407 q 183 442 176 431 q 196 461 190 453 q 201 469 201 469 l 201 472 l 125 472 m 468 410 q 469 400 468 407 q 476 393 471 393 l 529 393 q 538 400 531 393 q 554 428 543 411 q 574 456 565 444 q 583 469 582 468 l 583 472 l 507 472 l 468 415 l 468 410 m -90 481 l -35 397 l 18 481 l -35 564 l -90 481 m 422 472 q 438 449 425 467 q 453 426 450 432 q 454 425 453 426 q 457 424 456 424 l 490 472 l 422 472 m 39 583 l 139 583 l 89 658 l 39 583 m -29 671 l 24 588 l 79 671 l 24 754 l -29 671 z "},",":{"ha":446,"x_min":83,"x_max":536,"o":"m 371 -90 l 307 0 l 149 96 l 140 104 q 134 113 140 104 q 119 135 128 122 q 102 162 111 149 q 88 183 93 175 q 83 194 83 189 q 88 207 83 200 q 102 228 93 215 q 119 254 111 242 q 134 276 128 267 q 140 286 140 286 l 149 294 l 344 294 l 533 17 q 536 4 536 3 q 535 2 536 4 q 533 -3 535 0 q 519 -24 528 -11 q 501 -51 510 -37 q 486 -74 493 -64 q 479 -83 479 -83 l 472 -90 l 371 -90 m 442 0 l 388 -79 l 464 -79 l 472 -71 q 485 -52 478 -64 q 500 -30 493 -40 q 513 -11 507 -19 q 518 -3 518 -3 l 518 0 l 442 0 m 319 4 l 375 -74 l 429 4 l 375 88 l 319 4 m 164 104 l 167 100 q 183 90 168 100 q 219 68 199 81 q 263 42 240 56 q 300 19 285 28 q 306 17 304 18 q 308 17 308 17 q 311 19 308 17 q 315 24 314 21 q 333 50 322 33 q 352 78 344 67 q 361 92 360 90 l 361 100 q 347 109 361 100 q 312 130 332 118 q 271 155 292 142 q 236 176 250 168 q 228 181 233 178 q 221 183 222 183 l 218 183 l 217 183 l 164 104 m 94 194 l 150 113 l 206 194 l 150 278 l 94 194 z "},"-":{"ha":824,"x_min":-101,"x_max":601,"o":"m -101 479 q -97 492 -101 485 q -83 513 -92 500 q -65 540 -74 526 q -51 562 -57 553 q -44 571 -44 571 l -36 579 l 538 579 l 544 571 q 551 562 544 571 q 567 540 558 553 q 584 513 575 526 q 599 492 593 500 q 601 479 601 478 q 601 476 601 479 q 599 468 600 474 q 584 447 593 460 q 567 420 575 433 q 551 397 558 407 q 544 388 544 388 l 538 381 l -36 381 l -44 388 q -55 404 -46 390 q -77 438 -64 418 q -97 468 -90 458 q -101 479 -101 474 m 29 472 l -21 392 l 53 392 q 56 394 53 392 q 60 400 58 397 q 73 419 65 407 q 88 441 81 431 q 100 460 94 451 q 106 468 106 468 l 106 472 l 29 472 m 125 472 l 71 392 l 147 392 q 156 400 153 392 q 169 419 161 407 q 183 441 176 431 q 196 460 190 451 q 201 468 201 468 l 201 472 l 125 472 m 221 472 l 167 392 l 243 392 l 251 400 q 263 419 256 407 q 278 441 271 431 q 291 460 286 451 q 296 468 296 468 l 296 472 l 221 472 m 315 472 l 263 392 l 339 392 q 342 394 339 392 q 346 400 344 397 q 359 419 351 407 q 374 441 367 431 q 386 460 381 451 q 392 468 392 468 l 392 472 l 315 472 m 411 472 l 357 392 l 433 392 q 442 400 439 392 q 455 419 447 407 q 469 441 463 431 q 482 460 476 451 q 488 468 488 468 l 488 472 l 411 472 m 507 472 l 453 392 l 529 392 l 538 400 q 550 419 542 407 q 565 441 558 431 q 578 460 572 451 q 583 468 583 468 l 583 472 l 507 472 m -90 479 l -35 397 l 18 479 l -35 563 l -90 479 z "},".":{"ha":438,"x_min":83,"x_max":472,"o":"m 211 0 l 408 0 l 415 7 q 422 17 415 7 q 438 40 429 26 q 455 66 446 53 q 469 88 464 79 q 472 99 472 99 q 469 111 472 100 l 346 294 l 149 294 l 140 286 q 134 276 140 286 q 119 254 128 267 q 102 228 111 242 q 88 206 93 214 q 83 194 83 199 q 88 183 83 189 l 211 0 m 282 92 l 358 92 l 358 88 q 353 79 358 88 q 340 60 347 71 q 326 38 333 50 q 313 19 318 26 q 304 11 310 11 l 228 11 l 282 92 m 378 92 l 454 92 l 454 88 q 449 79 454 88 q 436 60 443 71 q 421 38 429 50 q 408 19 413 26 l 400 11 l 324 11 l 378 92 m 160 99 l 215 182 l 271 99 l 215 17 l 160 99 m 94 194 l 150 278 l 206 194 l 150 111 l 94 194 z "},"<":{"ha":744,"x_min":-103,"x_max":765,"o":"m 600 0 l 701 0 l 708 7 q 715 17 708 7 q 731 40 722 26 q 748 66 739 53 q 763 88 757 79 q 765 99 765 99 q 763 111 765 100 q 748 133 757 119 q 731 159 739 146 q 715 181 722 172 q 708 190 708 190 l 693 206 l 219 489 q 213 498 219 489 q 199 519 207 507 q 181 546 190 532 q 167 568 172 560 q 163 581 163 574 l 163 583 l 251 861 l 185 961 l 83 961 l 75 954 q 68 944 75 954 q 53 922 61 935 q 36 896 44 910 q 22 874 28 882 q 19 869 21 872 q 18 867 18 867 l -103 489 l -103 483 q -99 469 -103 475 q -84 447 -93 461 q -67 421 -75 433 q -52 399 -58 408 q -46 389 -46 389 l -37 382 l 600 0 m 747 92 l 747 88 q 742 79 747 88 q 729 60 736 71 q 714 38 722 50 q 701 19 706 26 l 693 11 l 621 11 l 621 15 q 626 24 621 15 q 638 42 631 32 q 653 65 646 53 q 667 83 661 76 q 671 89 668 86 q 674 92 674 92 l 747 92 m 457 103 l 510 183 l 511 183 l 514 183 q 522 179 517 182 q 529 175 526 176 q 565 154 543 167 q 606 129 586 142 q 641 108 626 117 q 656 99 656 99 l 656 92 q 650 83 656 92 q 638 64 644 75 q 623 42 631 53 q 610 22 615 31 q 606 18 608 21 q 601 15 603 15 q 599 17 601 15 q 594 19 596 18 q 556 42 579 28 q 513 68 533 56 q 476 90 492 81 q 461 99 461 99 l 457 103 m 296 199 l 350 279 l 351 279 l 354 279 q 361 275 356 278 q 369 271 367 272 q 404 249 383 263 q 445 224 425 236 q 480 203 465 213 q 494 194 494 194 l 494 188 q 489 179 494 188 q 476 160 483 171 q 462 137 469 149 q 449 118 454 125 l 442 111 q 439 113 442 111 q 433 114 436 114 q 396 136 418 122 q 353 163 374 150 q 317 185 332 175 q 300 194 301 194 l 296 199 m 136 293 l 189 374 l 192 374 l 193 374 q 201 371 196 374 q 208 367 207 368 q 244 345 222 358 q 285 320 265 332 q 320 299 306 308 q 335 290 335 290 l 335 282 q 326 269 333 281 q 307 240 318 257 q 289 214 296 224 q 281 206 286 206 q 278 207 281 206 q 274 210 275 208 q 235 232 258 218 q 192 258 213 246 q 156 281 171 271 q 140 290 140 290 l 136 293 m -22 389 l 29 469 l 31 469 l 33 469 q 40 465 35 468 q 49 461 46 463 q 84 440 63 453 q 126 415 106 428 q 160 394 146 403 q 175 385 175 385 l 175 378 q 169 369 175 378 q 157 350 164 361 q 142 328 150 339 q 129 308 133 317 q 125 304 128 307 q 121 301 122 301 q 118 303 121 301 q 114 306 115 304 q 76 328 99 314 q 31 354 53 342 q -5 376 10 367 q -19 385 -19 385 l -22 389 m -92 481 l -36 564 l 18 481 l -36 397 l -92 481 m -31 618 l -31 617 q -36 595 -31 608 q -49 569 -42 582 q -63 545 -56 556 q -76 531 -71 535 q -59 578 -69 550 q -31 618 -49 606 m 0 714 l 0 711 q -5 690 0 703 q -17 664 -10 676 q -33 640 -25 651 q -46 625 -40 629 q -29 673 -40 644 q 0 714 -18 701 m -26 629 q -24 625 -24 629 q -26 622 -24 622 q -29 625 -29 622 q -26 629 -29 629 m 29 808 l 29 807 q 24 785 29 799 q 12 759 19 772 q -3 735 4 746 q -15 721 -11 725 q 1 769 -10 740 q 29 808 11 797 m 3 725 q 6 721 6 725 q 3 717 6 717 q 0 721 0 717 q 3 725 0 725 m 60 904 l 60 903 q 54 881 60 894 q 42 855 49 868 q 27 831 35 842 q 14 817 19 821 q 31 864 19 836 q 60 904 42 892 m 33 821 q 36 817 36 821 q 33 813 36 813 q 31 817 31 813 q 33 821 31 821 m 64 915 q 67 911 67 915 q 64 908 67 908 q 61 911 61 908 q 64 915 61 915 z "},"=":{"ha":828,"x_min":-165,"x_max":668,"o":"m -36 385 q -32 374 -36 382 q -18 352 -26 365 q -1 326 -10 339 q 13 303 7 313 q 21 293 19 293 l 28 286 l 604 286 l 611 293 q 618 303 611 293 q 633 326 625 313 q 651 352 642 339 q 665 374 660 365 q 668 385 668 385 q 665 397 668 386 q 651 419 660 406 q 633 444 642 432 q 618 467 625 457 q 611 476 611 476 l 604 486 l 485 486 q 495 501 488 490 q 510 525 503 513 q 525 549 518 538 q 535 564 532 560 q 538 571 538 569 q 539 576 539 572 q 535 588 539 581 q 515 617 528 597 q 492 651 501 638 q 482 668 483 665 l 474 675 l -100 675 l -108 668 q -119 651 -110 665 q -141 617 -128 638 q -161 588 -154 597 q -165 576 -165 581 q -161 564 -165 569 q -147 542 -156 556 q -131 517 -139 529 q -115 494 -122 504 q -108 485 -108 485 l -100 475 l 17 475 q 0 448 13 468 q -22 413 -12 428 q -35 394 -33 396 q -36 385 -36 392 m 96 378 l 172 378 l 172 374 q 167 365 172 374 q 154 347 161 357 q 140 324 147 336 q 126 306 132 313 q 122 300 125 303 q 119 297 119 297 l 43 297 l 96 378 m 192 378 l 268 378 l 268 374 q 263 365 268 374 q 250 347 257 357 q 235 324 243 336 q 222 306 228 313 q 218 300 221 303 q 215 297 215 297 l 139 297 l 192 378 m 288 378 l 364 378 l 364 374 q 358 365 364 374 q 346 347 353 357 q 331 324 339 336 q 318 306 324 313 q 310 297 315 297 l 233 297 l 288 378 m 382 378 l 458 378 l 458 374 q 453 365 458 374 q 440 347 447 357 q 426 324 433 336 q 413 306 418 313 q 408 300 411 303 q 406 297 406 297 l 329 297 l 382 378 m 478 378 l 554 378 l 554 374 q 549 365 554 374 q 536 347 543 357 q 522 324 529 336 q 508 306 514 313 q 500 297 506 297 l 425 297 l 478 378 m 574 378 l 650 378 l 650 374 q 644 365 650 374 q 632 347 639 357 q 617 324 625 336 q 604 306 608 313 l 596 297 l 519 297 l 574 378 m -24 385 l 29 468 l 85 385 l 29 303 l -24 385 m -32 568 l 43 568 l 43 564 q 34 551 42 563 q 15 522 26 539 q -1 496 4 506 q -6 491 -3 493 q -8 489 -8 489 l -85 489 l -32 568 m 63 568 l 139 568 l 139 564 q 130 551 138 563 q 111 522 122 539 q 93 496 100 506 q 85 489 89 489 l 8 489 l 63 568 m 157 568 l 233 568 l 233 564 q 224 551 232 563 q 206 522 217 539 q 188 496 194 506 q 183 491 186 493 q 181 489 181 489 l 104 489 l 157 568 m 253 568 l 329 568 l 329 564 q 320 551 328 563 q 301 522 313 539 q 283 496 290 506 q 275 489 279 489 l 200 489 l 253 568 m 349 568 l 425 568 l 425 564 q 415 551 424 563 q 396 522 407 539 q 379 496 385 506 q 371 489 372 489 l 294 489 l 349 568 m 443 568 l 519 568 l 519 564 q 510 551 518 563 q 492 522 503 539 q 474 496 481 506 q 469 491 472 493 q 467 489 467 489 l 390 489 l 443 568 m -154 576 l -99 658 l -43 576 l -99 493 l -154 576 z "},">":{"ha":721,"x_min":-365,"x_max":506,"o":"m 150 101 l 150 107 l 238 381 l 175 475 l -300 763 l -308 769 q -315 779 -308 769 q -329 801 -321 789 q -347 828 -337 814 q -361 850 -356 842 q -365 861 -365 856 q -361 872 -365 865 q -347 894 -356 881 q -329 921 -337 908 q -315 943 -321 933 q -308 953 -308 953 l -300 960 l -196 960 l 436 582 l 506 479 l 382 99 q 381 96 382 99 q 379 92 379 93 q 365 69 374 83 q 347 43 356 56 q 332 21 339 31 q 325 11 325 11 l 314 0 l 215 0 l 207 7 q 197 24 206 10 q 174 58 188 38 q 154 88 161 78 q 151 94 151 93 q 150 101 150 96 m 283 92 l 231 11 l 307 11 q 310 14 307 11 q 314 19 313 17 q 327 38 319 26 q 342 60 335 50 q 354 79 349 71 q 360 88 360 88 l 360 92 l 283 92 m 161 99 l 217 17 l 272 99 l 217 182 l 161 99 m 222 236 q 194 196 206 224 q 176 149 183 168 q 190 163 182 153 q 204 187 197 174 q 217 213 211 200 q 222 235 222 226 l 222 236 m 253 332 q 225 292 236 319 q 207 244 214 264 q 220 259 213 249 q 235 282 228 269 q 248 308 243 294 q 253 329 253 321 l 253 332 m 226 247 q 224 243 224 247 q 226 240 224 240 q 229 243 229 240 q 226 247 229 247 m 283 426 q 255 387 265 415 q 238 339 244 358 q 251 353 243 343 q 265 377 258 364 q 278 403 272 390 q 283 425 283 417 l 283 426 m 257 343 q 254 339 254 343 q 257 335 254 335 q 260 339 260 335 q 257 343 260 343 m 189 481 l 243 397 l 299 481 l 243 563 l 189 481 m 288 439 q 285 435 285 439 q 288 431 285 431 q 290 435 290 431 q 288 439 290 439 m 32 579 l 36 575 q 51 566 36 575 q 88 544 67 557 q 131 518 108 532 q 169 496 154 504 q 174 493 171 494 q 176 492 176 492 q 181 494 178 492 q 185 499 183 497 q 198 518 190 507 q 213 540 206 529 q 225 560 219 551 q 231 568 231 568 l 231 575 q 216 584 231 575 q 181 606 201 593 q 140 631 161 618 q 104 651 118 643 q 97 656 101 653 q 89 660 92 658 l 88 660 l 85 660 l 32 579 m -125 675 l -121 671 q -106 661 -121 671 q -69 639 -90 651 q -26 613 -49 626 q 10 590 -4 599 q 14 588 11 589 q 17 586 17 586 q 21 590 18 588 q 25 594 24 592 q 42 621 31 604 q 61 649 53 638 q 71 663 69 661 l 71 671 q 56 680 71 671 q 22 701 42 689 q -19 726 1 713 q -53 747 -40 739 q -60 751 -56 749 q -68 754 -65 754 l -71 754 l -72 754 l -125 675 m -285 769 l -282 765 q -265 756 -281 765 q -229 734 -250 747 q -186 708 -208 721 q -149 686 -164 694 l -140 682 q -137 685 -140 682 q -133 690 -135 688 q -120 709 -128 697 q -106 731 -112 721 q -93 750 -99 742 q -87 758 -87 758 l -87 765 q -102 774 -87 765 q -137 796 -117 783 q -178 821 -157 808 q -212 842 -199 833 q -221 846 -215 843 q -228 850 -226 849 l -231 850 l -232 850 l -285 769 m -354 861 l -299 778 l -243 861 l -299 944 l -354 861 z "},"?":{"ha":829,"x_min":-297,"x_max":669,"o":"m 408 0 l 606 0 l 613 7 q 619 17 613 7 q 635 40 626 26 q 652 66 643 53 q 667 88 661 79 q 669 99 669 99 q 667 111 669 100 l 542 296 l 422 296 q 432 311 425 300 q 447 335 439 322 q 462 358 454 347 q 472 374 469 369 q 475 385 475 385 q 466 410 475 399 q 447 434 457 422 q 427 458 436 446 q 418 485 418 469 l 418 488 l 476 669 l 350 858 l 335 874 q 319 883 335 874 q 282 905 303 892 q 238 931 261 918 q 201 953 215 944 q 192 958 199 956 q 186 961 186 961 l -201 961 l -210 953 q -216 944 -210 953 q -231 922 -222 935 q -248 895 -239 908 q -262 874 -257 882 q -267 865 -267 869 q -273 847 -268 860 q -283 819 -278 833 q -292 792 -287 804 q -297 774 -296 779 l -297 768 q -293 756 -297 761 l -169 572 l 25 572 l 33 579 q 40 589 33 579 q 54 611 46 599 q 72 638 63 624 q 86 660 81 651 q 90 671 90 665 q 86 682 90 675 q 76 697 83 686 q 62 721 69 708 q 47 744 54 733 q 38 758 40 754 l 83 758 l 208 572 l 151 393 l 151 388 q 156 374 151 379 q 170 352 161 365 q 188 326 179 339 q 202 304 196 314 q 208 293 208 294 l 217 285 l 335 285 q 324 269 332 281 q 309 244 317 257 q 294 221 301 232 q 285 206 288 210 q 281 194 281 199 q 285 183 281 189 l 408 0 m 479 92 l 556 92 l 556 88 q 550 79 556 88 q 538 60 544 71 q 523 38 531 50 q 510 19 515 26 q 501 11 507 11 l 426 11 l 479 92 m 575 92 l 651 92 l 651 88 q 646 79 651 88 q 633 60 640 71 q 618 38 626 50 q 606 19 610 26 l 597 11 l 521 11 l 575 92 m 357 99 l 413 182 l 468 99 l 413 17 l 357 99 m 292 194 l 347 278 l 403 194 l 347 111 l 292 194 m 285 378 l 361 378 l 361 374 q 356 365 361 374 q 343 347 350 357 q 328 324 336 336 q 315 306 321 313 q 307 297 313 297 l 232 297 l 285 378 m 381 378 l 457 378 l 457 374 q 451 365 457 374 q 439 347 446 357 q 424 324 432 336 q 411 306 415 313 l 403 297 l 326 297 l 381 378 m 163 385 l 218 468 l 274 385 l 218 303 l 163 385 m 224 522 l 224 521 q 218 499 224 513 q 206 473 213 486 q 191 449 199 460 q 178 435 183 439 q 194 482 183 454 q 224 522 206 510 m 254 618 l 254 615 q 249 594 254 607 q 236 568 243 581 q 222 545 229 556 q 208 531 214 535 q 225 578 214 550 q 254 618 236 606 m 228 533 q 231 529 231 533 q 228 526 231 526 q 225 529 225 526 q 228 533 225 533 m -99 664 l -22 664 l -22 660 q -28 651 -22 660 q -40 632 -33 643 q -55 610 -47 621 q -68 590 -62 599 q -72 586 -69 589 q -76 583 -75 583 l -153 583 l -99 664 m -4 664 l 71 664 l 71 660 q 65 651 71 660 q 53 632 60 643 q 38 610 46 621 q 25 590 31 599 l 18 583 l -57 583 l -4 664 m -221 671 l -165 754 l -110 671 l -165 588 l -221 671 m 158 671 l 214 754 l 269 671 l 214 588 l 158 671 m 258 629 q 261 625 261 629 q 258 621 261 621 q 256 625 256 621 q 258 629 256 629 m -286 767 l -231 849 l -175 767 l -231 683 l -286 767 m 94 767 l 150 849 l 204 767 l 150 683 l 94 767 m 17 792 q 17 795 17 793 q 18 797 18 797 l 56 854 l 132 854 l 132 850 q 126 842 132 850 q 114 823 121 833 q 99 801 107 813 q 86 782 92 789 q 82 776 85 779 q 79 774 79 774 l 25 774 q 19 781 21 774 q 17 792 17 788 m -26 854 l 39 854 l 7 804 l 3 808 q -12 831 0 814 q -26 854 -24 849 m -225 904 l -225 901 q -230 880 -225 893 q -242 854 -235 867 q -258 831 -250 842 q -271 815 -265 819 q -253 863 -264 835 q -225 904 -243 892 m -221 915 q -218 911 -218 915 q -221 907 -218 907 q -224 911 -224 907 q -221 915 -224 915 z "},"@":{"ha":806,"x_min":-318,"x_max":840,"o":"m 126 103 l 135 96 q 152 85 135 96 q 194 59 169 74 q 244 29 218 44 q 288 4 271 14 q 292 1 289 3 q 294 0 294 0 l 776 0 l 783 7 q 790 17 783 7 q 806 40 797 26 q 823 66 814 53 q 838 88 832 79 q 840 99 840 99 q 838 111 840 100 q 823 133 832 119 q 806 158 814 146 q 790 181 797 171 q 783 190 783 190 l 776 200 l 657 200 q 667 215 660 204 q 681 240 674 226 q 697 264 689 253 q 707 279 704 275 q 711 290 711 285 q 707 301 711 294 l 329 858 l 314 874 q 298 883 314 874 q 261 906 282 893 q 217 932 240 918 q 181 954 194 946 q 172 959 178 957 q 165 961 165 961 l -222 961 l -231 954 q -237 944 -231 954 q -251 922 -243 935 q -269 896 -260 910 q -283 874 -278 882 q -287 867 -287 869 q -294 848 -289 861 q -303 820 -299 835 q -312 793 -308 806 q -318 775 -317 781 l -318 769 q -314 756 -318 761 l 126 103 m 440 92 l 440 88 q 435 79 440 88 q 422 60 429 71 q 408 38 415 50 q 394 19 400 26 q 386 11 392 11 l 314 11 l 314 15 q 319 24 314 15 q 331 42 324 32 q 347 65 339 53 q 360 83 354 76 q 368 92 361 92 l 440 92 m 458 92 l 535 92 l 535 88 q 529 79 535 88 q 517 60 524 71 q 502 38 510 50 q 489 19 494 26 q 485 14 488 17 q 482 11 482 11 l 406 11 l 458 92 m 554 92 l 631 92 l 631 88 q 625 79 631 88 q 613 60 619 71 q 598 38 606 50 q 585 19 590 26 q 581 14 583 17 q 578 11 578 11 l 501 11 l 554 92 m 650 92 l 726 92 l 726 88 q 721 79 726 88 q 708 60 715 71 q 694 38 701 50 q 681 19 686 26 q 672 11 678 11 l 596 11 l 650 92 m 746 92 l 822 92 l 822 88 q 817 79 822 88 q 804 60 811 71 q 789 38 797 50 q 776 19 781 26 l 768 11 l 692 11 l 746 92 m 150 103 l 203 183 l 206 183 l 207 183 q 215 179 210 182 q 222 175 219 176 q 258 154 236 167 q 299 129 279 142 q 334 108 319 117 q 349 99 349 99 l 349 92 q 343 83 349 92 q 331 64 338 75 q 316 42 324 53 q 303 22 308 31 q 299 18 301 21 q 294 15 296 15 q 292 17 294 15 q 288 19 289 18 q 249 42 272 28 q 206 68 226 56 q 169 90 185 81 q 154 99 154 99 l 150 103 m 81 194 l 136 278 l 192 194 l 136 111 l 81 194 m 375 233 l 379 233 l 429 203 l 394 203 q 388 211 394 203 q 379 225 382 219 q 375 233 375 229 m 596 282 l 596 279 q 590 271 596 279 q 578 251 585 263 q 563 228 571 240 q 550 210 556 217 q 546 205 549 207 q 543 203 543 203 l 471 203 l 471 206 q 476 214 471 206 q 488 233 481 222 q 503 256 496 244 q 517 275 511 268 l 524 282 l 596 282 m 615 282 l 692 282 l 692 279 q 686 271 692 279 q 674 251 681 263 q 659 228 667 240 q 646 210 651 217 q 642 205 644 207 q 639 203 639 203 l 563 203 l 615 282 m 356 264 q 352 267 354 264 q 349 271 350 269 q 332 294 342 279 q 322 310 322 308 l 322 317 l 360 374 l 361 374 l 364 374 q 371 371 365 374 q 379 367 376 368 q 414 345 393 358 q 455 320 435 332 q 490 299 475 308 q 504 290 504 290 l 504 282 q 495 269 503 281 q 476 240 488 257 q 458 214 465 224 q 455 209 457 211 q 451 206 453 207 q 449 207 451 206 q 444 210 446 208 q 426 220 439 213 q 400 237 414 228 q 374 253 386 246 q 356 264 361 261 m 17 290 l 72 374 l 126 290 l 72 207 l 17 290 m 371 240 q 374 236 374 240 q 371 233 374 233 q 368 236 368 233 q 371 240 368 240 m -47 386 l 7 468 l 63 386 l 7 303 l -47 386 m 310 328 l 257 404 l 257 408 q 261 419 257 413 q 270 433 265 425 q 280 448 275 440 q 288 460 285 456 q 292 465 292 465 l 294 465 l 349 386 l 310 328 m 447 408 q 451 419 447 413 q 463 438 456 426 q 476 456 471 449 q 482 465 481 464 l 486 465 l 535 393 l 456 393 q 451 397 454 393 q 447 404 449 401 l 447 408 m -112 481 l -57 564 l -1 481 l -57 397 l -112 481 m 244 422 l 192 500 l 192 503 q 197 515 192 506 q 208 534 201 524 q 219 552 214 544 q 226 561 225 560 l 231 561 l 283 481 l 244 422 m 436 422 l 383 500 q 382 501 382 500 l 382 503 q 386 515 382 508 q 398 534 390 522 q 410 553 406 546 q 417 561 415 560 l 421 561 l 474 481 l 436 422 m -176 576 l -122 660 l -67 576 l -122 493 l -176 576 m 179 518 l 126 596 l 126 599 q 131 610 126 601 q 142 629 136 619 q 154 647 149 639 q 161 657 160 656 l 165 657 l 218 576 l 179 518 m 371 518 l 318 596 l 318 599 q 322 611 318 604 q 330 624 325 615 q 340 639 335 632 q 349 651 344 646 q 353 657 353 657 l 356 657 l 410 576 l 371 518 m -242 672 l -186 754 l -131 672 l -186 589 l -242 672 m 272 664 l 339 664 l 307 614 l 303 618 q 287 641 299 624 q 272 664 275 658 m 104 629 l 17 760 l 157 760 q 164 753 163 760 q 165 742 165 746 l 165 736 q 158 726 163 733 q 147 710 153 718 q 137 694 142 701 q 131 683 132 686 q 119 654 122 669 q 108 626 117 639 l 104 629 m 169 714 l 169 711 q 164 690 169 703 q 151 664 158 676 q 137 641 144 651 q 124 626 129 631 q 140 674 129 646 q 169 714 151 701 m -307 767 l -251 850 l -196 767 l -251 683 l -307 767 m 172 725 q 175 721 175 725 q 172 718 175 718 q 169 721 169 718 q 172 725 169 725 m 169 767 l 225 850 l 272 778 l 272 772 l 192 772 l 176 756 l 169 767 m -1 792 l -1 797 l 36 854 l 111 854 l 111 851 q 106 843 111 851 q 94 824 101 835 q 78 801 86 813 q 67 782 71 789 q 62 778 64 781 q 58 775 60 775 l 6 775 q -1 782 0 775 q -1 792 -1 789 m 131 854 l 207 854 l 207 851 q 201 843 207 851 q 189 824 196 835 q 174 801 182 813 q 161 782 167 789 l 154 775 l 78 775 l 131 854 m -47 854 l 19 854 l -12 806 q -15 807 -14 806 q -17 808 -17 808 q -32 831 -19 814 q -47 854 -44 849 m -246 904 l -246 903 q -251 881 -246 894 q -264 855 -257 868 q -278 831 -271 842 q -292 817 -286 821 q -274 864 -285 836 q -246 904 -262 892 m -242 915 q -239 911 -239 915 q -242 908 -239 908 q -244 911 -244 908 q -242 915 -244 915 z "},"A":{"ha":794,"x_min":-318,"x_max":779,"o":"m 126 103 l 135 96 q 152 85 135 96 q 194 59 169 74 q 244 29 218 44 q 288 4 271 14 q 292 1 289 3 q 294 0 294 0 l 394 0 l 401 7 q 408 17 401 7 q 424 40 415 26 q 441 66 432 53 q 456 88 450 79 q 460 99 460 96 q 456 111 460 104 l 276 378 l 322 378 l 579 0 l 681 0 l 692 11 q 699 21 692 11 q 714 43 706 31 q 731 69 722 56 q 746 92 740 83 q 747 96 746 93 q 749 99 749 99 q 760 134 753 111 q 773 172 768 157 q 779 190 778 188 l 779 194 l 329 858 l 314 874 q 298 883 314 874 q 261 906 282 893 q 217 932 240 918 q 181 954 194 946 q 172 958 178 956 q 165 961 165 961 l -222 961 l -231 954 q -237 944 -231 954 q -251 922 -243 935 q -269 896 -260 910 q -283 874 -278 882 q -286 869 -285 872 q -287 867 -287 867 q -294 848 -289 861 q -303 820 -299 835 q -312 793 -308 806 q -318 775 -317 781 l -318 769 q -314 756 -318 761 l 126 103 m 440 92 l 440 88 q 435 79 440 88 q 422 60 429 71 q 408 38 415 50 q 394 19 400 26 q 386 11 392 11 l 314 11 l 314 15 q 319 24 314 15 q 331 42 324 32 q 347 65 339 53 q 360 83 354 76 q 368 92 361 92 l 440 92 m 650 92 l 726 92 l 726 88 q 721 79 726 88 q 708 60 715 71 q 694 38 701 50 q 681 19 686 26 q 672 11 678 11 l 596 11 l 650 92 m 150 103 l 203 183 l 206 183 l 207 183 q 215 179 210 182 q 222 175 219 176 q 258 154 236 167 q 299 129 279 142 q 334 108 319 117 q 349 99 349 99 l 349 92 q 343 83 349 92 q 331 64 338 75 q 316 42 324 53 q 303 22 308 31 q 299 18 301 21 q 294 15 296 15 q 292 17 294 15 q 288 19 289 18 q 249 42 272 28 q 206 68 226 56 q 169 90 185 81 q 154 99 154 99 l 150 103 m 528 99 l 583 182 l 639 99 l 583 17 l 528 99 m 81 194 l 136 278 l 192 194 l 136 111 l 81 194 m 463 194 l 518 278 l 574 194 l 518 111 l 463 194 m 17 290 l 72 374 l 126 290 l 72 207 l 17 290 m 399 290 l 453 374 l 508 290 l 453 207 l 399 290 m -47 385 l 7 468 l 63 385 l 7 303 l -47 385 m 333 385 l 389 468 l 443 385 l 389 303 l 333 385 m 256 411 q 256 414 256 413 q 257 415 257 415 l 294 474 l 371 474 l 371 469 q 365 461 371 469 q 353 442 360 453 q 338 419 346 431 q 325 400 331 408 l 318 393 l 264 393 q 258 400 260 393 q 256 411 256 407 m -112 481 l -57 564 l -1 481 l -57 397 l -112 481 m 211 474 l 278 474 l 246 424 q 242 428 242 424 q 226 451 238 433 q 211 474 214 468 m -176 576 l -122 660 l -67 576 l -122 493 l -176 576 m 17 760 l 63 760 l 181 583 l 135 583 l 17 760 m 208 583 l 258 660 l 308 583 l 208 583 m -242 672 l -186 754 l -131 672 l -186 589 l -242 672 m 139 672 l 194 754 l 249 672 l 194 589 l 139 672 m -307 767 l -251 850 l -196 767 l -251 683 l -307 767 m 74 767 l 129 850 l 185 767 l 129 683 l 74 767 m -1 792 l -1 797 l 36 854 l 111 854 l 111 851 q 106 843 111 851 q 93 824 100 835 q 78 801 86 813 q 65 782 71 789 l 58 775 l 6 775 q -1 782 0 775 q -1 792 -1 789 m -47 854 l 19 854 l -12 806 q -15 807 -14 806 q -17 808 -17 808 q -32 831 -19 814 q -47 854 -44 849 m -246 904 l -246 903 q -251 881 -246 894 q -264 855 -257 868 q -278 831 -271 842 q -292 817 -286 821 q -274 864 -285 836 q -246 904 -262 892 m -242 915 q -239 911 -239 915 q -242 908 -239 908 q -244 911 -244 908 q -242 915 -244 915 z "},"B":{"ha":794,"x_min":-318,"x_max":779,"o":"m 126 103 l 135 96 q 152 85 135 96 q 194 59 169 74 q 244 29 218 44 q 288 4 271 14 q 292 1 289 3 q 294 0 294 0 l 681 0 l 692 11 q 699 21 692 11 q 714 43 706 31 q 731 69 722 56 q 746 92 740 83 q 747 96 746 93 q 749 99 749 99 q 760 134 753 111 q 773 172 768 157 q 779 190 778 188 l 779 194 l 589 476 q 574 489 583 486 q 556 495 568 490 q 529 506 543 500 q 503 516 515 511 q 486 522 490 521 q 499 544 489 528 q 513 565 510 560 q 517 576 517 571 q 513 588 517 581 l 329 858 l 314 874 q 298 883 314 874 q 261 906 282 893 q 217 932 240 918 q 181 954 194 946 q 172 958 178 956 q 165 961 165 961 l -222 961 l -231 954 q -237 944 -231 954 q -251 922 -243 935 q -269 896 -260 910 q -283 874 -278 882 q -286 869 -285 872 q -287 867 -287 867 q -294 848 -289 861 q -303 820 -299 835 q -312 793 -308 806 q -318 775 -317 781 l -318 769 q -314 756 -318 761 l 126 103 m 440 92 l 440 88 q 435 79 440 88 q 422 60 429 71 q 408 38 415 50 q 394 19 400 26 q 386 11 392 11 l 314 11 l 314 15 q 319 24 314 15 q 331 42 324 32 q 347 65 339 53 q 360 83 354 76 q 368 92 361 92 l 440 92 m 458 92 l 535 92 l 535 88 q 529 79 535 88 q 517 60 524 71 q 502 38 510 50 q 489 19 494 26 q 485 14 488 17 q 482 11 482 11 l 406 11 l 458 92 m 554 92 l 631 92 l 631 88 q 625 79 631 88 q 613 60 619 71 q 598 38 606 50 q 585 19 590 26 q 581 14 583 17 q 578 11 578 11 l 501 11 l 554 92 m 650 92 l 726 92 l 726 88 q 721 79 726 88 q 708 60 715 71 q 694 38 701 50 q 681 19 686 26 q 672 11 678 11 l 596 11 l 650 92 m 150 103 l 203 183 l 206 183 l 207 183 q 215 179 210 182 q 222 175 219 176 q 258 154 236 167 q 299 129 279 142 q 334 108 319 117 q 349 99 349 99 l 349 92 q 343 83 349 92 q 331 64 338 75 q 316 42 324 53 q 303 22 308 31 q 299 18 301 21 q 294 15 296 15 q 292 17 294 15 q 288 19 289 18 q 249 42 272 28 q 206 68 226 56 q 169 90 185 81 q 154 99 154 99 l 150 103 m 81 194 l 136 278 l 192 194 l 136 111 l 81 194 m 276 378 l 322 378 l 440 203 l 394 203 l 276 378 m 468 203 l 518 278 l 568 203 l 468 203 m 17 290 l 72 374 l 126 290 l 72 207 l 17 290 m 399 290 l 453 374 l 508 290 l 453 207 l 399 290 m -47 385 l 7 468 l 63 385 l 7 303 l -47 385 m 333 385 l 389 468 l 443 385 l 389 303 l 333 385 m 256 411 q 256 414 256 413 q 257 415 257 415 l 294 474 l 371 474 l 371 469 q 365 461 371 469 q 353 442 360 453 q 338 419 346 431 q 325 400 331 408 l 318 393 l 264 393 q 258 400 260 393 q 256 411 256 407 m -112 481 l -57 564 l -1 481 l -57 397 l -112 481 m 211 474 l 278 474 l 246 424 q 242 428 242 424 q 226 451 238 433 q 211 474 214 468 m -176 576 l -122 660 l -67 576 l -122 493 l -176 576 m 481 542 l 482 542 q 471 529 479 529 q 468 530 469 529 q 467 531 467 531 l 478 542 l 481 542 m 17 760 l 63 760 l 181 583 l 135 583 l 17 760 m 208 583 l 258 660 l 308 583 l 208 583 m -242 672 l -186 754 l -131 672 l -186 589 l -242 672 m 139 672 l 194 754 l 249 672 l 194 589 l 139 672 m -307 767 l -251 850 l -196 767 l -251 683 l -307 767 m 74 767 l 129 850 l 185 767 l 129 683 l 74 767 m -1 792 l -1 797 l 36 854 l 111 854 l 111 851 q 106 843 111 851 q 93 824 100 835 q 78 801 86 813 q 65 782 71 789 l 58 775 l 6 775 q -1 782 0 775 q -1 792 -1 789 m -47 854 l 19 854 l -12 806 q -15 807 -14 806 q -17 808 -17 808 q -32 831 -19 814 q -47 854 -44 849 m -246 904 l -246 903 q -251 881 -246 894 q -264 855 -257 868 q -278 831 -271 842 q -292 817 -286 821 q -274 864 -285 836 q -246 904 -262 892 m -242 915 q -239 911 -239 915 q -242 908 -239 908 q -244 911 -244 908 q -242 915 -244 915 z "},"C":{"ha":794,"x_min":-318,"x_max":779,"o":"m 126 103 l 135 96 q 152 85 135 96 q 194 59 169 74 q 244 29 218 44 q 288 4 271 14 q 292 1 289 3 q 294 0 294 0 l 681 0 l 692 11 q 699 21 692 11 q 714 43 706 31 q 731 69 722 56 q 746 92 740 83 q 747 96 746 93 q 749 99 749 99 q 760 134 753 111 q 773 172 768 157 q 779 190 778 188 l 779 194 l 649 389 l 451 389 l 443 382 q 437 372 443 382 q 422 350 431 363 q 405 324 414 338 q 390 301 396 310 q 386 290 386 294 q 390 279 386 285 q 400 264 393 275 q 415 241 407 253 q 431 218 424 229 q 440 203 438 207 l 394 203 l 17 760 l 63 760 l 189 572 l 386 572 l 394 581 q 405 596 396 582 q 427 629 414 610 q 447 660 440 649 q 451 672 451 665 q 447 683 451 676 l 329 858 l 314 874 q 298 883 314 874 q 261 906 282 893 q 217 932 240 918 q 181 954 194 946 q 172 958 178 956 q 165 961 165 961 l -222 961 l -231 954 q -237 944 -231 954 q -251 922 -243 935 q -269 896 -260 910 q -283 874 -278 882 q -286 869 -285 872 q -287 867 -287 867 q -294 848 -289 861 q -303 820 -299 835 q -312 793 -308 806 q -318 775 -317 781 l -318 769 q -314 756 -318 761 l 126 103 m 440 92 l 440 88 q 435 79 440 88 q 422 60 429 71 q 408 38 415 50 q 394 19 400 26 q 386 11 392 11 l 314 11 l 314 15 q 319 24 314 15 q 331 42 324 32 q 347 65 339 53 q 360 83 354 76 q 368 92 361 92 l 440 92 m 458 92 l 535 92 l 535 88 q 529 79 535 88 q 517 60 524 71 q 502 38 510 50 q 489 19 494 26 q 485 14 488 17 q 482 11 482 11 l 406 11 l 458 92 m 554 92 l 631 92 l 631 88 q 625 79 631 88 q 613 60 619 71 q 598 38 606 50 q 585 19 590 26 q 581 14 583 17 q 578 11 578 11 l 501 11 l 554 92 m 650 92 l 726 92 l 726 88 q 721 79 726 88 q 708 60 715 71 q 694 38 701 50 q 681 19 686 26 q 672 11 678 11 l 596 11 l 650 92 m 150 103 l 203 183 l 206 183 l 207 183 q 215 179 210 182 q 222 175 219 176 q 258 154 236 167 q 299 129 279 142 q 334 108 319 117 q 349 99 349 99 l 349 92 q 343 83 349 92 q 331 64 338 75 q 316 42 324 53 q 303 22 308 31 q 299 18 301 21 q 294 15 296 15 q 292 17 294 15 q 288 19 289 18 q 249 42 272 28 q 206 68 226 56 q 169 90 185 81 q 154 99 154 99 l 150 103 m 81 194 l 136 278 l 192 194 l 136 111 l 81 194 m 468 203 l 518 278 l 568 203 l 468 203 m 17 290 l 72 374 l 126 290 l 72 207 l 17 290 m 399 290 l 453 374 l 508 290 l 453 207 l 399 290 m -47 385 l 7 468 l 63 385 l 7 303 l -47 385 m -112 481 l -57 564 l -1 481 l -57 397 l -112 481 m -176 576 l -122 660 l -67 576 l -122 493 l -176 576 m 261 664 l 338 664 l 338 660 q 328 647 336 658 q 308 618 319 635 q 292 592 297 601 l 283 583 l 207 583 l 261 664 m 356 664 l 432 664 l 432 660 q 423 647 431 658 q 404 618 415 635 q 386 592 393 601 q 382 586 385 589 q 379 583 379 583 l 303 583 l 356 664 m -242 672 l -186 754 l -131 672 l -186 589 l -242 672 m 139 672 l 194 754 l 249 672 l 194 589 l 139 672 m -307 767 l -251 850 l -196 767 l -251 683 l -307 767 m 74 767 l 129 850 l 185 767 l 129 683 l 74 767 m -1 792 l -1 797 l 36 854 l 111 854 l 111 851 q 106 843 111 851 q 93 824 100 835 q 78 801 86 813 q 65 782 71 789 l 58 775 l 6 775 q -1 782 0 775 q -1 792 -1 789 m -47 854 l 19 854 l -12 806 q -15 807 -14 806 q -17 808 -17 808 q -32 831 -19 814 q -47 854 -44 849 m -246 904 l -246 903 q -251 881 -246 894 q -264 855 -257 868 q -278 831 -271 842 q -292 817 -286 821 q -274 864 -285 836 q -246 904 -262 892 m -242 915 q -239 911 -239 915 q -242 908 -239 908 q -244 911 -244 908 q -242 915 -244 915 z "},"D":{"ha":794,"x_min":-317,"x_max":779,"o":"m 126 103 l -312 756 q -317 769 -317 761 l -317 775 q -311 793 -315 781 q -302 820 -307 806 q -292 848 -297 835 q -286 867 -287 861 q -285 869 -286 867 q -282 874 -283 872 q -267 896 -276 882 q -250 922 -258 910 q -235 944 -242 935 q -229 954 -229 954 l -221 961 l -21 961 l 451 678 l 779 194 l 779 190 q 773 172 778 188 q 760 134 768 157 q 749 99 753 111 q 747 96 749 99 q 746 92 746 93 q 731 69 740 83 q 714 43 722 56 q 699 21 706 31 q 692 11 692 11 l 681 0 l 294 0 q 292 1 294 0 q 288 4 289 3 q 244 29 271 14 q 194 59 218 44 q 152 85 169 74 q 135 96 135 96 l 126 103 m 440 92 l 368 92 q 360 83 361 92 q 347 65 354 76 q 331 42 339 53 q 319 24 324 32 q 314 15 314 15 l 314 11 l 386 11 q 394 19 392 11 q 408 38 400 26 q 422 60 415 50 q 435 79 429 71 q 440 88 440 88 l 440 92 m 458 92 l 406 11 l 482 11 q 485 14 482 11 q 489 19 488 17 q 502 38 494 26 q 517 60 510 50 q 529 79 524 71 q 535 88 535 88 l 535 92 l 458 92 m 554 92 l 501 11 l 578 11 q 581 14 578 11 q 585 19 583 17 q 598 38 590 26 q 613 60 606 50 q 625 79 619 71 q 631 88 631 88 l 631 92 l 554 92 m 650 92 l 596 11 l 672 11 q 681 19 678 11 q 694 38 686 26 q 708 60 701 50 q 721 79 715 71 q 726 88 726 88 l 726 92 l 650 92 m 150 103 l 154 99 q 169 90 154 99 q 206 68 185 81 q 249 42 226 56 q 288 19 272 28 q 292 17 289 18 q 294 15 294 15 q 299 18 296 15 q 303 22 301 21 q 316 42 308 31 q 331 64 324 53 q 343 83 338 75 q 349 92 349 92 l 349 99 q 334 108 349 99 q 299 129 319 117 q 258 154 279 142 q 222 175 236 167 q 215 179 219 176 q 207 183 210 182 l 206 183 l 203 183 l 150 103 m 81 194 l 136 111 l 192 194 l 136 278 l 81 194 m 114 614 l 394 203 l 440 203 l 190 571 l 119 614 l 114 614 m 468 203 l 568 203 l 518 278 l 468 203 m 17 290 l 72 207 l 126 290 l 72 374 l 17 290 m 399 290 l 453 207 l 508 290 l 453 374 l 399 290 m -46 385 l 7 303 l 63 385 l 7 468 l -46 385 m 333 385 l 389 303 l 443 385 l 389 468 l 333 385 m -111 481 l -56 397 l 0 481 l -56 564 l -111 481 m 268 481 l 324 397 l 379 481 l 324 564 l 268 481 m -175 576 l -121 493 l -65 576 l -121 660 l -175 576 m 203 576 l 258 493 l 314 576 l 258 660 l 203 576 m 96 644 q 114 634 101 642 q 140 618 126 626 q 167 602 154 610 q 185 592 179 594 q 189 589 186 590 q 192 588 192 588 q 200 596 197 588 q 213 615 206 603 q 228 637 221 626 q 240 656 235 647 q 246 664 246 664 l 246 672 q 231 681 246 672 q 197 701 217 689 q 155 726 176 714 q 119 747 133 739 q 112 751 117 749 q 104 756 107 754 l 101 756 l 100 756 l 63 699 l 63 690 q 67 683 63 689 q 78 667 71 676 q 89 653 85 657 q 93 649 90 651 q 96 644 96 646 m -240 672 l -185 589 l -129 672 l -185 754 l -240 672 m 111 622 q 108 618 108 622 q 111 614 108 614 q 114 618 114 614 q 111 622 114 622 m -306 767 l -250 683 l -194 767 l -250 850 l -306 767 m 47 714 l 50 710 q 54 714 54 710 q 73 741 61 724 q 85 760 85 758 l 85 767 q 72 774 85 767 q 43 792 60 782 q 9 814 26 803 q -19 832 -8 825 q -25 835 -22 833 q -31 836 -28 836 l -31 832 l 47 714 m -244 904 q -272 864 -261 892 q -290 817 -283 836 q -277 831 -285 821 q -262 855 -269 842 q -250 881 -256 868 q -244 903 -244 894 l -244 904 m -35 843 q -37 839 -37 843 q -35 836 -37 836 q -32 839 -32 836 q -35 843 -32 843 m -37 847 q -40 843 -40 847 q -37 839 -40 839 q -35 843 -35 839 q -37 847 -35 847 m -240 915 q -243 911 -243 915 q -240 908 -243 908 q -237 911 -237 908 q -240 915 -237 915 z "},"E":{"ha":813,"x_min":-317,"x_max":840,"o":"m 126 103 l -312 756 q -317 769 -317 761 l -317 775 q -311 793 -315 781 q -302 820 -307 806 q -292 848 -297 835 q -286 867 -287 861 q -282 874 -286 869 q -267 896 -276 882 q -250 922 -258 910 q -235 944 -242 935 q -229 954 -229 954 l -221 961 l 257 961 l 264 954 q 271 944 264 954 q 286 922 278 935 q 303 896 294 910 q 318 874 313 882 q 322 863 322 867 q 318 851 322 857 q 303 830 313 843 q 286 804 294 817 q 272 782 278 792 q 264 771 265 772 l 257 761 l 17 761 l 135 582 l 325 582 l 333 572 q 340 561 333 571 q 354 539 346 551 q 372 513 363 526 q 386 492 381 500 q 390 481 390 488 q 386 469 390 475 q 372 448 381 461 q 354 422 363 435 q 340 400 346 410 q 333 389 333 390 l 325 379 l 276 379 l 394 200 l 776 200 l 783 190 q 790 181 783 190 q 806 158 797 171 q 823 133 814 146 q 838 111 832 119 q 840 99 840 97 q 840 96 840 99 q 838 88 839 93 q 823 66 832 79 q 806 40 814 53 q 790 17 797 26 q 783 7 783 7 l 776 0 l 294 0 q 292 1 294 0 q 288 4 289 3 q 244 29 271 14 q 194 59 218 44 q 152 85 169 74 q 135 96 135 96 l 126 103 m 440 92 l 368 92 q 360 83 361 92 q 347 65 354 76 q 331 42 339 53 q 319 24 324 32 q 314 15 314 15 l 314 11 l 386 11 q 394 19 392 11 q 408 38 400 26 q 422 60 415 50 q 435 79 429 71 q 440 88 440 88 l 440 92 m 458 92 l 406 11 l 482 11 q 485 14 482 11 q 489 19 488 17 q 502 38 494 26 q 517 60 510 50 q 529 79 524 71 q 535 88 535 88 l 535 92 l 458 92 m 554 92 l 501 11 l 578 11 q 581 14 578 11 q 585 19 583 17 q 598 38 590 26 q 613 60 606 50 q 625 79 619 71 q 631 88 631 88 l 631 92 l 554 92 m 650 92 l 596 11 l 672 11 q 681 19 678 11 q 694 38 686 26 q 708 60 701 50 q 721 79 715 71 q 726 88 726 88 l 726 92 l 650 92 m 746 92 l 692 11 l 768 11 l 776 19 q 789 38 781 26 q 804 60 797 50 q 817 79 811 71 q 822 88 822 88 l 822 92 l 746 92 m 150 103 l 154 99 q 169 90 154 99 q 206 68 185 81 q 249 42 226 56 q 288 19 272 28 q 292 17 289 18 q 294 15 294 15 q 299 18 296 15 q 303 22 301 21 q 316 42 308 31 q 331 64 324 53 q 343 83 338 75 q 349 92 349 92 l 349 99 q 334 108 349 99 q 299 129 319 117 q 258 154 279 142 q 222 175 236 167 q 215 179 219 176 q 207 183 210 182 l 206 183 l 203 183 l 150 103 m 81 194 l 136 111 l 192 194 l 136 278 l 81 194 m 17 290 l 72 207 l 126 290 l 72 374 l 17 290 m -46 386 l 7 303 l 63 386 l 7 468 l -46 386 m 256 411 q 258 400 256 407 q 264 393 260 393 l 318 393 l 325 400 q 338 419 331 408 q 353 442 346 431 q 365 461 360 453 q 371 469 371 469 l 371 474 l 294 474 l 257 415 q 256 414 257 415 q 256 411 256 413 m -111 481 l -56 397 l 0 481 l -56 564 l -111 481 m 211 474 q 226 451 214 468 q 242 428 239 433 q 246 424 242 424 l 278 474 l 211 474 m -175 576 l -121 493 l -65 576 l -121 660 l -175 576 m -240 672 l -185 589 l -129 672 l -185 754 l -240 672 m -306 767 l -250 683 l -194 767 l -250 850 l -306 767 m 0 792 q 0 782 0 789 q 6 775 0 775 l 58 775 q 62 778 60 775 q 67 782 64 781 q 78 801 71 789 q 94 824 86 813 q 106 843 101 835 q 111 851 111 851 l 111 854 l 36 854 l 0 797 l 0 792 m 131 854 l 78 775 l 154 775 l 161 782 q 174 801 167 789 q 189 824 182 813 q 201 843 196 835 q 207 851 207 851 l 207 854 l 131 854 m 226 854 l 172 775 l 249 775 q 253 778 250 775 q 257 782 256 781 q 270 801 263 789 q 285 824 278 813 q 297 843 292 835 q 303 851 303 851 l 303 854 l 226 854 m -46 854 q -31 831 -43 849 q -15 808 -18 814 q -14 807 -15 808 q -11 806 -12 806 l 19 854 l -46 854 m -244 904 q -272 864 -261 892 q -290 817 -283 836 q -277 831 -285 821 q -262 855 -269 842 q -250 881 -256 868 q -244 903 -244 894 l -244 904 m -240 915 q -243 911 -243 915 q -240 908 -243 908 q -237 911 -237 908 q -240 915 -237 915 z "},"F":{"ha":792,"x_min":-317,"x_max":458,"o":"m 126 103 l -312 756 q -317 768 -317 761 l -317 775 q -311 792 -315 779 q -301 820 -307 806 q -292 848 -296 835 q -286 865 -287 861 q -282 874 -286 869 q -262 903 -275 883 q -240 938 -249 924 q -229 954 -231 951 l -221 961 l 257 961 l 264 954 q 271 944 264 954 q 286 922 278 935 q 303 895 294 908 q 318 874 313 882 q 322 863 322 865 q 318 850 322 856 q 303 828 313 842 q 286 803 294 815 q 271 781 278 790 q 264 771 264 771 l 257 761 l 17 761 l 135 582 l 325 582 l 333 572 q 340 561 333 571 q 354 539 346 551 q 372 513 363 526 q 386 492 381 500 q 390 481 390 485 q 386 469 390 475 q 372 448 381 461 q 354 422 363 435 q 340 400 346 410 q 333 389 333 390 l 325 379 l 275 379 l 456 111 q 458 99 458 97 q 458 96 458 99 q 456 88 457 93 q 441 66 450 79 q 424 40 432 53 q 408 17 415 26 q 401 7 401 7 l 394 0 l 294 0 q 292 1 294 0 q 288 4 289 3 q 244 29 271 14 q 194 59 218 44 q 152 85 169 74 q 135 96 135 96 l 126 103 m 440 92 l 367 92 q 364 89 367 92 q 360 83 361 86 q 347 65 354 76 q 331 42 339 53 q 319 24 324 32 q 314 15 314 15 l 314 11 l 386 11 l 394 19 q 407 38 399 26 q 422 60 415 50 q 435 79 429 71 q 440 88 440 88 l 440 92 m 150 103 l 154 99 q 169 90 154 99 q 206 68 185 81 q 249 42 226 56 q 288 19 272 28 q 292 17 289 18 q 294 15 294 15 q 299 18 296 15 q 303 22 301 21 q 316 42 308 31 q 331 64 324 53 q 343 83 338 75 q 349 92 349 92 l 349 99 q 334 108 349 99 q 299 129 319 117 q 258 154 279 142 q 222 175 236 167 q 215 179 219 176 q 207 183 210 182 l 204 183 l 203 183 l 150 103 m 81 194 l 136 111 l 192 194 l 136 278 l 81 194 m 17 290 l 72 207 l 126 290 l 72 372 l 17 290 m -46 385 l 7 303 l 63 385 l 7 468 l -46 385 m 256 411 q 257 400 256 407 q 264 393 258 393 l 318 393 l 325 400 q 338 419 331 407 q 353 442 346 431 q 365 461 360 453 q 371 469 371 469 l 371 474 l 294 474 l 257 415 l 256 411 m -111 481 l -56 397 l 0 481 l -56 564 l -111 481 m 211 474 q 217 464 213 471 q 226 449 221 457 q 235 435 231 442 q 242 428 239 429 q 243 425 242 426 q 244 424 244 424 l 278 474 l 211 474 m -175 576 l -121 493 l -65 576 l -121 658 l -175 576 m -240 671 l -185 589 l -129 671 l -185 754 l -240 671 m -306 767 l -250 683 l -194 767 l -250 850 l -306 767 m 0 792 q 0 782 0 789 q 4 775 0 775 l 58 775 q 61 777 58 775 q 65 782 64 779 q 83 808 72 792 q 102 837 94 825 q 111 850 110 849 l 111 854 l 35 854 l 0 797 l 0 792 m 131 854 l 78 775 l 154 775 q 157 777 154 775 q 161 782 160 779 q 179 808 168 792 q 198 837 190 825 q 207 850 206 849 l 207 854 l 131 854 m 226 854 l 172 775 l 249 775 q 257 782 253 775 q 275 808 264 792 q 294 837 286 825 q 303 850 301 849 l 303 854 l 226 854 m -46 854 q -31 831 -43 849 q -15 808 -18 814 l -11 804 l 19 854 l -46 854 m -244 904 q -273 864 -262 892 q -290 817 -283 836 q -277 831 -285 821 q -262 855 -269 842 q -250 881 -256 868 q -244 903 -244 894 l -244 904 m -240 915 q -243 911 -243 915 q -240 908 -243 908 q -237 911 -237 908 q -240 915 -237 915 z "},"G":{"ha":794,"x_min":-318,"x_max":779,"o":"m 126 103 l 135 96 q 152 85 135 96 q 194 59 169 74 q 244 29 218 44 q 288 4 271 14 q 292 1 289 3 q 294 0 294 0 l 681 0 l 692 11 q 699 21 692 11 q 714 43 706 31 q 731 69 722 56 q 746 92 740 83 q 747 96 746 93 q 749 99 749 99 q 760 134 753 111 q 773 172 768 157 q 779 190 778 188 l 779 194 l 518 582 l 399 582 l 447 660 q 451 672 451 665 q 447 683 451 676 l 329 858 l 314 874 q 298 883 314 874 q 261 906 282 893 q 217 932 240 918 q 181 954 194 946 q 172 958 178 956 q 165 961 165 961 l -222 961 l -231 954 q -237 944 -231 954 q -251 922 -243 935 q -269 896 -260 910 q -283 874 -278 882 q -286 869 -285 872 q -287 867 -287 867 q -294 848 -289 861 q -303 820 -299 835 q -312 793 -308 806 q -318 775 -317 781 l -318 769 q -314 756 -318 761 l 126 103 m 440 92 l 440 88 q 435 79 440 88 q 422 60 429 71 q 408 38 415 50 q 394 19 400 26 q 386 11 392 11 l 314 11 l 314 15 q 319 24 314 15 q 331 42 324 32 q 347 65 339 53 q 360 83 354 76 q 368 92 361 92 l 440 92 m 458 92 l 535 92 l 535 88 q 529 79 535 88 q 517 60 524 71 q 502 38 510 50 q 489 19 494 26 q 485 14 488 17 q 482 11 482 11 l 406 11 l 458 92 m 554 92 l 631 92 l 631 88 q 625 79 631 88 q 613 60 619 71 q 598 38 606 50 q 585 19 590 26 q 581 14 583 17 q 578 11 578 11 l 501 11 l 554 92 m 650 92 l 726 92 l 726 88 q 721 79 726 88 q 708 60 715 71 q 694 38 701 50 q 681 19 686 26 q 672 11 678 11 l 596 11 l 650 92 m 150 103 l 203 183 l 206 183 l 207 183 q 215 179 210 182 q 222 175 219 176 q 258 154 236 167 q 299 129 279 142 q 334 108 319 117 q 349 99 349 99 l 349 92 q 343 83 349 92 q 331 64 338 75 q 316 42 324 53 q 303 22 308 31 q 299 18 301 21 q 294 15 296 15 q 292 17 294 15 q 288 19 289 18 q 249 42 272 28 q 206 68 226 56 q 169 90 185 81 q 154 99 154 99 l 150 103 m 81 194 l 136 278 l 192 194 l 136 111 l 81 194 m 276 378 l 322 378 l 440 203 l 394 203 l 276 378 m 468 203 l 518 278 l 568 203 l 468 203 m 17 290 l 72 374 l 126 290 l 72 207 l 17 290 m 399 290 l 453 374 l 508 290 l 453 207 l 399 290 m -47 385 l 7 468 l 63 385 l 7 303 l -47 385 m 333 385 l 389 468 l 443 385 l 389 303 l 333 385 m 256 411 q 256 414 256 413 q 257 415 257 415 l 294 474 l 371 474 l 371 469 q 365 461 371 469 q 353 442 360 453 q 338 419 346 431 q 325 400 331 408 l 318 393 l 264 393 q 258 400 260 393 q 256 411 256 407 m -112 481 l -57 564 l -1 481 l -57 397 l -112 481 m 244 422 l 192 500 l 192 503 q 197 515 192 506 q 208 534 201 524 q 219 552 214 544 q 226 561 225 560 l 231 561 l 283 481 l 244 422 m -176 576 l -122 660 l -67 576 l -122 493 l -176 576 m 176 522 l 17 760 l 63 760 l 185 581 q 197 570 190 572 q 215 568 204 568 q 199 545 211 563 q 185 522 188 528 q 182 521 183 522 q 181 519 181 519 l 176 522 m 261 664 l 338 664 l 338 660 q 328 647 336 658 q 308 618 319 635 q 292 592 297 601 l 283 583 l 207 583 l 261 664 m 356 664 l 432 664 l 432 660 q 423 647 431 658 q 404 618 415 635 q 386 592 393 601 q 382 586 385 589 q 379 583 379 583 l 303 583 l 356 664 m -242 672 l -186 754 l -131 672 l -186 589 l -242 672 m 139 672 l 194 754 l 249 672 l 194 589 l 139 672 m -307 767 l -251 850 l -196 767 l -251 683 l -307 767 m 74 767 l 129 850 l 185 767 l 129 683 l 74 767 m -1 792 l -1 797 l 36 854 l 111 854 l 111 851 q 106 843 111 851 q 93 824 100 835 q 78 801 86 813 q 65 782 71 789 l 58 775 l 6 775 q -1 782 0 775 q -1 792 -1 789 m -47 854 l 19 854 l -12 806 q -15 807 -14 806 q -17 808 -17 808 q -32 831 -19 814 q -47 854 -44 849 m -246 904 l -246 903 q -251 881 -246 894 q -264 855 -257 868 q -278 831 -271 842 q -292 817 -286 821 q -274 864 -285 836 q -246 904 -262 892 m -242 915 q -239 911 -239 915 q -242 908 -239 908 q -244 911 -244 908 q -242 915 -244 915 z "},"H":{"ha":794,"x_min":-318,"x_max":779,"o":"m 126 103 l 135 96 q 152 85 135 96 q 194 59 169 74 q 244 29 218 44 q 288 4 271 14 q 292 1 289 3 q 294 0 294 0 l 394 0 l 401 7 q 408 17 401 7 q 424 40 415 26 q 441 66 432 53 q 456 88 450 79 q 460 99 460 96 q 456 111 460 104 l 276 378 l 322 378 l 579 0 l 681 0 l 692 11 q 699 21 692 11 q 714 43 706 31 q 731 69 722 56 q 746 92 740 83 q 747 96 746 93 q 749 99 749 99 q 760 134 753 111 q 773 172 768 157 q 779 190 778 188 l 779 194 l 329 858 l 314 874 q 298 883 314 874 q 261 906 282 893 q 217 932 240 918 q 181 954 194 946 q 172 958 178 956 q 165 961 165 961 l 63 961 l 54 954 q 48 944 54 954 q 33 922 42 935 q 16 896 25 910 q 1 874 7 882 q -1 863 -1 865 q 1 851 -1 857 l 181 583 l 135 583 l -121 961 l -222 961 l -231 954 q -237 944 -231 954 q -251 922 -243 935 q -269 896 -260 910 q -283 874 -278 882 q -286 869 -285 872 q -287 867 -287 867 q -294 848 -289 861 q -303 820 -299 835 q -312 793 -308 806 q -318 775 -317 781 l -318 769 q -314 756 -318 761 l 126 103 m 440 92 l 440 88 q 435 79 440 88 q 422 60 429 71 q 408 38 415 50 q 394 19 400 26 q 386 11 392 11 l 314 11 l 314 15 q 319 24 314 15 q 331 42 324 32 q 347 65 339 53 q 360 83 354 76 q 368 92 361 92 l 440 92 m 650 92 l 726 92 l 726 88 q 721 79 726 88 q 708 60 715 71 q 694 38 701 50 q 681 19 686 26 q 672 11 678 11 l 596 11 l 650 92 m 150 103 l 203 183 l 206 183 l 207 183 q 215 179 210 182 q 222 175 219 176 q 258 154 236 167 q 299 129 279 142 q 334 108 319 117 q 349 99 349 99 l 349 92 q 343 83 349 92 q 331 64 338 75 q 316 42 324 53 q 303 22 308 31 q 299 18 301 21 q 294 15 296 15 q 292 17 294 15 q 288 19 289 18 q 249 42 272 28 q 206 68 226 56 q 169 90 185 81 q 154 99 154 99 l 150 103 m 528 99 l 583 182 l 639 99 l 583 17 l 528 99 m 81 194 l 136 278 l 192 194 l 136 111 l 81 194 m 463 194 l 518 278 l 574 194 l 518 111 l 463 194 m 17 290 l 72 374 l 126 290 l 72 207 l 17 290 m 399 290 l 453 374 l 508 290 l 453 207 l 399 290 m -47 385 l 7 468 l 63 385 l 7 303 l -47 385 m 333 385 l 389 468 l 443 385 l 389 303 l 333 385 m 256 411 q 256 414 256 413 q 257 415 257 415 l 294 474 l 371 474 l 371 469 q 365 461 371 469 q 353 442 360 453 q 338 419 346 431 q 325 400 331 408 l 318 393 l 264 393 q 258 400 260 393 q 256 411 256 407 m -112 481 l -57 564 l -1 481 l -57 397 l -112 481 m 211 474 l 278 474 l 246 424 q 242 428 242 424 q 226 451 238 433 q 211 474 214 468 m -176 576 l -122 660 l -67 576 l -122 493 l -176 576 m 208 583 l 258 660 l 308 583 l 208 583 m -242 672 l -186 754 l -131 672 l -186 589 l -242 672 m 139 672 l 194 754 l 249 672 l 194 589 l 139 672 m -307 767 l -251 850 l -196 767 l -251 683 l -307 767 m 74 767 l 129 850 l 185 767 l 129 683 l 74 767 m 8 863 l 64 946 l 119 863 l 64 779 l 8 863 m -246 904 l -246 903 q -251 881 -246 894 q -264 855 -257 868 q -278 831 -271 842 q -292 817 -286 821 q -274 864 -285 836 q -246 904 -262 892 m -242 915 q -239 911 -239 915 q -242 908 -239 908 q -244 911 -244 908 q -242 915 -244 915 z "},"I":{"ha":842,"x_min":-351,"x_max":869,"o":"m 164 99 q 168 111 164 104 q 182 133 174 119 q 199 158 190 146 q 215 181 208 171 q 222 190 221 190 l 229 200 l 279 200 l -96 761 l -286 761 l -294 771 q -301 781 -294 771 q -317 803 -308 790 q -333 828 -325 815 q -347 850 -342 842 q -351 861 -351 856 q -347 874 -351 867 q -333 895 -342 882 q -315 922 -324 908 q -301 944 -307 935 q -294 953 -294 953 l -286 961 l 286 961 l 294 953 q 301 943 294 953 q 315 921 307 933 q 333 895 324 908 q 347 874 342 882 q 351 861 351 867 q 347 850 351 856 q 333 828 342 842 q 317 803 325 815 q 301 781 308 790 q 294 771 294 771 l 286 761 l 238 761 l 614 200 l 806 200 l 813 190 q 819 181 813 190 q 835 158 826 171 q 852 133 843 146 q 867 111 861 119 q 869 99 869 97 q 869 96 869 99 q 867 88 868 93 q 852 66 861 79 q 835 40 843 53 q 819 17 826 26 q 813 7 813 7 l 806 0 l 229 0 l 222 7 q 215 17 222 7 q 200 40 208 26 q 183 66 192 53 q 168 88 174 79 q 164 99 164 96 m 297 92 l 244 11 l 321 11 q 324 14 321 11 q 328 19 326 17 q 341 38 333 26 q 356 60 349 50 q 368 79 363 71 q 374 88 374 88 l 374 92 l 297 92 m 393 92 l 340 11 l 417 11 q 419 14 417 11 q 424 19 422 17 q 437 38 429 26 q 451 60 444 50 q 464 79 458 71 q 469 88 469 88 l 469 92 l 393 92 m 489 92 l 435 11 l 511 11 q 519 19 517 11 q 533 38 525 26 q 547 60 540 50 q 560 79 554 71 q 565 88 565 88 l 565 92 l 489 92 m 583 92 l 531 11 l 607 11 q 610 14 607 11 q 614 19 613 17 q 627 38 619 26 q 642 60 635 50 q 654 79 649 71 q 660 88 660 88 l 660 92 l 583 92 m 679 92 l 626 11 l 701 11 q 710 19 707 11 q 723 38 715 26 q 738 60 731 50 q 750 79 744 71 q 756 88 756 88 l 756 92 l 679 92 m 775 92 l 721 11 l 797 11 l 806 19 q 818 38 810 26 q 833 60 826 50 q 846 79 840 71 q 851 88 851 88 l 851 92 l 775 92 m 176 99 l 231 17 l 286 99 l 231 182 l 176 99 m 307 203 l 407 203 l 357 278 l 307 203 m 238 290 l 292 207 l 347 290 l 292 372 l 238 290 m 172 385 l 228 303 l 282 385 l 228 468 l 172 385 m 107 481 l 163 397 l 218 481 l 163 564 l 107 481 m 43 576 l 97 493 l 153 576 l 97 658 l 43 576 m -19 671 l 33 588 l 88 671 l 33 754 l -19 671 m -85 767 l -29 683 l 24 767 l -29 850 l -85 767 m -218 854 l -271 774 l -194 774 q -192 776 -194 774 q -187 782 -189 779 q -169 808 -181 792 q -151 837 -158 825 q -142 850 -143 849 l -142 854 l -218 854 m -122 854 l -176 774 l -100 774 q -92 782 -94 774 q -74 808 -85 792 q -55 837 -62 825 q -46 850 -47 849 l -46 854 l -122 854 m 217 792 q 219 781 217 789 q 225 774 221 774 l 279 774 q 282 776 279 774 q 286 782 285 779 q 304 808 293 792 q 323 837 315 825 q 332 850 331 849 l 332 854 l 256 854 l 218 797 q 217 795 218 797 q 217 792 217 793 m -340 861 l -285 779 l -229 861 l -285 944 l -340 861 m 172 854 q 187 831 175 849 q 203 808 199 814 l 207 804 l 239 854 l 172 854 z "},"J":{"ha":804,"x_min":7,"x_max":789,"o":"m 136 103 l 18 279 q 14 290 14 285 q 18 301 14 294 q 33 324 24 310 q 50 350 42 338 q 65 372 58 363 q 72 382 72 382 l 79 389 l 276 389 l 404 203 l 450 203 l 11 851 q 7 863 7 856 q 11 874 7 867 q 26 896 17 882 q 43 922 35 910 q 58 944 51 935 q 64 954 64 954 l 72 961 l 175 961 q 181 959 175 961 q 190 954 188 957 q 227 932 204 946 q 271 906 250 918 q 308 883 292 893 q 324 874 324 874 l 339 858 l 789 194 l 789 190 q 783 172 788 188 q 770 134 778 157 q 758 99 763 111 q 757 96 758 99 q 756 92 756 93 q 741 69 750 83 q 724 43 732 56 q 708 21 715 31 q 701 11 701 11 l 690 0 l 304 0 q 301 1 304 0 q 297 4 299 3 q 254 29 281 14 q 203 59 228 44 q 162 85 179 74 q 144 96 144 96 l 136 103 m 450 92 l 378 92 q 369 83 371 92 q 356 65 364 76 q 341 42 349 53 q 328 24 333 32 q 324 15 324 15 l 324 11 l 396 11 q 404 19 401 11 q 417 38 410 26 q 432 60 425 50 q 444 79 439 71 q 450 88 450 88 l 450 92 m 468 92 l 415 11 l 492 11 q 494 14 492 11 q 499 19 497 17 q 512 38 504 26 q 526 60 519 50 q 539 79 533 71 q 544 88 544 88 l 544 92 l 468 92 m 564 92 l 511 11 l 588 11 q 590 14 588 11 q 594 19 593 17 q 608 38 600 26 q 622 60 615 50 q 635 79 629 71 q 640 88 640 88 l 640 92 l 564 92 m 660 92 l 606 11 l 682 11 q 690 19 688 11 q 703 38 696 26 q 718 60 711 50 q 731 79 725 71 q 736 88 736 88 l 736 92 l 660 92 m 160 103 l 164 99 q 179 90 164 99 q 215 68 194 81 q 259 42 236 56 q 297 19 282 28 q 301 17 299 18 q 304 15 304 15 q 308 18 306 15 q 313 22 311 21 q 326 42 318 31 q 340 64 333 53 q 353 83 347 75 q 358 92 358 92 l 358 99 q 344 108 358 99 q 309 129 329 117 q 267 154 289 142 q 232 175 246 167 q 224 179 229 176 q 217 183 219 182 l 215 183 l 213 183 l 160 103 m 90 194 l 146 111 l 201 194 l 146 278 l 90 194 m 478 203 l 578 203 l 528 278 l 478 203 m 26 290 l 82 207 l 136 290 l 82 374 l 26 290 m 407 290 l 463 207 l 518 290 l 463 374 l 407 290 m 343 386 l 399 303 l 453 386 l 399 468 l 343 386 m 278 481 l 333 397 l 389 481 l 333 564 l 278 481 m 213 576 l 268 493 l 324 576 l 268 660 l 213 576 m 149 672 l 204 589 l 258 672 l 204 754 l 149 672 m 83 767 l 139 685 l 194 767 l 139 850 l 83 767 m 18 863 l 74 779 l 129 863 l 74 946 l 18 863 z "},"K":{"ha":794,"x_min":-317,"x_max":779,"o":"m 126 103 l -312 756 q -317 769 -317 761 l -317 775 q -311 793 -315 781 q -302 820 -307 806 q -292 848 -297 835 q -286 867 -287 861 q -285 869 -286 867 q -282 874 -283 872 q -267 896 -276 882 q -250 922 -258 910 q -235 944 -242 935 q -229 954 -229 954 l -221 961 l -119 961 l 104 629 l 108 626 q 110 629 108 626 q 111 633 111 632 q 119 654 114 640 q 124 668 124 668 l 1 851 q 0 863 0 857 q 1 874 0 868 q 16 896 7 882 q 33 922 25 910 q 48 944 42 935 q 54 954 54 954 l 63 961 l 165 961 q 172 958 165 961 q 181 954 178 956 q 217 932 194 946 q 261 906 240 918 q 298 883 282 893 q 314 874 314 874 l 329 858 l 392 765 l 333 583 l 333 581 q 338 568 333 574 q 358 538 344 557 q 380 504 371 518 q 390 489 389 490 l 711 296 l 779 194 l 779 190 q 773 172 778 188 q 760 134 768 157 q 749 99 753 111 q 747 96 749 99 q 746 92 746 93 q 731 69 740 83 q 714 43 722 56 q 699 21 706 31 q 692 11 692 11 l 681 0 l 579 0 l 450 189 l 371 238 l 456 111 q 460 99 460 104 q 456 88 460 96 q 441 66 450 79 q 424 40 432 53 q 408 17 415 26 q 401 7 401 7 l 394 0 l 294 0 q 292 1 294 0 q 288 4 289 3 q 244 29 271 14 q 194 59 218 44 q 152 85 169 74 q 135 96 135 96 l 126 103 m 440 92 l 368 92 q 360 83 361 92 q 347 65 354 76 q 331 42 339 53 q 319 24 324 32 q 314 15 314 15 l 314 11 l 386 11 q 394 19 392 11 q 408 38 400 26 q 422 60 415 50 q 435 79 429 71 q 440 88 440 88 l 440 92 m 650 92 l 596 11 l 672 11 q 681 19 678 11 q 694 38 686 26 q 708 60 701 50 q 721 79 715 71 q 726 88 726 88 l 726 92 l 650 92 m 150 103 l 154 99 q 169 90 154 99 q 206 68 185 81 q 249 42 226 56 q 288 19 272 28 q 292 17 289 18 q 294 15 294 15 q 299 18 296 15 q 303 22 301 21 q 316 42 308 31 q 331 64 324 53 q 343 83 338 75 q 349 92 349 92 l 349 99 q 334 108 349 99 q 299 129 319 117 q 258 154 279 142 q 222 175 236 167 q 215 179 219 176 q 207 183 210 182 l 206 183 l 203 183 l 150 103 m 528 99 l 583 17 l 639 99 l 583 182 l 528 99 m 81 194 l 136 111 l 192 194 l 136 278 l 81 194 m 463 194 l 518 111 l 574 194 l 518 278 l 463 194 m 356 264 q 374 253 361 261 q 400 237 386 246 q 426 220 414 228 q 443 210 439 213 l 451 206 q 455 209 453 207 q 458 214 457 211 q 476 240 465 224 q 495 269 488 257 q 504 282 503 281 l 504 290 q 490 299 504 290 q 455 320 475 308 q 414 345 435 332 q 379 367 393 358 q 371 371 376 368 q 364 374 365 374 l 361 374 l 360 374 l 322 317 l 322 310 q 332 294 322 308 q 349 271 342 279 q 352 267 350 269 q 356 264 354 264 m 17 290 l 72 207 l 126 290 l 72 374 l 17 290 m 371 240 q 368 236 368 240 q 371 233 368 233 q 374 236 374 233 q 371 240 374 240 m -46 385 l 7 303 l 63 385 l 7 468 l -46 385 m 307 332 l 310 328 l 314 332 q 326 351 318 339 q 338 369 333 363 q 344 378 343 376 l 344 385 q 332 392 344 385 q 303 410 319 400 q 268 432 286 421 q 238 450 250 443 q 226 454 233 454 l 226 450 l 307 332 m -111 481 l -56 397 l 0 481 l -56 564 l -111 481 m 222 461 q 219 457 219 461 q 222 454 219 454 q 225 457 225 454 q 222 461 225 461 m 218 465 q 215 461 215 465 q 218 458 215 458 q 221 461 221 458 q 218 465 221 465 m -175 576 l -121 493 l -65 576 l -121 660 l -175 576 m -240 672 l -185 589 l -129 672 l -185 754 l -240 672 m 126 599 q 131 592 126 593 q 135 603 132 594 q 139 614 138 611 l 139 617 l 139 618 q 131 610 135 615 q 126 599 126 606 m 169 714 q 140 674 151 701 q 124 626 129 646 q 137 641 129 631 q 151 664 144 651 q 164 690 158 676 q 169 711 169 703 l 169 714 m 142 629 q 139 625 139 629 q 142 622 139 622 q 144 625 144 622 q 142 629 144 629 m -306 767 l -250 683 l -194 767 l -250 850 l -306 767 m 74 767 l 129 683 l 185 767 l 129 850 l 74 767 m 172 725 q 169 721 169 725 q 172 718 169 718 q 175 721 175 718 q 172 725 175 725 m 8 863 l 64 779 l 119 863 l 64 946 l 8 863 m -244 904 q -272 864 -261 892 q -290 817 -283 836 q -277 831 -285 821 q -262 855 -269 842 q -250 881 -256 868 q -244 903 -244 894 l -244 904 m -240 915 q -243 911 -243 915 q -240 908 -243 908 q -237 911 -237 908 q -240 915 -237 915 z "},"L":{"ha":813,"x_min":-317,"x_max":840,"o":"m 126 103 l -312 756 q -317 769 -317 761 l -317 775 q -311 793 -315 781 q -302 820 -307 806 q -292 848 -297 835 q -286 867 -287 861 q -282 874 -286 869 q -267 896 -276 882 q -250 922 -258 910 q -235 944 -242 935 q -229 954 -229 954 l -221 961 l -119 961 l 394 200 l 776 200 l 783 190 q 790 181 783 190 q 806 158 797 171 q 823 133 814 146 q 838 111 832 119 q 840 99 840 97 q 840 96 840 99 q 838 88 839 93 q 823 66 832 79 q 806 40 814 53 q 790 17 797 26 q 783 7 783 7 l 776 0 l 294 0 q 292 1 294 0 q 288 4 289 3 q 244 29 271 14 q 194 59 218 44 q 152 85 169 74 q 135 96 135 96 l 126 103 m 440 92 l 368 92 q 360 83 361 92 q 347 65 354 76 q 331 42 339 53 q 319 24 324 32 q 314 15 314 15 l 314 11 l 386 11 q 394 19 392 11 q 408 38 400 26 q 422 60 415 50 q 435 79 429 71 q 440 88 440 88 l 440 92 m 458 92 l 406 11 l 482 11 q 485 14 482 11 q 489 19 488 17 q 502 38 494 26 q 517 60 510 50 q 529 79 524 71 q 535 88 535 88 l 535 92 l 458 92 m 554 92 l 501 11 l 578 11 q 581 14 578 11 q 585 19 583 17 q 598 38 590 26 q 613 60 606 50 q 625 79 619 71 q 631 88 631 88 l 631 92 l 554 92 m 650 92 l 596 11 l 672 11 q 681 19 678 11 q 694 38 686 26 q 708 60 701 50 q 721 79 715 71 q 726 88 726 88 l 726 92 l 650 92 m 746 92 l 692 11 l 768 11 l 776 19 q 789 38 781 26 q 804 60 797 50 q 817 79 811 71 q 822 88 822 88 l 822 92 l 746 92 m 150 103 l 154 99 q 169 90 154 99 q 206 68 185 81 q 249 42 226 56 q 288 19 272 28 q 292 17 289 18 q 294 15 294 15 q 299 18 296 15 q 303 22 301 21 q 316 42 308 31 q 331 64 324 53 q 343 83 338 75 q 349 92 349 92 l 349 99 q 334 108 349 99 q 299 129 319 117 q 258 154 279 142 q 222 175 236 167 q 215 179 219 176 q 207 183 210 182 l 206 183 l 203 183 l 150 103 m 81 194 l 136 111 l 192 194 l 136 278 l 81 194 m 17 290 l 72 207 l 126 290 l 72 374 l 17 290 m -46 386 l 7 303 l 63 386 l 7 468 l -46 386 m -111 481 l -56 397 l 0 481 l -56 564 l -111 481 m -175 576 l -121 493 l -65 576 l -121 660 l -175 576 m -240 672 l -185 589 l -129 672 l -185 754 l -240 672 m -306 767 l -250 683 l -194 767 l -250 850 l -306 767 m -244 904 q -272 864 -261 892 q -290 817 -283 836 q -277 831 -285 821 q -262 855 -269 842 q -250 881 -256 868 q -244 903 -244 894 l -244 904 m -240 915 q -243 911 -243 915 q -240 908 -243 908 q -237 911 -237 908 q -240 915 -237 915 z "},"M":{"ha":794,"x_min":-318,"x_max":779,"o":"m 126 103 l 135 96 q 152 85 135 96 q 194 59 169 74 q 244 29 218 44 q 288 4 271 14 q 292 1 289 3 q 294 0 294 0 l 394 0 l 401 7 q 408 17 401 7 q 424 40 415 26 q 441 66 432 53 q 456 88 450 79 q 460 99 460 96 q 456 111 460 104 l 192 500 l 192 503 q 200 523 192 511 q 211 538 208 535 l 215 535 l 579 0 l 681 0 l 692 11 q 699 21 692 11 q 714 43 706 31 q 731 69 722 56 q 746 92 740 83 q 747 96 746 93 q 749 99 749 99 q 760 134 753 111 q 773 172 768 157 q 779 190 778 188 l 779 194 l 329 858 l 314 874 q 298 883 314 874 q 261 906 282 893 q 217 932 240 918 q 181 954 194 946 q 172 958 178 956 q 165 961 165 961 l 63 961 l 54 954 q 48 944 54 954 q 33 922 42 935 q 16 896 25 910 q 1 874 7 882 q -1 863 -1 865 q 4 847 -1 856 q 13 832 10 838 l 13 831 l 13 828 q 8 830 11 829 q 6 832 6 831 q -19 847 -3 838 q -46 862 -35 856 q -58 869 -57 868 l -121 961 l -222 961 l -231 954 q -237 944 -231 954 q -251 922 -243 935 q -269 896 -260 910 q -283 874 -278 882 q -286 869 -285 872 q -287 867 -287 867 q -294 848 -289 861 q -303 820 -299 835 q -312 793 -308 806 q -318 775 -317 781 l -318 769 q -314 756 -318 761 l 126 103 m 440 92 l 440 88 q 435 79 440 88 q 422 60 429 71 q 408 38 415 50 q 394 19 400 26 q 386 11 392 11 l 314 11 l 314 15 q 319 24 314 15 q 331 42 324 32 q 347 65 339 53 q 360 83 354 76 q 368 92 361 92 l 440 92 m 650 92 l 726 92 l 726 88 q 721 79 726 88 q 708 60 715 71 q 694 38 701 50 q 681 19 686 26 q 672 11 678 11 l 596 11 l 650 92 m 150 103 l 203 183 l 206 183 l 207 183 q 215 179 210 182 q 222 175 219 176 q 258 154 236 167 q 299 129 279 142 q 334 108 319 117 q 349 99 349 99 l 349 92 q 343 83 349 92 q 331 64 338 75 q 316 42 324 53 q 303 22 308 31 q 299 18 301 21 q 294 15 296 15 q 292 17 294 15 q 288 19 289 18 q 249 42 272 28 q 206 68 226 56 q 169 90 185 81 q 154 99 154 99 l 150 103 m 528 99 l 583 182 l 639 99 l 583 17 l 528 99 m 81 194 l 136 278 l 192 194 l 136 111 l 81 194 m 463 194 l 518 278 l 574 194 l 518 111 l 463 194 m 17 290 l 72 374 l 126 290 l 72 207 l 17 290 m 399 290 l 453 374 l 508 290 l 453 207 l 399 290 m -47 385 l 7 468 l 63 385 l 7 303 l -47 385 m 333 385 l 389 468 l 443 385 l 389 303 l 333 385 m -112 481 l -57 564 l -1 481 l -57 397 l -112 481 m 268 481 l 324 564 l 379 481 l 324 397 l 268 481 m -176 576 l -122 660 l -67 576 l -122 493 l -176 576 m 222 551 l 222 553 q 228 565 224 556 q 233 576 233 574 q 238 591 235 581 q 247 614 242 601 q 256 638 251 626 q 261 653 260 649 q 265 649 263 651 q 268 644 267 646 q 286 618 275 635 q 305 590 297 601 q 314 576 313 578 l 261 496 l 257 496 q 251 505 256 497 q 238 524 246 513 q 226 542 231 535 q 222 550 222 546 l 222 551 m 176 522 l 96 642 l 96 646 q 102 644 99 646 q 108 642 106 643 q 150 616 124 632 q 194 589 176 600 q 215 576 213 578 l 215 568 q 209 559 214 567 q 197 540 204 551 q 185 522 189 529 q 182 521 183 522 q 181 519 181 519 l 176 522 m -242 672 l -186 754 l -131 672 l -186 589 l -242 672 m 93 653 q 96 649 96 653 q 93 644 96 644 q 90 649 90 644 q 93 653 90 653 m 89 657 q 92 653 92 657 q 89 649 92 649 q 86 653 86 649 q 89 657 86 657 m -307 767 l -251 850 l -196 767 l -251 683 l -307 767 m 104 808 l 104 807 l 104 806 q 100 791 103 800 q 96 782 97 782 l 89 782 q 94 797 89 789 q 104 808 99 806 m 8 863 l 64 946 l 119 863 l 74 793 l 72 793 q 53 801 64 793 q 39 817 43 810 q 20 844 32 826 q 8 863 8 861 m -246 904 l -246 903 q -251 881 -246 894 q -264 855 -257 868 q -278 831 -271 842 q -292 817 -286 821 q -274 864 -285 836 q -246 904 -262 892 m 108 821 q 111 817 111 821 q 108 813 111 813 q 106 817 106 813 q 108 821 106 821 m -242 915 q -239 911 -239 915 q -242 908 -239 908 q -244 911 -244 908 q -242 915 -244 915 z "},"N":{"ha":794,"x_min":-318,"x_max":779,"o":"m 126 103 l 135 96 q 152 85 135 96 q 194 59 169 74 q 244 29 218 44 q 288 4 271 14 q 292 1 289 3 q 294 0 294 0 l 394 0 l 401 7 q 408 17 401 7 q 424 40 415 26 q 441 66 432 53 q 456 88 450 79 q 460 99 460 96 q 456 111 460 104 l 240 429 l 319 381 l 579 0 l 681 0 l 692 11 q 699 21 692 11 q 714 43 706 31 q 731 69 722 56 q 746 92 740 83 q 747 96 746 93 q 749 99 749 99 q 760 134 753 111 q 773 172 768 157 q 779 190 778 188 l 779 194 l 329 858 l 314 874 q 298 883 314 874 q 261 906 282 893 q 217 932 240 918 q 181 954 194 946 q 172 958 178 956 q 165 961 165 961 l 63 961 l 54 954 q 48 944 54 954 q 33 922 42 935 q 16 896 25 910 q 1 874 7 882 q -1 863 -1 865 q 4 847 -1 856 q 13 832 10 838 l 13 831 l 13 828 q 8 830 11 829 q 6 832 6 831 q -19 847 -3 838 q -46 862 -35 856 q -58 869 -57 868 l -121 961 l -222 961 l -231 954 q -237 944 -231 954 q -251 922 -243 935 q -269 896 -260 910 q -283 874 -278 882 q -286 869 -285 872 q -287 867 -287 867 q -294 848 -289 861 q -303 820 -299 835 q -312 793 -308 806 q -318 775 -317 781 l -318 769 q -314 756 -318 761 l 126 103 m 440 92 l 440 88 q 435 79 440 88 q 422 60 429 71 q 408 38 415 50 q 394 19 400 26 q 386 11 392 11 l 314 11 l 314 15 q 319 24 314 15 q 331 42 324 32 q 347 65 339 53 q 360 83 354 76 q 368 92 361 92 l 440 92 m 650 92 l 726 92 l 726 88 q 721 79 726 88 q 708 60 715 71 q 694 38 701 50 q 681 19 686 26 q 672 11 678 11 l 596 11 l 650 92 m 150 103 l 203 183 l 206 183 l 207 183 q 215 179 210 182 q 222 175 219 176 q 258 154 236 167 q 299 129 279 142 q 334 108 319 117 q 349 99 349 99 l 349 92 q 343 83 349 92 q 331 64 338 75 q 316 42 324 53 q 303 22 308 31 q 299 18 301 21 q 294 15 296 15 q 292 17 294 15 q 288 19 289 18 q 249 42 272 28 q 206 68 226 56 q 169 90 185 81 q 154 99 154 99 l 150 103 m 528 99 l 583 182 l 639 99 l 583 17 l 528 99 m 81 194 l 136 278 l 192 194 l 136 111 l 81 194 m 463 194 l 518 278 l 574 194 l 518 111 l 463 194 m 17 290 l 72 374 l 126 290 l 72 207 l 17 290 m 399 290 l 453 374 l 508 290 l 453 207 l 399 290 m -47 385 l 7 468 l 63 385 l 7 303 l -47 385 m 333 385 l 389 468 l 443 385 l 389 303 l 333 385 m 226 454 q 222 458 225 456 q 218 461 219 460 q 202 484 213 469 q 192 500 192 499 l 192 507 l 231 565 l 232 565 l 233 565 q 242 561 236 564 q 249 557 247 558 q 285 535 263 549 q 326 510 307 522 q 360 490 346 499 q 375 481 375 481 l 375 474 q 369 465 375 474 q 357 446 364 457 q 342 423 350 435 q 329 404 335 411 l 322 397 q 319 399 321 397 q 314 400 317 400 q 297 410 310 403 q 270 427 285 418 q 243 444 256 436 q 226 454 231 451 m -112 481 l -57 564 l -1 481 l -57 397 l -112 481 m 242 431 q 244 426 244 431 q 242 424 244 424 q 239 426 239 424 q 242 431 239 431 m -176 576 l -122 660 l -67 576 l -122 493 l -176 576 m 176 522 l 96 642 l 96 646 q 102 644 99 646 q 108 642 106 643 q 150 616 124 632 q 194 589 176 600 q 215 576 213 578 l 215 568 q 209 559 214 567 q 197 540 204 551 q 185 522 189 529 q 182 521 183 522 q 181 519 181 519 l 176 522 m -242 672 l -186 754 l -131 672 l -186 589 l -242 672 m 93 653 q 96 649 96 653 q 93 644 96 644 q 90 649 90 644 q 93 653 90 653 m 89 657 q 92 653 92 657 q 89 649 92 649 q 86 653 86 649 q 89 657 86 657 m -307 767 l -251 850 l -196 767 l -251 683 l -307 767 m 231 703 q 233 699 233 703 q 231 694 233 694 q 228 699 228 694 q 231 703 228 703 m 181 731 q 185 742 181 735 q 192 751 189 749 q 192 752 192 751 q 194 753 193 753 l 196 751 l 229 703 l 222 703 q 207 711 222 703 q 185 725 192 719 q 181 729 181 725 l 181 731 m 89 786 l 89 790 l 129 850 l 185 767 q 178 758 185 767 q 169 744 172 750 l 165 740 l 164 740 q 146 746 158 740 q 121 759 133 751 q 99 774 108 767 q 89 786 89 782 m 8 863 l 64 946 l 119 863 l 74 793 l 72 793 q 53 801 64 793 q 39 817 43 810 q 20 844 32 826 q 8 863 8 861 m -246 904 l -246 903 q -251 881 -246 894 q -264 855 -257 868 q -278 831 -271 842 q -292 817 -286 821 q -274 864 -285 836 q -246 904 -262 892 m -242 915 q -239 911 -239 915 q -242 908 -239 908 q -244 911 -244 908 q -242 915 -244 915 z "},"O":{"ha":794,"x_min":-318,"x_max":779,"o":"m 126 103 l 135 96 q 152 85 135 96 q 194 59 169 74 q 244 29 218 44 q 288 4 271 14 q 292 1 289 3 q 294 0 294 0 l 681 0 l 692 11 q 699 21 692 11 q 714 43 706 31 q 731 69 722 56 q 746 92 740 83 q 747 96 746 93 q 749 99 749 99 q 760 134 753 111 q 773 172 768 157 q 779 190 778 188 l 779 194 l 329 858 l 314 874 q 298 883 314 874 q 261 906 282 893 q 217 932 240 918 q 181 954 194 946 q 172 958 178 956 q 165 961 165 961 l -222 961 l -231 954 q -237 944 -231 954 q -251 922 -243 935 q -269 896 -260 910 q -283 874 -278 882 q -286 869 -285 872 q -287 867 -287 867 q -294 848 -289 861 q -303 820 -299 835 q -312 793 -308 806 q -318 775 -317 781 l -318 769 q -314 756 -318 761 l 126 103 m 440 92 l 440 88 q 435 79 440 88 q 422 60 429 71 q 408 38 415 50 q 394 19 400 26 q 386 11 392 11 l 314 11 l 314 15 q 319 24 314 15 q 331 42 324 32 q 347 65 339 53 q 360 83 354 76 q 368 92 361 92 l 440 92 m 458 92 l 535 92 l 535 88 q 529 79 535 88 q 517 60 524 71 q 502 38 510 50 q 489 19 494 26 q 485 14 488 17 q 482 11 482 11 l 406 11 l 458 92 m 554 92 l 631 92 l 631 88 q 625 79 631 88 q 613 60 619 71 q 598 38 606 50 q 585 19 590 26 q 581 14 583 17 q 578 11 578 11 l 501 11 l 554 92 m 650 92 l 726 92 l 726 88 q 721 79 726 88 q 708 60 715 71 q 694 38 701 50 q 681 19 686 26 q 672 11 678 11 l 596 11 l 650 92 m 150 103 l 203 183 l 206 183 l 207 183 q 215 179 210 182 q 222 175 219 176 q 258 154 236 167 q 299 129 279 142 q 334 108 319 117 q 349 99 349 99 l 349 92 q 343 83 349 92 q 331 64 338 75 q 316 42 324 53 q 303 22 308 31 q 299 18 301 21 q 294 15 296 15 q 292 17 294 15 q 288 19 289 18 q 249 42 272 28 q 206 68 226 56 q 169 90 185 81 q 154 99 154 99 l 150 103 m 81 194 l 136 278 l 192 194 l 136 111 l 81 194 m 17 760 l 63 760 l 440 203 l 394 203 l 17 760 m 468 203 l 518 278 l 568 203 l 468 203 m 17 290 l 72 374 l 126 290 l 72 207 l 17 290 m 399 290 l 453 374 l 508 290 l 453 207 l 399 290 m -47 385 l 7 468 l 63 385 l 7 303 l -47 385 m 333 385 l 389 468 l 443 385 l 389 303 l 333 385 m -112 481 l -57 564 l -1 481 l -57 397 l -112 481 m 268 481 l 324 564 l 379 481 l 324 397 l 268 481 m -176 576 l -122 660 l -67 576 l -122 493 l -176 576 m 203 576 l 258 660 l 314 576 l 258 493 l 203 576 m -242 672 l -186 754 l -131 672 l -186 589 l -242 672 m 139 672 l 194 754 l 249 672 l 194 589 l 139 672 m -307 767 l -251 850 l -196 767 l -251 683 l -307 767 m 74 767 l 129 850 l 185 767 l 129 683 l 74 767 m -1 792 l -1 797 l 36 854 l 111 854 l 111 851 q 106 843 111 851 q 93 824 100 835 q 78 801 86 813 q 65 782 71 789 l 58 775 l 6 775 q -1 782 0 775 q -1 792 -1 789 m -47 854 l 19 854 l -12 806 q -15 807 -14 806 q -17 808 -17 808 q -32 831 -19 814 q -47 854 -44 849 m -246 904 l -246 903 q -251 881 -246 894 q -264 855 -257 868 q -278 831 -271 842 q -292 817 -286 821 q -274 864 -285 836 q -246 904 -262 892 m -242 915 q -239 911 -239 915 q -242 908 -239 908 q -244 911 -244 908 q -242 915 -244 915 z "},"P":{"ha":804,"x_min":-317,"x_max":519,"o":"m 126 103 l -312 756 q -317 768 -317 761 l -317 775 q -311 792 -315 779 q -301 820 -307 806 q -292 848 -296 835 q -286 865 -287 861 q -282 874 -286 869 q -267 896 -276 882 q -250 922 -258 910 q -235 944 -242 935 q -229 954 -229 954 l -221 961 l 165 961 q 172 958 165 961 q 181 954 178 956 q 217 932 194 946 q 261 906 240 918 q 298 883 282 893 q 314 874 314 874 l 329 858 l 519 576 l 519 572 q 516 561 519 572 q 508 535 513 550 q 498 506 503 521 q 489 481 493 490 q 488 476 489 479 q 486 474 486 474 q 472 451 481 465 q 454 425 463 438 q 439 403 446 413 q 432 393 432 393 l 421 379 l 275 379 l 456 111 q 458 99 458 97 q 458 96 458 99 q 456 88 457 93 q 441 66 450 79 q 424 40 432 53 q 408 17 415 26 q 401 7 401 7 l 394 0 l 294 0 q 292 1 294 0 q 288 4 289 3 q 244 29 271 14 q 194 59 218 44 q 152 85 169 74 q 135 96 135 96 l 126 103 m 440 92 l 367 92 q 364 89 367 92 q 360 83 361 86 q 347 65 354 76 q 331 42 339 53 q 319 24 324 32 q 314 15 314 15 l 314 11 l 386 11 l 394 19 q 408 38 400 26 q 422 60 415 50 q 435 79 429 71 q 440 88 440 88 l 440 92 m 150 103 l 154 99 q 169 90 154 99 q 206 68 185 81 q 249 42 226 56 q 288 19 272 28 q 292 17 289 18 q 294 15 294 15 q 299 18 296 15 q 303 22 301 21 q 316 42 308 31 q 331 64 324 53 q 343 83 338 75 q 349 92 349 92 l 349 99 q 334 108 349 99 q 299 129 319 117 q 258 154 279 142 q 222 175 236 167 q 215 179 219 176 q 207 183 210 182 l 204 183 l 203 183 l 150 103 m 81 194 l 136 111 l 192 194 l 136 278 l 81 194 m 17 290 l 72 207 l 126 290 l 72 372 l 17 290 m -46 385 l 7 303 l 63 385 l 7 468 l -46 385 m 256 411 q 258 400 256 407 q 264 393 260 393 l 318 393 l 325 400 q 338 419 331 408 q 353 442 346 431 q 365 461 360 453 q 371 469 371 469 l 371 474 l 294 474 l 257 415 q 256 414 257 415 q 256 411 256 413 m 390 474 l 336 393 l 413 393 q 417 396 414 393 q 421 400 419 399 q 434 419 426 408 q 449 442 442 431 q 461 461 456 453 q 467 469 467 469 l 467 474 l 390 474 m -111 481 l -56 397 l 0 481 l -56 564 l -111 481 m 211 474 q 226 451 214 468 q 242 428 238 433 q 243 425 242 426 q 244 424 244 424 l 278 474 l 211 474 m -175 576 l -121 493 l -65 576 l -121 658 l -175 576 m 17 760 l 135 583 l 181 583 l 63 760 l 17 760 m 208 583 l 308 583 l 258 658 l 208 583 m -240 671 l -185 589 l -129 671 l -185 754 l -240 671 m 139 671 l 193 589 l 249 671 l 193 754 l 139 671 m -306 767 l -250 683 l -194 767 l -250 850 l -306 767 m 74 767 l 129 683 l 185 767 l 129 850 l 74 767 m 0 792 q 0 782 0 789 q 4 775 0 775 l 58 775 q 61 777 58 775 q 65 782 64 779 q 83 808 72 792 q 102 837 94 825 q 111 850 110 849 l 111 854 l 35 854 l 0 797 l 0 792 m -46 854 q -31 831 -43 849 q -15 808 -18 814 q -14 807 -15 808 q -11 806 -12 806 l 19 854 l -46 854 m -244 904 q -273 864 -262 892 q -290 817 -283 836 q -277 831 -285 821 q -262 855 -269 842 q -250 881 -256 868 q -244 903 -244 894 l -244 904 m -240 915 q -243 911 -243 915 q -240 908 -243 908 q -237 911 -237 908 q -240 915 -237 915 z "},"Q":{"ha":794,"x_min":-318,"x_max":779,"o":"m 126 103 l 135 96 q 152 85 135 96 q 194 59 169 74 q 244 29 218 44 q 288 4 271 14 q 292 1 289 3 q 294 0 294 0 l 585 0 q 592 6 588 0 q 601 18 596 11 q 610 32 606 25 q 619 42 615 39 l 621 42 l 624 42 l 672 0 l 676 0 q 692 11 685 0 q 702 27 694 15 q 719 51 710 39 q 735 76 728 64 q 746 92 743 88 q 747 96 746 93 q 749 99 749 99 q 754 117 750 104 q 763 144 758 129 q 773 172 768 158 q 779 190 778 185 l 779 193 q 775 199 779 196 q 768 203 771 201 q 751 209 764 204 q 724 219 739 214 q 697 230 710 225 q 681 236 685 235 q 694 258 683 242 q 707 279 704 274 q 711 290 711 285 q 707 301 711 294 l 329 858 l 314 874 q 298 883 314 874 q 261 906 282 893 q 217 932 240 918 q 181 954 194 946 q 172 958 178 956 q 165 961 165 961 l -222 961 l -231 954 q -237 944 -231 954 q -251 922 -243 935 q -269 896 -260 910 q -283 874 -278 882 q -286 869 -285 872 q -287 867 -287 867 q -294 848 -289 861 q -303 820 -299 835 q -312 793 -308 806 q -318 775 -317 781 l -318 769 q -314 756 -318 761 l 126 103 m 440 92 l 440 88 q 435 79 440 88 q 422 60 429 71 q 408 38 415 50 q 394 19 400 26 q 386 11 392 11 l 314 11 l 314 15 q 319 24 314 15 q 331 42 324 32 q 347 65 339 53 q 360 83 354 76 q 368 92 361 92 l 440 92 m 458 92 l 535 92 l 535 88 q 529 79 535 88 q 517 60 524 71 q 502 38 510 50 q 489 19 494 26 q 485 14 488 17 q 482 11 482 11 l 406 11 l 458 92 m 554 92 l 631 92 l 631 88 q 625 79 631 88 q 613 60 619 71 q 598 38 606 50 q 585 19 590 26 q 581 14 583 17 q 578 11 578 11 l 501 11 l 554 92 m 150 103 l 203 183 l 206 183 l 207 183 q 215 179 210 182 q 222 175 219 176 q 258 154 236 167 q 299 129 279 142 q 334 108 319 117 q 349 99 349 99 l 349 92 q 343 83 349 92 q 331 64 338 75 q 316 42 324 53 q 303 22 308 31 q 299 18 301 21 q 294 15 296 15 q 292 17 294 15 q 288 19 289 18 q 249 42 272 28 q 206 68 226 56 q 169 90 185 81 q 154 99 154 99 l 150 103 m 626 57 q 640 76 631 63 q 650 101 650 90 q 646 133 650 117 q 642 167 642 150 l 642 175 q 658 161 646 171 q 682 141 669 151 q 706 121 694 131 q 722 107 718 111 l 731 99 l 731 97 l 731 96 l 676 15 q 626 57 649 33 m 81 194 l 136 278 l 192 194 l 136 111 l 81 194 m 386 217 q 390 229 386 222 q 402 247 394 236 q 415 266 410 258 q 421 275 419 274 l 425 275 l 474 203 l 394 203 q 390 207 393 203 q 386 214 388 211 l 386 217 m 17 290 l 72 374 l 126 290 l 72 207 l 17 290 m 375 232 l 322 310 q 321 313 321 310 q 325 325 321 318 q 344 352 332 335 q 356 369 356 369 l 360 369 l 414 290 l 375 232 m 675 256 l 676 256 q 665 243 674 243 q 663 244 664 243 q 661 244 661 244 l 672 256 l 675 256 m -47 385 l 7 468 l 63 385 l 7 303 l -47 385 m 299 343 l 17 760 l 63 760 l 318 382 q 314 368 318 382 q 307 347 310 354 q 304 343 306 346 q 303 340 303 340 l 299 343 m 364 428 l 364 425 q 358 403 364 417 q 346 378 353 390 q 331 355 339 365 q 318 340 324 344 q 335 388 324 360 q 364 428 346 415 m -112 481 l -57 564 l -1 481 l -57 397 l -112 481 m 268 481 l 324 564 l 379 481 l 324 397 l 268 481 m 368 439 q 371 435 371 439 q 368 431 371 431 q 365 435 365 431 q 368 439 365 439 m -176 576 l -122 660 l -67 576 l -122 493 l -176 576 m 203 576 l 258 660 l 314 576 l 258 493 l 203 576 m -242 672 l -186 754 l -131 672 l -186 589 l -242 672 m 139 672 l 194 754 l 249 672 l 194 589 l 139 672 m -307 767 l -251 850 l -196 767 l -251 683 l -307 767 m 74 767 l 129 850 l 185 767 l 129 683 l 74 767 m -1 792 l -1 797 l 36 854 l 111 854 l 111 851 q 106 843 111 851 q 93 824 100 835 q 78 801 86 813 q 65 782 71 789 l 58 775 l 6 775 q -1 782 0 775 q -1 792 -1 789 m -47 854 l 19 854 l -12 806 q -15 807 -14 806 q -17 808 -17 808 q -32 831 -19 814 q -47 854 -44 849 m -246 904 l -246 903 q -251 881 -246 894 q -264 855 -257 868 q -278 831 -271 842 q -292 817 -286 821 q -274 864 -285 836 q -246 904 -262 892 m -242 915 q -239 911 -239 915 q -242 908 -239 908 q -244 911 -244 908 q -242 915 -244 915 z "},"R":{"ha":794,"x_min":-318,"x_max":779,"o":"m 126 103 l 135 96 q 152 85 135 96 q 194 59 169 74 q 244 29 218 44 q 288 4 271 14 q 292 1 289 3 q 294 0 294 0 l 394 0 l 401 7 q 408 17 401 7 q 424 40 415 26 q 441 66 432 53 q 456 88 450 79 q 460 99 460 96 q 456 111 460 104 l 276 378 l 322 378 l 579 0 l 681 0 l 692 11 q 699 21 692 11 q 714 43 706 31 q 731 69 722 56 q 746 92 740 83 q 747 96 746 93 q 749 99 749 99 q 760 134 753 111 q 773 172 768 157 q 779 190 778 188 l 779 194 l 589 476 q 574 489 583 486 q 556 495 568 490 q 529 506 543 500 q 503 516 515 511 q 486 522 490 521 q 499 544 489 528 q 513 565 510 560 q 517 576 517 571 q 513 588 517 581 l 329 858 l 314 874 q 298 883 314 874 q 261 906 282 893 q 217 932 240 918 q 181 954 194 946 q 172 958 178 956 q 165 961 165 961 l -222 961 l -231 954 q -237 944 -231 954 q -251 922 -243 935 q -269 896 -260 910 q -283 874 -278 882 q -286 869 -285 872 q -287 867 -287 867 q -294 848 -289 861 q -303 820 -299 835 q -312 793 -308 806 q -318 775 -317 781 l -318 769 q -314 756 -318 761 l 126 103 m 440 92 l 440 88 q 435 79 440 88 q 422 60 429 71 q 408 38 415 50 q 394 19 400 26 q 386 11 392 11 l 314 11 l 314 15 q 319 24 314 15 q 331 42 324 32 q 347 65 339 53 q 360 83 354 76 q 368 92 361 92 l 440 92 m 650 92 l 726 92 l 726 88 q 721 79 726 88 q 708 60 715 71 q 694 38 701 50 q 681 19 686 26 q 672 11 678 11 l 596 11 l 650 92 m 150 103 l 203 183 l 206 183 l 207 183 q 215 179 210 182 q 222 175 219 176 q 258 154 236 167 q 299 129 279 142 q 334 108 319 117 q 349 99 349 99 l 349 92 q 343 83 349 92 q 331 64 338 75 q 316 42 324 53 q 303 22 308 31 q 299 18 301 21 q 294 15 296 15 q 292 17 294 15 q 288 19 289 18 q 249 42 272 28 q 206 68 226 56 q 169 90 185 81 q 154 99 154 99 l 150 103 m 528 99 l 583 182 l 639 99 l 583 17 l 528 99 m 81 194 l 136 278 l 192 194 l 136 111 l 81 194 m 463 194 l 518 278 l 574 194 l 518 111 l 463 194 m 17 290 l 72 374 l 126 290 l 72 207 l 17 290 m 399 290 l 453 374 l 508 290 l 453 207 l 399 290 m -47 385 l 7 468 l 63 385 l 7 303 l -47 385 m 333 385 l 389 468 l 443 385 l 389 303 l 333 385 m 256 411 q 256 414 256 413 q 257 415 257 415 l 294 474 l 371 474 l 371 469 q 365 461 371 469 q 353 442 360 453 q 338 419 346 431 q 325 400 331 408 l 318 393 l 264 393 q 258 400 260 393 q 256 411 256 407 m -112 481 l -57 564 l -1 481 l -57 397 l -112 481 m 211 474 l 278 474 l 246 424 q 242 428 242 424 q 226 451 238 433 q 211 474 214 468 m -176 576 l -122 660 l -67 576 l -122 493 l -176 576 m 481 542 l 482 542 q 471 529 479 529 q 468 530 469 529 q 467 531 467 531 l 478 542 l 481 542 m 17 760 l 63 760 l 181 583 l 135 583 l 17 760 m 208 583 l 258 660 l 308 583 l 208 583 m -242 672 l -186 754 l -131 672 l -186 589 l -242 672 m 139 672 l 194 754 l 249 672 l 194 589 l 139 672 m -307 767 l -251 850 l -196 767 l -251 683 l -307 767 m 74 767 l 129 850 l 185 767 l 129 683 l 74 767 m -1 792 l -1 797 l 36 854 l 111 854 l 111 851 q 106 843 111 851 q 93 824 100 835 q 78 801 86 813 q 65 782 71 789 l 58 775 l 6 775 q -1 782 0 775 q -1 792 -1 789 m -47 854 l 19 854 l -12 806 q -15 807 -14 806 q -17 808 -17 808 q -32 831 -19 814 q -47 854 -44 849 m -246 904 l -246 903 q -251 881 -246 894 q -264 855 -257 868 q -278 831 -271 842 q -292 817 -286 821 q -274 864 -285 836 q -246 904 -262 892 m -242 915 q -239 911 -239 915 q -242 908 -239 908 q -244 911 -244 908 q -242 915 -244 915 z "},"S":{"ha":794,"x_min":-317,"x_max":779,"o":"m 135 99 q 139 111 135 104 q 153 133 144 119 q 169 158 161 146 q 185 181 178 171 q 192 190 192 190 l 200 200 l 440 200 l 322 379 l 36 379 q 32 383 35 381 q 28 385 29 385 q -1 403 21 390 q -46 431 -22 417 q -92 459 -69 446 q -122 476 -114 472 l -129 485 l -312 756 q -317 769 -317 761 l -317 775 q -311 793 -315 781 q -302 820 -307 806 q -292 848 -297 835 q -286 867 -287 861 q -285 869 -286 867 q -282 874 -283 872 q -267 896 -276 882 q -250 922 -258 910 q -235 944 -242 935 q -229 954 -229 954 l -221 961 l 257 961 l 264 954 q 271 944 264 954 q 286 922 278 935 q 303 896 294 910 q 318 874 313 882 q 322 863 322 867 q 318 851 322 857 q 303 830 313 843 q 286 804 294 817 q 272 782 278 792 q 264 771 265 772 l 257 761 l 17 761 l 135 582 l 425 582 l 574 492 l 589 476 l 779 194 l 779 190 q 773 172 778 188 q 760 134 768 157 q 749 99 753 111 q 747 96 749 99 q 746 92 746 93 q 731 69 740 83 q 714 43 722 56 q 699 21 706 31 q 692 11 692 11 l 681 0 l 200 0 l 192 7 q 181 24 190 10 q 159 58 172 38 q 139 88 146 78 q 135 99 135 93 m 268 92 l 215 11 l 292 11 q 294 14 292 11 q 299 19 297 17 q 312 38 304 26 q 326 60 319 50 q 339 79 333 71 q 344 88 344 88 l 344 92 l 268 92 m 364 92 l 310 11 l 386 11 q 394 19 392 11 q 408 38 400 26 q 422 60 415 50 q 435 79 429 71 q 440 88 440 88 l 440 92 l 364 92 m 458 92 l 406 11 l 482 11 q 485 14 482 11 q 489 19 488 17 q 502 38 494 26 q 517 60 510 50 q 529 79 524 71 q 535 88 535 88 l 535 92 l 458 92 m 554 92 l 501 11 l 578 11 q 581 14 578 11 q 585 19 583 17 q 598 38 590 26 q 613 60 606 50 q 625 79 619 71 q 631 88 631 88 l 631 92 l 554 92 m 650 92 l 596 11 l 672 11 q 681 19 678 11 q 694 38 686 26 q 708 60 701 50 q 721 79 715 71 q 726 88 726 88 l 726 92 l 650 92 m 146 99 l 201 17 l 257 99 l 201 182 l 146 99 m 468 203 l 568 203 l 518 278 l 468 203 m 399 290 l 453 207 l 508 290 l 453 374 l 399 290 m 333 385 l 389 303 l 443 385 l 389 468 l 333 385 m 181 474 l 108 474 q 100 465 101 474 q 82 439 93 456 q 63 410 71 422 q 54 397 56 399 l 54 393 l 126 393 q 131 396 128 393 q 135 400 133 399 q 148 419 140 408 q 163 442 156 431 q 175 461 169 453 q 181 469 181 469 l 181 474 m 200 474 l 146 393 l 222 393 q 226 396 224 393 q 231 400 228 399 q 244 419 236 408 q 258 442 251 431 q 271 461 265 453 q 276 469 276 469 l 276 474 l 200 474 m 294 474 l 242 393 l 318 393 l 325 400 q 338 419 331 408 q 353 442 346 431 q 365 461 360 453 q 371 469 371 469 l 371 474 l 294 474 m -107 485 l -103 481 q -87 472 -103 481 q -51 449 -72 463 q -7 422 -29 436 q 28 400 15 408 q 32 399 29 400 q 36 397 35 397 l 43 404 q 56 423 49 411 q 71 446 64 435 q 83 465 78 457 q 89 474 89 474 l 89 481 q 74 490 89 481 q 40 510 60 499 q -1 535 19 522 q -35 557 -22 549 q -42 561 -36 558 q -50 565 -47 564 l -51 565 l -53 565 l -107 485 m -175 576 l -121 493 l -65 576 l -121 660 l -175 576 m -240 672 l -185 589 l -129 672 l -185 754 l -240 672 m -306 767 l -250 683 l -194 767 l -250 850 l -306 767 m 0 792 q 0 782 0 789 q 6 775 0 775 l 58 775 l 65 782 q 78 801 71 789 q 93 824 86 813 q 106 843 100 835 q 111 851 111 851 l 111 854 l 36 854 l 0 797 l 0 792 m 131 854 l 78 775 l 154 775 l 161 782 q 174 801 167 789 q 189 824 182 813 q 201 843 196 835 q 207 851 207 851 l 207 854 l 131 854 m 226 854 l 172 775 l 249 775 q 253 778 250 775 q 257 782 256 781 q 270 801 263 789 q 285 824 278 813 q 297 843 292 835 q 303 851 303 851 l 303 854 l 226 854 m -46 854 q -31 831 -43 849 q -15 808 -18 814 q -14 807 -15 808 q -11 806 -12 806 l 19 854 l -46 854 m -244 904 q -272 864 -261 892 q -290 817 -283 836 q -277 831 -285 821 q -262 855 -269 842 q -250 881 -256 868 q -244 903 -244 894 l -244 904 m -240 915 q -243 911 -243 915 q -240 908 -243 908 q -237 911 -237 908 q -240 915 -237 915 z "},"T":{"ha":797,"x_min":-365,"x_max":665,"o":"m 404 0 l -110 761 l -300 761 l -308 771 q -315 781 -308 771 q -331 803 -322 790 q -347 828 -339 815 q -361 850 -356 842 q -365 863 -365 856 q -361 874 -365 867 q -341 903 -354 883 q -319 938 -328 924 q -308 954 -310 951 l -300 961 l 272 961 l 281 954 q 288 944 281 954 q 303 922 294 935 q 319 895 311 908 q 333 874 328 882 q 338 863 338 867 q 333 850 338 856 q 319 828 328 842 q 303 803 311 815 q 288 781 294 790 q 281 771 281 771 l 272 761 l 224 761 l 663 111 q 665 99 665 97 q 665 96 665 99 q 663 88 664 93 q 648 66 657 79 q 631 40 639 53 q 615 17 622 26 q 608 7 608 7 l 601 0 l 404 0 m 475 92 l 421 11 l 497 11 q 506 19 503 11 q 519 38 511 26 q 533 60 526 50 q 546 79 540 71 q 551 88 551 88 l 551 92 l 475 92 m 571 92 l 517 11 l 593 11 l 601 19 q 614 38 606 26 q 629 60 622 50 q 642 79 636 71 q 647 88 647 88 l 647 92 l 571 92 m 353 99 l 408 17 l 464 99 l 408 182 l 353 99 m 288 194 l 343 111 l 399 194 l 343 278 l 288 194 m 224 290 l 279 207 l 333 290 l 279 372 l 224 290 m 158 385 l 214 303 l 269 385 l 214 468 l 158 385 m 93 481 l 149 397 l 204 481 l 149 564 l 93 481 m 29 576 l 83 493 l 139 576 l 83 658 l 29 576 m -33 671 l 19 589 l 75 671 l 19 754 l -33 671 m -99 767 l -43 683 l 10 767 l -43 850 l -99 767 m -232 854 l -285 775 l -208 775 q -206 777 -208 775 q -201 782 -203 779 q -183 808 -194 792 q -165 837 -172 825 q -156 850 -157 849 l -156 854 l -232 854 m -136 854 l -190 775 l -114 775 q -106 782 -110 775 q -87 808 -99 792 q -69 837 -76 825 q -60 850 -61 849 l -60 854 l -136 854 m 204 792 q 206 782 204 789 q 211 775 207 775 l 265 775 q 268 777 265 775 q 272 782 271 779 q 290 808 279 792 q 309 837 301 825 q 318 850 317 849 l 318 854 l 242 854 l 204 797 l 204 792 m -354 863 l -299 779 l -243 863 l -299 944 l -354 863 m 158 854 q 174 831 161 849 q 189 808 186 814 l 193 804 l 226 854 l 158 854 z "},"U":{"ha":794,"x_min":-318,"x_max":779,"o":"m 126 103 l 135 96 q 152 85 135 96 q 194 59 169 74 q 244 29 218 44 q 288 4 271 14 q 292 1 289 3 q 294 0 294 0 l 681 0 l 692 11 q 699 21 692 11 q 714 43 706 31 q 731 69 722 56 q 746 92 740 83 q 747 96 746 93 q 749 99 749 99 q 760 134 753 111 q 773 172 768 157 q 779 190 778 188 l 779 194 l 329 858 l 314 874 q 298 883 314 874 q 261 906 282 893 q 217 932 240 918 q 181 954 194 946 q 172 958 178 956 q 165 961 165 961 l 63 961 l 54 954 q 48 944 54 954 q 33 922 42 935 q 16 896 25 910 q 1 874 7 882 q -1 863 -1 865 q 1 851 -1 857 l 440 203 l 394 203 l -121 961 l -222 961 l -231 954 q -237 944 -231 954 q -251 922 -243 935 q -269 896 -260 910 q -283 874 -278 882 q -286 869 -285 872 q -287 867 -287 867 q -294 848 -289 861 q -303 820 -299 835 q -312 793 -308 806 q -318 775 -317 781 l -318 769 q -314 756 -318 761 l 126 103 m 440 92 l 440 88 q 435 79 440 88 q 422 60 429 71 q 408 38 415 50 q 394 19 400 26 q 386 11 392 11 l 314 11 l 314 15 q 319 24 314 15 q 331 42 324 32 q 347 65 339 53 q 360 83 354 76 q 368 92 361 92 l 440 92 m 458 92 l 535 92 l 535 88 q 529 79 535 88 q 517 60 524 71 q 502 38 510 50 q 489 19 494 26 q 485 14 488 17 q 482 11 482 11 l 406 11 l 458 92 m 554 92 l 631 92 l 631 88 q 625 79 631 88 q 613 60 619 71 q 598 38 606 50 q 585 19 590 26 q 581 14 583 17 q 578 11 578 11 l 501 11 l 554 92 m 650 92 l 726 92 l 726 88 q 721 79 726 88 q 708 60 715 71 q 694 38 701 50 q 681 19 686 26 q 672 11 678 11 l 596 11 l 650 92 m 150 103 l 203 183 l 206 183 l 207 183 q 215 179 210 182 q 222 175 219 176 q 258 154 236 167 q 299 129 279 142 q 334 108 319 117 q 349 99 349 99 l 349 92 q 343 83 349 92 q 331 64 338 75 q 316 42 324 53 q 303 22 308 31 q 299 18 301 21 q 294 15 296 15 q 292 17 294 15 q 288 19 289 18 q 249 42 272 28 q 206 68 226 56 q 169 90 185 81 q 154 99 154 99 l 150 103 m 81 194 l 136 278 l 192 194 l 136 111 l 81 194 m 468 203 l 518 278 l 568 203 l 468 203 m 17 290 l 72 374 l 126 290 l 72 207 l 17 290 m 399 290 l 453 374 l 508 290 l 453 207 l 399 290 m -47 385 l 7 468 l 63 385 l 7 303 l -47 385 m 333 385 l 389 468 l 443 385 l 389 303 l 333 385 m -112 481 l -57 564 l -1 481 l -57 397 l -112 481 m 268 481 l 324 564 l 379 481 l 324 397 l 268 481 m -176 576 l -122 660 l -67 576 l -122 493 l -176 576 m 203 576 l 258 660 l 314 576 l 258 493 l 203 576 m -242 672 l -186 754 l -131 672 l -186 589 l -242 672 m 139 672 l 194 754 l 249 672 l 194 589 l 139 672 m -307 767 l -251 850 l -196 767 l -251 683 l -307 767 m 74 767 l 129 850 l 185 767 l 129 683 l 74 767 m 8 863 l 64 946 l 119 863 l 64 779 l 8 863 m -246 904 l -246 903 q -251 881 -246 894 q -264 855 -257 868 q -278 831 -271 842 q -292 817 -286 821 q -274 864 -285 836 q -246 904 -262 892 m -242 915 q -239 911 -239 915 q -242 908 -239 908 q -244 911 -244 908 q -242 915 -244 915 z "},"V":{"ha":803,"x_min":-317,"x_max":650,"o":"m 0 289 l -312 756 q -317 768 -317 761 l -317 774 q -311 792 -315 779 q -302 819 -307 804 q -292 847 -297 833 q -286 865 -287 860 q -282 874 -286 869 q -267 895 -276 882 q -250 922 -258 908 q -235 944 -242 935 q -229 953 -229 953 l -221 961 l -119 961 l 329 297 q 341 290 331 296 q 367 275 351 285 q 393 260 383 265 q 401 256 397 256 l 401 260 l 1 850 q 0 861 0 856 q 1 874 0 868 q 15 895 7 882 q 32 922 24 908 q 47 944 40 935 q 54 953 54 953 l 63 961 l 165 961 q 172 958 165 961 q 181 953 178 956 q 217 931 194 944 q 261 905 240 918 q 298 883 282 892 q 314 874 314 874 l 329 858 l 650 383 l 557 99 q 556 96 557 99 q 554 92 554 93 q 544 76 551 88 q 527 51 536 64 q 510 27 518 39 q 500 11 503 15 l 489 0 l 488 0 l 485 0 q 482 1 485 0 q 478 4 479 3 l 0 289 m 340 103 l 344 99 q 360 90 344 99 q 396 68 375 81 q 440 42 417 56 q 478 19 463 28 q 482 17 479 18 q 485 15 485 15 q 489 18 486 15 q 493 22 492 21 q 506 42 499 31 q 521 64 514 53 q 533 83 528 75 q 539 92 539 92 l 539 99 q 524 108 539 99 q 490 129 510 117 q 448 154 469 142 q 413 175 426 167 q 405 179 410 176 q 397 183 400 182 l 396 183 l 393 183 l 340 103 m 181 199 l 183 194 q 200 185 185 194 q 236 163 215 175 q 279 136 257 150 q 317 114 301 122 l 325 111 q 328 114 326 111 q 332 118 331 117 q 345 137 338 125 q 360 160 353 149 q 372 179 367 171 q 378 188 378 188 l 378 194 q 363 203 378 194 q 328 224 349 213 q 288 249 308 236 q 253 271 267 263 q 244 275 250 272 q 238 278 239 278 q 237 278 238 278 q 235 279 236 279 l 233 278 l 181 199 m 19 293 l 24 290 q 39 281 24 290 q 76 258 54 271 q 119 232 97 246 q 157 210 142 218 q 162 207 160 208 q 165 206 164 206 q 168 208 165 206 q 172 214 171 211 q 185 233 178 221 q 200 255 193 244 q 213 274 207 265 q 218 282 218 282 l 218 290 q 203 299 218 290 q 169 319 189 307 q 128 345 150 332 q 92 367 106 358 q 85 370 90 368 q 76 374 79 372 l 75 374 l 74 374 l 19 293 m 493 236 q 482 225 488 233 q 476 210 476 217 l 485 210 q 488 219 485 210 q 493 232 490 228 l 493 235 l 493 236 m 397 290 q 409 272 397 289 q 428 244 421 254 q 442 229 432 238 q 461 221 453 221 l 463 221 l 508 290 l 453 372 l 397 290 m 496 247 q 493 243 493 247 q 496 240 493 240 q 499 243 499 240 q 496 247 499 247 m -46 385 l 7 303 l 63 385 l 7 468 l -46 385 m 332 385 l 388 303 l 443 385 l 388 468 l 332 385 m -111 481 l -56 397 l 0 481 l -56 564 l -111 481 m 268 481 l 324 397 l 378 481 l 324 564 l 268 481 m -175 576 l -121 493 l -65 576 l -121 658 l -175 576 m 203 576 l 258 493 l 314 576 l 258 658 l 203 576 m -240 671 l -185 588 l -129 671 l -185 754 l -240 671 m 138 671 l 193 588 l 249 671 l 193 754 l 138 671 m -306 767 l -250 683 l -194 767 l -250 849 l -306 767 m 74 767 l 129 683 l 183 767 l 129 849 l 74 767 m 8 861 l 64 779 l 119 861 l 64 944 l 8 861 m -244 904 q -273 863 -262 892 q -290 815 -283 835 q -277 831 -285 819 q -262 854 -269 842 q -249 880 -254 867 q -244 901 -244 893 l -244 904 m -240 915 q -243 911 -243 915 q -240 907 -243 907 q -237 911 -237 907 q -240 915 -237 915 z "},"W":{"ha":794,"x_min":-318,"x_max":779,"o":"m 126 103 l 135 96 q 152 85 135 96 q 194 59 169 74 q 244 29 218 44 q 288 4 271 14 q 292 1 289 3 q 294 0 294 0 l 394 0 l 401 7 q 408 17 401 7 q 424 40 415 26 q 441 66 432 53 q 456 88 450 79 q 460 99 460 96 q 452 119 460 110 q 440 138 444 128 l 443 138 l 514 94 l 579 0 l 681 0 l 692 11 q 699 21 692 11 q 714 43 706 31 q 731 69 722 56 q 746 92 740 83 q 747 96 746 93 q 749 99 749 99 q 760 134 753 111 q 773 172 768 157 q 779 190 778 188 l 779 194 l 329 858 l 314 874 q 298 883 314 874 q 261 906 282 893 q 217 932 240 918 q 181 954 194 946 q 172 958 178 956 q 165 961 165 961 l 63 961 l 54 954 q 48 944 54 954 q 33 922 42 935 q 16 896 25 910 q 1 874 7 882 q -1 863 -1 865 q 1 851 -1 857 l 264 461 l 268 454 q 263 445 268 454 q 253 431 257 436 q 249 428 251 431 q 246 424 247 425 l 242 428 l -121 961 l -222 961 l -231 954 q -237 944 -231 954 q -251 922 -243 935 q -269 896 -260 910 q -283 874 -278 882 q -286 869 -285 872 q -287 867 -287 867 q -294 848 -289 861 q -303 820 -299 835 q -312 793 -308 806 q -318 775 -317 781 l -318 769 q -314 756 -318 761 l 126 103 m 440 92 l 440 88 q 435 79 440 88 q 422 60 429 71 q 408 38 415 50 q 394 19 400 26 q 386 11 392 11 l 314 11 l 314 15 q 319 24 314 15 q 331 42 324 32 q 347 65 339 53 q 360 83 354 76 q 368 92 361 92 l 440 92 m 650 92 l 726 92 l 726 88 q 721 79 726 88 q 708 60 715 71 q 694 38 701 50 q 681 19 686 26 q 672 11 678 11 l 596 11 l 650 92 m 150 103 l 203 183 l 206 183 l 207 183 q 215 179 210 182 q 222 175 219 176 q 258 154 236 167 q 299 129 279 142 q 334 108 319 117 q 349 99 349 99 l 349 92 q 343 83 349 92 q 331 64 338 75 q 316 42 324 53 q 303 22 308 31 q 299 18 301 21 q 294 15 296 15 q 292 17 294 15 q 288 19 289 18 q 249 42 272 28 q 206 68 226 56 q 169 90 185 81 q 154 99 154 99 l 150 103 m 528 99 l 583 182 l 639 99 l 583 17 l 528 99 m 421 168 q 408 182 414 174 q 401 199 401 190 l 401 203 q 406 217 403 207 q 413 237 410 226 q 420 257 417 247 q 425 271 424 267 q 426 275 425 272 q 428 279 428 278 q 436 275 431 278 q 443 271 442 272 q 479 249 457 263 q 521 224 501 236 q 555 203 540 213 q 569 194 569 194 l 569 188 q 564 179 569 188 q 551 160 558 171 q 537 137 544 149 q 524 118 529 125 l 517 111 q 513 113 515 111 q 508 114 511 114 q 492 124 504 117 q 465 141 479 132 q 438 158 450 150 q 421 168 425 165 m 81 194 l 136 278 l 192 194 l 136 111 l 81 194 m 436 144 q 439 140 439 144 q 436 138 439 138 q 433 140 433 138 q 436 144 433 144 m 17 290 l 72 374 l 126 290 l 72 207 l 17 290 m -47 385 l 7 468 l 63 385 l 7 303 l -47 385 m -112 481 l -57 564 l -1 481 l -57 397 l -112 481 m 257 408 q 268 428 257 419 l 268 425 l 268 424 q 265 412 267 421 q 261 400 263 403 q 257 408 257 401 m 425 415 q 428 411 428 415 q 425 408 428 408 q 422 411 422 408 q 425 415 422 415 m 375 444 q 379 456 375 449 q 386 465 383 463 q 387 466 386 465 q 389 467 388 467 l 390 465 l 424 415 l 417 415 q 402 424 417 415 q 379 439 388 433 q 375 443 375 439 l 375 444 m 272 439 q 275 435 275 439 q 272 431 275 431 q 269 435 269 431 q 272 439 269 439 m 294 485 l 292 485 q 283 478 289 483 q 276 469 278 472 l 268 481 l 324 564 l 379 481 q 373 472 379 481 q 364 458 367 463 l 360 454 l 358 454 q 342 459 350 454 q 327 469 335 464 q 311 480 319 475 q 294 485 303 485 m -176 576 l -122 660 l -67 576 l -122 493 l -176 576 m 203 576 l 258 660 l 314 576 l 258 493 l 203 576 m -242 672 l -186 754 l -131 672 l -186 589 l -242 672 m 139 672 l 194 754 l 249 672 l 194 589 l 139 672 m -307 767 l -251 850 l -196 767 l -251 683 l -307 767 m 74 767 l 129 850 l 185 767 l 129 683 l 74 767 m 8 863 l 64 946 l 119 863 l 64 779 l 8 863 m -246 904 l -246 903 q -251 881 -246 894 q -264 855 -257 868 q -278 831 -271 842 q -292 817 -286 821 q -274 864 -285 836 q -246 904 -262 892 m -242 915 q -239 911 -239 915 q -242 908 -239 908 q -244 911 -244 908 q -242 915 -244 915 z "},"X":{"ha":794,"x_min":-317,"x_max":779,"o":"m 69 197 l 69 203 l 126 382 l 64 476 l -251 668 l -260 675 q -266 685 -260 675 q -281 707 -272 694 q -298 733 -289 719 q -312 756 -307 747 q -316 763 -315 761 q -317 769 -317 764 l -317 775 q -311 793 -315 781 q -302 820 -307 806 q -292 848 -297 835 q -286 867 -287 861 q -285 869 -286 867 q -282 874 -283 872 q -267 896 -276 882 q -250 922 -258 910 q -235 944 -242 935 q -229 954 -229 954 l -221 961 l -119 961 l 6 775 l 50 775 q 40 790 47 779 q 26 813 33 800 q 11 836 18 825 q 1 851 4 847 q 0 863 0 857 q 1 874 0 868 q 16 896 7 882 q 33 922 25 910 q 48 944 42 935 q 54 954 54 954 l 63 961 l 165 961 q 172 958 165 961 q 181 954 178 956 q 217 932 194 946 q 261 906 240 918 q 298 883 282 893 q 314 874 314 874 l 329 858 l 392 765 l 333 583 l 333 581 q 338 568 333 574 q 358 538 344 557 q 380 504 371 518 q 390 489 389 490 l 711 296 l 779 194 l 779 190 q 773 172 778 188 q 760 134 768 157 q 749 99 753 111 q 747 96 749 99 q 746 92 746 93 q 731 69 740 83 q 714 43 722 56 q 699 21 706 31 q 692 11 692 11 l 681 0 l 579 0 l 451 188 l 406 188 q 422 160 410 181 q 444 125 435 140 q 458 108 457 110 q 460 99 460 106 q 456 88 460 96 q 441 66 450 79 q 424 40 432 53 q 408 17 415 26 q 401 7 401 7 l 394 0 l 294 0 q 292 1 294 0 q 288 4 289 3 q 244 29 271 14 q 194 59 218 44 q 152 85 169 74 q 135 96 135 96 l 126 103 q 120 113 126 103 q 106 135 114 122 q 88 161 97 147 q 74 183 79 175 q 69 197 69 189 m 440 92 l 368 92 q 360 83 361 92 q 347 65 354 76 q 331 42 339 53 q 319 24 324 32 q 314 15 314 15 l 314 11 l 386 11 q 394 19 392 11 q 408 38 400 26 q 422 60 415 50 q 435 79 429 71 q 440 88 440 88 l 440 92 m 650 92 l 596 11 l 672 11 q 681 19 678 11 q 694 38 686 26 q 708 60 701 50 q 721 79 715 71 q 726 88 726 88 l 726 92 l 650 92 m 150 103 l 154 99 q 169 90 154 99 q 206 68 185 81 q 249 42 226 56 q 288 19 272 28 q 292 17 289 18 q 294 15 294 15 q 299 18 296 15 q 303 22 301 21 q 316 42 308 31 q 331 64 324 53 q 343 83 338 75 q 349 92 349 92 l 349 99 q 334 108 349 99 q 299 129 319 117 q 258 154 279 142 q 222 175 236 167 q 215 179 219 176 q 207 183 210 182 l 206 183 l 203 183 l 150 103 m 528 99 l 583 17 l 639 99 l 583 182 l 528 99 m 81 194 l 136 111 l 192 194 l 136 278 l 81 194 m 463 194 l 518 111 l 574 194 l 518 278 l 463 194 m 386 219 q 388 210 386 217 q 394 203 389 203 l 447 203 q 456 210 451 203 q 469 228 461 217 q 483 251 476 240 q 496 271 490 263 q 501 279 501 279 l 501 282 l 425 282 l 386 225 l 386 219 m 340 282 q 356 259 344 276 q 371 236 368 242 q 374 235 372 236 q 375 233 375 233 l 408 282 l 340 282 m 142 332 q 114 292 125 319 q 96 244 103 264 q 110 259 101 249 q 125 283 118 269 q 138 309 132 296 q 143 331 143 322 l 142 332 m 172 428 q 144 388 156 415 q 126 340 133 360 q 140 355 132 344 q 156 378 149 365 q 168 403 163 390 q 174 425 174 417 q 173 427 174 426 q 172 428 172 428 m 146 343 q 143 339 143 343 q 146 336 143 336 q 149 339 149 336 q 146 343 149 343 m 78 481 l 133 397 l 188 481 l 133 564 l 78 481 m 176 439 q 174 435 174 439 q 176 431 174 431 q 179 435 179 431 q 176 439 179 439 m -76 581 l -72 576 q -57 567 -72 576 q -21 544 -42 557 q 22 518 0 532 q 58 496 44 504 q 63 493 60 494 q 65 492 65 492 q 69 495 67 493 q 74 500 72 497 q 92 526 81 510 q 110 555 103 543 q 119 568 118 567 l 119 576 q 105 585 119 576 q 70 606 90 594 q 29 631 50 618 q -4 653 8 644 q -11 657 -6 654 q -19 660 -17 660 l -21 660 l -22 660 l -76 581 m -236 675 l -233 672 q -218 663 -233 672 q -181 640 -203 653 q -137 614 -160 628 q -99 592 -114 600 q -94 589 -97 590 q -92 588 -92 588 q -83 596 -86 588 q -71 615 -79 603 q -56 637 -62 626 q -43 656 -49 647 q -37 664 -37 664 l -37 672 q -52 681 -37 672 q -87 701 -67 689 q -128 726 -107 714 q -164 747 -150 739 q -172 751 -167 749 q -179 756 -176 754 l -182 756 l -183 756 l -236 675 m -306 767 l -250 683 l -194 767 l -250 850 l -306 767 m 79 775 l 179 775 l 129 850 l 79 775 m 8 863 l 64 779 l 119 863 l 64 946 l 8 863 m -244 904 q -272 864 -261 892 q -290 817 -283 836 q -277 831 -285 821 q -262 855 -269 842 q -250 881 -256 868 q -244 903 -244 894 l -244 904 m -240 915 q -243 911 -243 915 q -240 908 -243 908 q -237 911 -237 908 q -240 915 -237 915 z "},"Y":{"ha":808,"x_min":-317,"x_max":649,"o":"m 388 0 l 193 285 l -126 479 l -312 756 q -317 768 -317 761 l -317 774 q -311 792 -315 779 q -302 819 -307 804 q -292 847 -297 833 q -286 865 -287 860 q -282 874 -286 869 q -267 895 -276 882 q -250 922 -258 908 q -235 944 -242 935 q -229 953 -229 953 l -221 961 l -119 961 l 135 583 l 181 583 l 1 850 q 0 861 0 856 q 1 874 0 868 q 15 895 7 882 q 32 922 24 908 q 47 944 40 935 q 54 953 54 953 l 63 961 l 165 961 q 172 958 165 961 q 181 953 178 956 q 217 931 194 944 q 261 905 240 918 q 298 883 282 892 q 314 874 314 874 l 329 858 l 521 575 l 463 393 l 463 389 q 463 386 463 389 q 465 378 464 383 l 646 111 q 649 99 649 97 q 648 96 649 99 q 646 88 647 93 q 631 66 640 79 q 614 40 622 53 q 599 17 606 26 q 592 7 592 7 l 585 0 l 388 0 m 458 92 l 406 11 l 481 11 q 489 19 486 11 q 502 38 494 26 q 517 60 510 50 q 529 79 524 71 q 535 88 535 88 l 535 92 l 458 92 m 554 92 l 500 11 l 576 11 l 585 19 q 597 38 589 26 q 613 60 606 50 q 625 79 619 71 q 631 88 631 88 l 631 92 l 554 92 m 336 99 l 392 17 l 447 99 l 392 182 l 336 99 m 271 194 l 326 111 l 382 194 l 326 278 l 271 194 m 207 290 l 263 207 l 317 290 l 263 372 l 207 290 m 50 389 l 54 385 q 69 376 54 385 q 106 354 85 367 q 150 328 128 342 q 188 306 172 314 q 192 303 190 304 q 196 301 194 301 l 203 308 q 216 327 208 315 q 231 350 224 339 q 243 369 238 361 q 249 378 249 378 l 249 385 q 234 394 249 385 q 200 415 219 403 q 158 440 181 428 q 122 461 136 453 q 115 465 121 463 q 107 469 110 468 l 106 469 l 104 469 l 50 389 m -107 485 l -103 481 q -87 471 -103 481 q -51 449 -72 461 q -9 422 -31 436 q 28 400 13 408 q 32 397 29 399 q 35 396 35 396 q 39 399 36 397 q 43 404 42 401 q 61 431 50 414 q 80 459 72 447 q 89 472 88 471 l 89 481 q 74 490 89 481 q 40 510 60 499 q -1 535 19 522 q -35 557 -22 549 q -42 561 -37 558 q -50 564 -47 564 l -51 564 l -54 564 l -107 485 m -175 576 l -121 493 l -65 576 l -121 658 l -175 576 m 208 583 l 308 583 l 258 658 l 208 583 m -240 671 l -185 588 l -129 671 l -185 754 l -240 671 m 138 671 l 193 588 l 249 671 l 193 754 l 138 671 m -306 767 l -250 683 l -194 767 l -250 849 l -306 767 m 74 767 l 129 683 l 183 767 l 129 849 l 74 767 m 8 861 l 64 779 l 119 861 l 64 944 l 8 861 m -244 904 q -273 863 -262 892 q -290 815 -283 835 q -277 831 -285 819 q -262 854 -269 842 q -249 880 -254 867 q -244 901 -244 893 l -244 904 m -240 915 q -243 911 -243 915 q -240 907 -243 907 q -237 911 -237 907 q -240 915 -237 915 z "},"Z":{"ha":835,"x_min":-358,"x_max":863,"o":"m 150 103 l 32 278 q 28 285 29 283 q 28 292 28 288 l 28 297 l 146 667 l 85 761 l -293 761 l -301 771 q -308 781 -301 771 q -324 803 -315 790 q -340 828 -332 815 q -354 850 -349 842 q -358 861 -358 856 q -354 874 -358 867 q -340 895 -349 882 q -322 922 -331 908 q -308 944 -314 935 q -301 953 -301 953 l -293 961 l 188 961 q 194 958 189 961 q 203 953 200 956 q 240 931 217 944 q 284 905 263 918 q 321 883 306 892 q 336 874 336 874 l 351 858 l 479 669 l 360 297 l 360 293 q 364 282 360 288 q 378 258 369 272 q 396 232 388 244 q 410 210 404 219 q 417 200 417 200 l 799 200 l 806 190 q 813 181 806 190 q 828 158 819 171 q 845 133 836 146 q 860 111 854 119 q 863 99 863 97 q 862 96 863 99 q 860 88 861 93 q 845 66 854 79 q 828 40 836 53 q 813 17 819 26 q 806 7 806 7 l 799 0 l 318 0 q 315 1 317 0 q 310 4 313 3 q 267 29 293 14 q 217 59 242 44 q 175 85 193 74 q 157 96 157 96 l 150 103 m 463 92 l 390 92 q 382 83 383 92 q 369 65 376 76 q 353 42 361 53 q 341 24 346 32 q 336 15 336 15 l 336 11 l 410 11 q 413 14 410 11 q 417 19 415 17 q 430 38 422 26 q 444 60 438 50 q 457 79 451 71 q 463 88 463 88 l 463 92 m 482 92 l 428 11 l 504 11 q 513 19 510 11 q 526 38 518 26 q 540 60 533 50 q 553 79 547 71 q 558 88 558 88 l 558 92 l 482 92 m 576 92 l 524 11 l 600 11 q 603 14 600 11 q 607 19 606 17 q 620 38 613 26 q 635 60 628 50 q 647 79 642 71 q 653 88 653 88 l 653 92 l 576 92 m 672 92 l 619 11 l 694 11 q 703 19 700 11 q 716 38 708 26 q 731 60 724 50 q 743 79 738 71 q 749 88 749 88 l 749 92 l 672 92 m 768 92 l 714 11 l 790 11 l 799 19 q 811 38 803 26 q 826 60 819 50 q 839 79 833 71 q 844 88 844 88 l 844 92 l 768 92 m 172 103 l 176 99 q 192 90 176 99 q 228 68 207 81 q 272 42 250 56 q 310 19 294 28 q 315 17 313 18 q 318 15 317 15 l 325 22 q 338 42 331 31 q 353 64 346 53 q 365 83 360 75 q 371 92 371 92 l 371 99 q 356 108 371 99 q 322 129 342 117 q 281 154 301 142 q 246 175 260 167 q 238 179 243 176 q 231 183 232 182 l 228 183 l 226 183 l 172 103 m 104 194 l 160 111 l 215 194 l 160 278 l 104 194 m 39 290 l 94 207 l 150 290 l 94 372 l 39 290 m 100 426 q 72 387 83 415 q 54 339 61 358 q 67 354 60 343 q 83 378 75 365 q 95 403 90 390 q 100 425 100 417 l 100 426 m 131 522 q 102 482 113 510 q 85 435 92 454 q 98 449 90 439 q 113 473 106 460 q 125 499 119 486 q 131 521 131 513 l 131 522 m 104 439 q 101 435 101 439 q 104 431 101 431 q 107 435 107 431 q 104 439 107 439 m 161 618 q 132 578 143 606 q 115 531 121 550 q 128 545 121 535 q 144 568 136 556 q 156 594 151 581 q 161 615 161 607 l 161 618 m 135 533 q 132 529 132 533 q 135 526 132 526 q 138 529 138 526 q 135 533 138 533 m 192 713 q 163 673 174 701 q 146 625 151 644 q 159 640 151 629 q 174 663 167 650 q 186 690 181 676 q 192 711 192 703 l 192 713 m 165 629 q 163 625 163 629 q 165 621 163 621 q 168 625 168 621 q 165 629 168 629 m 96 767 l 151 683 l 207 767 l 151 850 l 96 767 m 196 725 q 193 721 193 725 q 196 717 193 717 q 199 721 199 717 q 196 725 199 725 m -225 854 l -278 774 l -201 774 q -199 776 -201 774 q -194 782 -196 779 q -176 808 -187 792 q -158 837 -165 825 q -149 850 -150 849 l -149 854 l -225 854 m -129 854 l -183 774 l -107 774 q -99 782 -101 774 q -81 808 -92 792 q -62 837 -69 825 q -53 850 -54 849 l -53 854 l -129 854 m -35 854 l -87 774 l -11 774 q -8 776 -11 774 q -4 782 -6 779 q 11 808 0 792 q 30 837 22 825 q 39 850 38 849 l 39 854 l -35 854 m 58 854 l 6 774 l 81 774 q 89 782 86 774 q 107 808 96 792 q 126 837 118 825 q 135 850 133 849 l 135 854 l 58 854 m -347 861 l -292 779 l -236 861 l -292 944 l -347 861 z "},"a":{"ha":824,"x_min":-46,"x_max":851,"o":"m 139 103 l -42 374 q -45 381 -44 379 q -46 388 -46 382 l -46 393 q -40 411 -44 399 q -31 438 -36 424 q -22 466 -26 453 q -15 485 -17 479 q -14 489 -15 486 q -11 492 -12 492 q 1 514 -7 500 q 18 540 10 528 q 33 563 26 553 q 39 572 39 572 l 47 581 l 436 581 q 442 578 436 581 q 451 572 449 575 q 488 550 465 564 q 532 524 511 536 q 569 501 553 511 q 585 492 585 492 l 600 476 l 849 111 q 851 99 851 97 q 851 96 851 99 q 849 88 850 93 q 834 66 843 79 q 817 40 825 53 q 801 17 808 26 q 794 7 794 7 l 788 0 l 683 0 l 635 42 l 632 42 l 631 42 q 622 32 626 39 q 612 18 617 25 q 603 6 607 11 q 596 0 599 0 l 306 0 q 303 1 306 0 q 299 4 300 3 q 256 29 282 14 q 205 59 229 44 q 163 85 181 74 q 146 96 146 96 l 139 103 m 451 92 l 379 92 q 371 83 372 92 q 358 65 365 76 q 342 42 350 53 q 330 24 335 32 q 325 15 325 15 l 325 11 l 397 11 q 406 19 403 11 q 419 38 411 26 q 433 60 426 50 q 446 79 440 71 q 451 88 451 88 l 451 92 m 471 92 l 417 11 l 493 11 l 501 19 q 514 38 506 26 q 529 60 522 50 q 542 79 536 71 q 547 88 547 88 l 547 92 l 471 92 m 565 92 l 513 11 l 589 11 q 592 14 589 11 q 596 19 594 17 q 609 38 601 26 q 624 60 617 50 q 636 79 631 71 q 642 88 642 88 l 642 92 l 565 92 m 757 92 l 703 11 l 779 11 l 788 19 q 800 38 792 26 q 815 60 808 50 q 828 79 822 71 q 833 88 833 88 l 833 92 l 757 92 m 161 103 l 165 99 q 181 90 165 99 q 217 68 196 81 q 261 42 239 56 q 299 19 283 28 q 303 17 300 18 q 306 15 306 15 q 310 18 307 15 q 314 22 313 21 q 327 42 319 31 q 342 64 335 53 q 354 83 349 75 q 360 92 360 92 l 360 99 q 345 108 360 99 q 310 129 331 117 q 269 154 290 142 q 233 175 247 167 q 226 179 232 176 q 218 183 221 182 l 217 183 l 215 183 l 161 103 m 638 57 q 688 15 660 33 l 742 96 l 742 97 l 742 99 l 733 107 q 717 121 729 111 q 693 141 706 131 q 669 161 681 151 q 653 175 657 171 l 653 165 q 657 133 653 150 q 661 101 661 117 q 651 76 661 90 q 638 57 642 63 m 93 194 l 147 111 l 203 194 l 147 278 l 93 194 m 288 378 l 406 203 l 451 203 l 333 378 l 288 378 m 504 236 q 491 221 497 231 q 482 203 485 211 q 488 201 482 201 q 501 215 497 201 q 504 235 504 229 l 504 236 m 28 290 l 83 207 l 139 290 l 83 374 l 28 290 m 410 290 l 464 207 l 519 290 l 464 374 l 410 290 m 508 249 q 506 244 506 249 q 508 240 506 240 q 511 244 511 240 q 508 249 511 249 m -35 385 l 18 303 l 74 385 l 18 468 l -35 385 m 344 385 l 400 303 l 456 385 l 400 468 l 344 385 m 268 411 q 269 400 268 407 q 275 393 271 393 l 329 393 l 336 400 q 349 419 342 408 q 364 442 357 431 q 376 461 371 453 q 382 469 382 469 l 382 474 l 306 474 l 268 415 l 268 411 m 222 474 q 238 451 225 468 q 253 428 250 433 q 257 424 253 424 l 290 474 l 222 474 m 24 522 q -3 483 6 511 q -19 435 -12 454 q -7 449 -14 439 q 7 473 0 460 q 19 499 14 486 q 24 521 24 513 l 24 522 m 28 535 q 25 531 25 535 q 28 526 25 526 q 31 531 31 526 q 28 535 31 535 z "},"b":{"ha":794,"x_min":-317,"x_max":779,"o":"m 126 103 l -312 756 q -317 769 -317 761 l -317 775 q -311 793 -315 781 q -302 820 -307 806 q -292 848 -297 835 q -286 867 -287 861 q -285 869 -286 867 q -282 874 -283 872 q -267 896 -276 882 q -250 922 -258 910 q -235 944 -242 935 q -229 954 -229 954 l -221 961 l -119 961 l 135 582 l 425 582 l 574 492 l 589 476 l 779 194 l 779 190 q 773 172 778 188 q 760 134 768 157 q 749 99 753 111 q 747 96 749 99 q 746 92 746 93 q 731 69 740 83 q 714 43 722 56 q 699 21 706 31 q 692 11 692 11 l 681 0 l 294 0 q 292 1 294 0 q 288 4 289 3 q 244 29 271 14 q 194 59 218 44 q 152 85 169 74 q 135 96 135 96 l 126 103 m 440 92 l 368 92 q 360 83 361 92 q 347 65 354 76 q 331 42 339 53 q 319 24 324 32 q 314 15 314 15 l 314 11 l 386 11 q 394 19 392 11 q 408 38 400 26 q 422 60 415 50 q 435 79 429 71 q 440 88 440 88 l 440 92 m 458 92 l 406 11 l 482 11 q 485 14 482 11 q 489 19 488 17 q 502 38 494 26 q 517 60 510 50 q 529 79 524 71 q 535 88 535 88 l 535 92 l 458 92 m 554 92 l 501 11 l 578 11 q 581 14 578 11 q 585 19 583 17 q 598 38 590 26 q 613 60 606 50 q 625 79 619 71 q 631 88 631 88 l 631 92 l 554 92 m 650 92 l 596 11 l 672 11 q 681 19 678 11 q 694 38 686 26 q 708 60 701 50 q 721 79 715 71 q 726 88 726 88 l 726 92 l 650 92 m 150 103 l 154 99 q 169 90 154 99 q 206 68 185 81 q 249 42 226 56 q 288 19 272 28 q 292 17 289 18 q 294 15 294 15 q 299 18 296 15 q 303 22 301 21 q 316 42 308 31 q 331 64 324 53 q 343 83 338 75 q 349 92 349 92 l 349 99 q 334 108 349 99 q 299 129 319 117 q 258 154 279 142 q 222 175 236 167 q 215 179 219 176 q 207 183 210 182 l 206 183 l 203 183 l 150 103 m 81 194 l 136 111 l 192 194 l 136 278 l 81 194 m 276 378 l 394 203 l 440 203 l 322 378 l 276 378 m 468 203 l 568 203 l 518 278 l 468 203 m 17 290 l 72 207 l 126 290 l 72 374 l 17 290 m 399 290 l 453 207 l 508 290 l 453 374 l 399 290 m -46 385 l 7 303 l 63 385 l 7 468 l -46 385 m 333 385 l 389 303 l 443 385 l 389 468 l 333 385 m 256 411 q 258 400 256 407 q 264 393 260 393 l 318 393 l 325 400 q 338 419 331 408 q 353 442 346 431 q 365 461 360 453 q 371 469 371 469 l 371 474 l 294 474 l 257 415 q 256 414 257 415 q 256 411 256 413 m -111 481 l -56 397 l 0 481 l -56 564 l -111 481 m 211 474 q 226 451 214 468 q 242 428 238 433 q 246 424 242 424 l 278 474 l 211 474 m -175 576 l -121 493 l -65 576 l -121 660 l -175 576 m -240 672 l -185 589 l -129 672 l -185 754 l -240 672 m -306 767 l -250 683 l -194 767 l -250 850 l -306 767 m -244 904 q -272 864 -261 892 q -290 817 -283 836 q -277 831 -285 821 q -262 855 -269 842 q -250 881 -256 868 q -244 903 -244 894 l -244 904 m -240 915 q -243 911 -243 915 q -240 908 -243 908 q -237 911 -237 908 q -240 915 -237 915 z "},"c":{"ha":824,"x_min":-46,"x_max":851,"o":"m 139 103 l -42 374 q -45 381 -44 379 q -46 388 -46 382 l -46 393 q -40 411 -44 399 q -31 438 -36 424 q -22 466 -26 453 q -15 485 -17 479 q -14 489 -15 486 q -11 492 -12 492 q 1 514 -7 500 q 18 540 10 528 q 33 563 26 553 q 39 572 39 572 l 47 581 l 528 581 l 535 572 q 542 563 535 572 q 557 540 549 553 q 574 514 565 528 q 589 492 583 500 q 593 481 593 485 q 589 469 593 475 q 574 448 583 461 q 557 422 565 435 q 542 400 549 410 q 535 389 536 390 l 528 379 l 288 379 l 406 200 l 788 200 l 794 190 q 801 181 794 190 q 817 158 808 171 q 834 133 825 146 q 849 111 843 119 q 851 99 851 97 q 851 96 851 99 q 849 88 850 93 q 834 66 843 79 q 817 40 825 53 q 801 17 808 26 q 794 7 794 7 l 788 0 l 306 0 q 303 1 306 0 q 299 4 300 3 q 256 29 282 14 q 205 59 229 44 q 163 85 181 74 q 146 96 146 96 l 139 103 m 451 92 l 379 92 q 371 83 372 92 q 358 65 365 76 q 342 42 350 53 q 330 24 335 32 q 325 15 325 15 l 325 11 l 397 11 q 406 19 403 11 q 419 38 411 26 q 433 60 426 50 q 446 79 440 71 q 451 88 451 88 l 451 92 m 471 92 l 417 11 l 493 11 l 501 19 q 514 38 506 26 q 529 60 522 50 q 542 79 536 71 q 547 88 547 88 l 547 92 l 471 92 m 565 92 l 513 11 l 589 11 q 592 14 589 11 q 596 19 594 17 q 609 38 601 26 q 624 60 617 50 q 636 79 631 71 q 642 88 642 88 l 642 92 l 565 92 m 661 92 l 607 11 l 683 11 q 692 19 689 11 q 705 38 697 26 q 719 60 713 50 q 732 79 726 71 q 738 88 738 88 l 738 92 l 661 92 m 757 92 l 703 11 l 779 11 l 788 19 q 800 38 792 26 q 815 60 808 50 q 828 79 822 71 q 833 88 833 88 l 833 92 l 757 92 m 161 103 l 165 99 q 181 90 165 99 q 217 68 196 81 q 261 42 239 56 q 299 19 283 28 q 303 17 300 18 q 306 15 306 15 q 310 18 307 15 q 314 22 313 21 q 327 42 319 31 q 342 64 335 53 q 354 83 349 75 q 360 92 360 92 l 360 99 q 345 108 360 99 q 310 129 331 117 q 269 154 290 142 q 233 175 247 167 q 226 179 232 176 q 218 183 221 182 l 217 183 l 215 183 l 161 103 m 93 194 l 147 111 l 203 194 l 147 278 l 93 194 m 28 290 l 83 207 l 139 290 l 83 374 l 28 290 m -35 385 l 18 303 l 74 385 l 18 468 l -35 385 m 268 411 q 269 400 268 407 q 275 393 271 393 l 329 393 l 336 400 q 349 419 342 408 q 364 442 357 431 q 376 461 371 453 q 382 469 382 469 l 382 474 l 306 474 l 268 415 l 268 411 m 401 474 l 349 393 l 425 393 l 432 400 q 445 419 438 408 q 460 442 453 431 q 472 461 467 453 q 478 469 478 469 l 478 474 l 401 474 m 497 474 l 443 393 l 519 393 q 524 396 521 393 q 528 400 526 399 q 541 419 533 408 q 556 442 549 431 q 568 461 563 453 q 574 469 574 469 l 574 474 l 497 474 m 222 474 q 238 451 225 468 q 253 428 250 433 q 257 424 253 424 l 290 474 l 222 474 m 24 522 q -3 483 6 511 q -19 435 -12 454 q -7 449 -14 439 q 7 473 0 460 q 19 499 14 486 q 24 521 24 513 l 24 522 m 28 535 q 25 531 25 535 q 28 526 25 526 q 31 531 31 526 q 28 535 31 535 z "},"d":{"ha":806,"x_min":-47,"x_max":790,"o":"m 139 103 l 146 96 q 163 85 146 96 q 205 59 181 74 q 256 29 229 44 q 299 4 282 14 q 303 1 300 3 q 306 0 306 0 l 692 0 l 703 11 q 710 21 703 11 q 725 43 717 31 q 742 69 733 56 q 757 92 751 83 q 758 96 757 93 q 760 99 760 99 q 772 134 764 111 q 784 172 779 157 q 790 190 789 188 l 790 194 l 340 858 l 325 874 q 309 883 325 874 q 272 906 293 893 q 228 932 251 918 q 192 954 206 946 q 183 958 189 956 q 176 961 178 961 l 74 961 l 65 954 q 59 944 65 954 q 44 922 53 935 q 27 896 36 910 q 13 874 18 882 q 8 863 8 867 q 13 850 8 856 l 192 582 l 47 582 l 39 572 q 33 561 39 571 q 18 539 26 551 q 1 513 10 526 q -12 492 -7 500 q -17 485 -17 488 q -23 466 -18 479 q -33 438 -28 453 q -42 411 -37 424 q -47 393 -46 399 l -47 388 q -47 381 -47 382 q -43 374 -46 379 l 139 103 m 451 92 l 451 88 q 446 79 451 88 q 433 60 440 71 q 419 38 426 50 q 406 19 411 26 q 397 11 403 11 l 325 11 l 325 15 q 330 24 325 15 q 342 42 335 32 q 358 65 350 53 q 371 83 365 76 q 379 92 372 92 l 451 92 m 471 92 l 546 92 l 546 88 q 541 79 546 88 q 528 60 536 71 q 513 38 521 50 q 501 19 506 26 l 493 11 l 417 11 l 471 92 m 565 92 l 642 92 l 642 88 q 636 79 642 88 q 624 60 631 71 q 609 38 617 50 q 596 19 601 26 q 592 14 594 17 q 589 11 589 11 l 513 11 l 565 92 m 661 92 l 738 92 l 738 88 q 732 79 738 88 q 719 60 726 71 q 705 38 713 50 q 692 19 697 26 q 683 11 689 11 l 607 11 l 661 92 m 161 103 l 215 183 l 217 183 l 218 183 q 226 179 221 182 q 233 175 232 176 q 269 154 247 167 q 310 129 290 142 q 345 108 331 117 q 360 99 360 99 l 360 92 q 354 83 360 92 q 342 64 349 75 q 327 42 335 53 q 314 22 319 31 q 310 18 313 21 q 306 15 307 15 q 303 17 306 15 q 299 19 300 18 q 260 42 283 28 q 217 68 238 56 q 181 90 196 81 q 165 99 165 99 l 161 103 m 93 194 l 147 278 l 203 194 l 147 111 l 93 194 m 288 378 l 333 378 l 451 203 l 406 203 l 288 378 m 479 203 l 529 278 l 579 203 l 479 203 m 28 290 l 83 372 l 139 290 l 83 207 l 28 290 m 410 290 l 464 372 l 519 290 l 464 207 l 410 290 m -36 385 l 18 468 l 74 385 l 18 303 l -36 385 m 344 385 l 400 468 l 456 385 l 400 303 l 344 385 m 268 411 l 268 415 l 306 474 l 382 474 l 382 469 q 376 461 382 469 q 364 442 371 453 q 349 419 357 431 q 336 400 342 408 l 329 393 l 275 393 q 269 400 271 393 q 268 411 268 407 m 222 474 l 290 474 l 257 424 q 253 428 253 424 q 238 451 250 433 q 222 474 225 468 m 24 522 l 24 521 q 19 499 24 513 q 7 473 14 486 q -8 449 0 460 q -21 435 -15 439 q -4 483 -14 454 q 24 522 6 511 m 28 535 q 31 531 31 535 q 28 526 31 526 q 25 531 25 526 q 28 535 25 535 m 219 583 l 269 658 l 321 583 l 219 583 m 150 671 l 206 754 l 260 671 l 206 589 l 150 671 m 85 767 l 140 850 l 196 767 l 140 683 l 85 767 m 19 863 l 75 944 l 131 863 l 75 779 l 19 863 z "},"e":{"ha":824,"x_min":-46,"x_max":851,"o":"m 139 103 l -42 374 q -45 381 -44 379 q -46 388 -46 382 l -46 393 q -40 411 -44 399 q -31 438 -36 424 q -22 466 -26 453 q -15 485 -17 479 q -14 489 -15 486 q -11 492 -12 492 q 1 514 -7 500 q 18 540 10 528 q 33 563 26 553 q 39 572 39 572 l 47 581 l 436 581 q 442 578 436 581 q 451 572 449 575 q 488 550 465 564 q 532 524 511 536 q 569 501 553 511 q 585 492 585 492 l 600 476 l 718 301 q 722 290 722 294 q 718 279 722 285 q 708 264 715 275 q 693 240 701 253 q 678 215 685 226 q 668 200 671 204 l 788 200 l 794 190 q 801 181 794 190 q 817 158 808 171 q 834 133 825 146 q 849 111 843 119 q 851 99 851 97 q 851 96 851 99 q 849 88 850 93 q 834 66 843 79 q 817 40 825 53 q 801 17 808 26 q 794 7 794 7 l 788 0 l 306 0 q 303 1 306 0 q 299 4 300 3 q 256 29 282 14 q 205 59 229 44 q 163 85 181 74 q 146 96 146 96 l 139 103 m 451 92 l 379 92 q 371 83 372 92 q 358 65 365 76 q 342 42 350 53 q 330 24 335 32 q 325 15 325 15 l 325 11 l 397 11 q 406 19 403 11 q 419 38 411 26 q 433 60 426 50 q 446 79 440 71 q 451 88 451 88 l 451 92 m 471 92 l 417 11 l 493 11 l 501 19 q 514 38 506 26 q 529 60 522 50 q 542 79 536 71 q 547 88 547 88 l 547 92 l 471 92 m 565 92 l 513 11 l 589 11 q 592 14 589 11 q 596 19 594 17 q 609 38 601 26 q 624 60 617 50 q 636 79 631 71 q 642 88 642 88 l 642 92 l 565 92 m 661 92 l 607 11 l 683 11 q 692 19 689 11 q 705 38 697 26 q 719 60 713 50 q 732 79 726 71 q 738 88 738 88 l 738 92 l 661 92 m 757 92 l 703 11 l 779 11 l 788 19 q 800 38 792 26 q 815 60 808 50 q 828 79 822 71 q 833 88 833 88 l 833 92 l 757 92 m 161 103 l 165 99 q 181 90 165 99 q 217 68 196 81 q 261 42 239 56 q 299 19 283 28 q 303 17 300 18 q 306 15 306 15 q 310 18 307 15 q 314 22 313 21 q 327 42 319 31 q 342 64 335 53 q 354 83 349 75 q 360 92 360 92 l 360 99 q 345 108 360 99 q 310 129 331 117 q 269 154 290 142 q 233 175 247 167 q 226 179 232 176 q 218 183 221 182 l 217 183 l 215 183 l 161 103 m 93 194 l 147 111 l 203 194 l 147 278 l 93 194 m 397 219 q 399 210 397 217 q 406 203 400 203 l 458 203 q 467 210 463 203 q 480 228 472 217 q 494 251 488 240 q 507 271 501 263 q 513 279 513 279 l 513 282 l 436 282 l 397 225 l 397 219 m 532 282 l 478 203 l 554 203 q 557 205 554 203 q 561 210 560 207 q 574 228 567 217 q 589 251 582 240 q 601 271 596 263 q 607 279 607 279 l 607 282 l 532 282 m 626 282 l 574 203 l 650 203 q 653 205 650 203 q 657 210 656 207 q 670 228 663 217 q 685 251 678 240 q 697 271 692 263 q 703 279 703 279 l 703 282 l 626 282 m 28 290 l 83 207 l 139 290 l 83 374 l 28 290 m 351 282 q 367 259 356 276 q 382 236 379 242 q 385 235 383 236 q 386 233 386 233 l 419 282 l 351 282 m -35 385 l 18 303 l 74 385 l 18 468 l -35 385 m 268 411 q 269 400 268 407 q 275 393 271 393 l 329 393 l 336 400 q 349 419 342 408 q 364 442 357 431 q 376 461 371 453 q 382 469 382 469 l 382 474 l 306 474 l 268 415 l 268 411 m 350 393 l 450 393 l 400 468 l 350 393 m 222 474 q 238 451 225 468 q 253 428 250 433 q 257 424 253 424 l 290 474 l 222 474 m 24 522 q -3 483 6 511 q -19 435 -12 454 q -7 449 -14 439 q 7 473 0 460 q 19 499 14 486 q 24 521 24 513 l 24 522 m 28 535 q 25 531 25 535 q 28 526 25 526 q 31 531 31 526 q 28 535 31 535 z "},"f":{"ha":688,"x_min":-206,"x_max":569,"o":"m 238 103 l 51 379 l -42 379 l -49 389 q -56 400 -50 390 q -71 422 -62 410 q -88 448 -79 435 q -103 469 -97 461 q -107 481 -107 475 q -103 492 -107 485 q -87 517 -100 499 q -68 546 -75 536 l -68 557 l -201 756 q -206 768 -206 761 l -206 775 q -200 792 -204 779 q -190 820 -196 806 q -181 848 -185 835 q -175 865 -176 861 q -171 874 -175 869 q -151 903 -164 883 q -128 938 -137 924 q -118 954 -119 951 l -110 961 l 176 961 l 185 954 q 192 944 185 954 q 207 922 199 935 q 224 895 215 908 q 238 874 232 882 q 242 863 242 867 q 238 850 242 856 q 224 828 232 842 q 207 803 215 815 q 192 781 199 790 q 185 771 185 771 l 176 761 l 128 761 l 246 582 l 340 582 l 349 572 q 355 561 349 571 q 369 539 361 551 q 387 513 378 526 q 401 492 396 500 q 406 481 406 485 q 401 469 406 475 q 395 459 400 467 q 385 442 390 451 q 374 426 379 433 q 368 415 369 418 l 368 404 l 567 111 q 569 99 569 97 q 569 96 569 99 q 567 88 568 93 q 552 66 561 79 q 535 40 543 53 q 519 17 526 26 q 513 7 513 7 l 506 0 l 406 0 q 403 1 406 0 q 399 4 400 3 q 356 29 382 14 q 305 59 329 44 q 263 85 281 74 q 246 96 246 96 l 238 103 m 551 92 l 478 92 q 475 89 478 92 q 471 83 472 86 q 458 65 465 76 q 442 42 450 53 q 430 24 435 32 q 425 15 425 15 l 425 11 l 497 11 l 506 19 q 518 38 510 26 q 533 60 526 50 q 546 79 540 71 q 551 88 551 88 l 551 92 m 261 103 l 265 99 q 281 90 265 99 q 317 68 296 81 q 360 42 338 56 q 399 19 383 28 q 403 17 400 18 q 406 15 406 15 q 410 18 407 15 q 414 22 413 21 q 427 42 419 31 q 442 64 435 53 q 454 83 449 75 q 460 92 460 92 l 460 99 q 445 108 460 99 q 410 129 431 117 q 369 154 390 142 q 333 175 347 167 q 326 179 331 176 q 318 183 321 182 l 315 183 l 314 183 l 261 103 m 192 194 l 247 111 l 303 194 l 247 278 l 192 194 m 128 290 l 183 207 l 238 290 l 183 372 l 128 290 m 63 385 l 118 303 l 174 385 l 118 468 l 63 385 m 25 474 l -26 393 l 47 393 l 54 400 q 67 419 60 407 q 82 442 75 431 q 94 461 89 453 q 100 469 100 469 l 100 474 l 25 474 m -94 481 l -40 397 l 13 481 l -40 564 l -94 481 m 322 474 q 328 464 324 471 q 337 449 332 457 q 346 435 342 442 q 353 428 350 429 q 354 425 353 426 q 356 424 356 424 l 389 474 l 322 474 m -64 576 l -57 564 l -42 582 l 36 582 l 36 588 l -10 658 l -64 576 m -129 671 l -74 589 l -18 671 l -74 754 l -129 671 m -194 767 l -139 683 l -83 767 l -139 850 l -194 767 m 108 792 q 110 782 108 789 q 115 775 111 775 l 169 775 q 172 777 169 775 q 176 782 175 779 q 194 808 183 792 q 213 837 206 825 q 222 850 221 849 l 222 854 l 146 854 l 108 797 l 108 792 m 63 854 q 78 831 65 849 q 93 808 90 814 l 97 804 l 131 854 l 63 854 m -133 904 q -162 864 -151 892 q -179 817 -172 836 q -166 831 -174 821 q -151 855 -158 842 q -139 881 -144 868 q -133 903 -133 894 l -133 904 m -129 915 q -132 911 -132 915 q -129 908 -132 908 q -126 911 -126 908 q -129 915 -126 915 z "},"g":{"ha":815,"x_min":-46,"x_max":919,"o":"m 275 -87 q 276 -78 275 -81 q 289 -60 278 -76 q 312 -26 299 -46 q 329 0 325 -6 q 299 4 308 0 q 256 29 282 14 q 205 59 229 44 q 163 85 181 74 q 146 96 146 96 l 139 103 l -42 374 q -45 381 -44 379 q -46 388 -46 382 l -46 393 q -40 411 -44 399 q -31 438 -36 424 q -22 466 -26 453 q -15 485 -17 479 q -14 489 -15 486 q -11 492 -12 492 q 1 514 -7 500 q 18 540 10 528 q 33 563 26 553 q 39 572 39 572 l 47 581 l 436 581 q 442 578 436 581 q 451 572 449 575 q 488 550 465 564 q 532 524 511 536 q 569 501 553 511 q 585 492 585 492 l 600 476 l 919 4 l 919 0 q 913 -16 918 -3 q 901 -51 908 -29 q 889 -87 893 -72 q 888 -90 889 -87 q 886 -94 886 -93 q 872 -117 881 -103 q 854 -143 863 -131 q 839 -165 846 -156 q 832 -175 832 -175 l 821 -186 l 340 -186 l 333 -179 q 326 -169 333 -179 q 311 -147 319 -160 q 294 -120 303 -133 q 279 -99 285 -107 q 275 -87 275 -90 m 408 -94 l 356 -175 l 432 -175 q 435 -172 432 -175 q 439 -167 438 -169 q 452 -148 444 -160 q 467 -126 460 -136 q 479 -107 474 -115 q 485 -99 485 -99 l 485 -94 l 408 -94 m 504 -94 l 451 -175 l 528 -175 q 531 -172 528 -175 q 535 -167 533 -169 q 548 -148 540 -160 q 563 -126 556 -136 q 575 -107 569 -115 q 581 -99 581 -99 l 581 -94 l 504 -94 m 600 -94 l 546 -175 l 622 -175 l 631 -167 q 644 -148 636 -160 q 658 -126 651 -136 q 671 -107 665 -115 q 676 -99 676 -99 l 676 -94 l 600 -94 m 694 -94 l 642 -175 l 718 -175 q 721 -172 718 -175 q 725 -167 724 -169 q 738 -148 731 -160 q 753 -126 746 -136 q 765 -107 760 -115 q 771 -99 771 -99 l 771 -94 l 694 -94 m 790 -94 l 736 -175 l 813 -175 q 821 -167 818 -175 q 834 -148 826 -160 q 849 -126 842 -136 q 861 -107 856 -115 q 867 -99 867 -99 l 867 -94 l 790 -94 m 288 -87 l 342 -169 l 397 -87 l 342 -4 l 288 -87 m 451 92 l 378 92 l 371 85 q 358 66 365 78 q 342 43 350 54 q 330 24 335 32 q 325 15 325 15 l 325 11 l 397 11 q 406 19 403 11 q 424 46 413 29 q 442 74 435 63 q 451 88 450 86 l 451 92 m 469 92 l 417 11 l 493 11 q 496 14 493 11 q 500 19 499 17 q 518 46 507 29 q 537 74 529 63 q 546 88 544 86 l 546 92 l 469 92 m 565 92 l 513 11 l 588 11 q 596 19 593 11 q 614 46 603 29 q 633 74 625 63 q 642 88 640 86 l 642 92 l 565 92 m 608 11 l 708 11 l 658 88 l 608 11 m 161 103 l 165 100 q 181 90 165 100 q 217 68 196 81 q 260 42 238 56 q 299 19 283 28 q 303 17 300 18 q 306 15 306 15 q 314 24 311 15 q 327 42 319 31 q 342 65 335 54 q 354 83 349 75 q 360 92 360 92 l 360 100 q 345 108 360 100 q 310 129 331 117 q 269 155 290 142 q 233 176 247 168 q 226 180 231 178 q 218 183 221 182 l 217 183 l 214 183 l 161 103 m 93 194 l 147 113 l 203 194 l 147 278 l 93 194 m 288 378 l 406 203 l 451 203 l 333 378 l 288 378 m 479 203 l 579 203 l 529 278 l 479 203 m 28 290 l 83 207 l 139 290 l 83 374 l 28 290 m 408 290 l 464 207 l 519 290 l 464 374 l 408 290 m -35 386 l 18 303 l 74 386 l 18 468 l -35 386 m 344 386 l 400 303 l 454 386 l 400 468 l 344 386 m 267 411 q 269 400 267 407 q 275 393 271 393 l 329 393 l 336 400 q 349 419 342 408 q 364 442 357 431 q 376 461 371 453 q 382 469 382 469 l 382 474 l 306 474 l 268 415 q 267 414 268 415 q 267 411 267 413 m 222 474 q 237 451 225 468 q 253 428 249 433 q 257 424 253 424 l 289 474 l 222 474 m 24 522 q -3 483 6 511 q -19 435 -12 454 q -7 449 -14 439 q 7 473 0 460 q 19 499 14 486 q 24 521 24 513 l 24 522 m 28 535 q 25 531 25 535 q 28 526 25 526 q 31 531 31 526 q 28 535 31 535 z "},"h":{"ha":794,"x_min":-317,"x_max":779,"o":"m 126 103 l -312 756 q -317 769 -317 761 l -317 775 q -311 793 -315 781 q -302 820 -307 806 q -292 848 -297 835 q -286 867 -287 861 q -285 869 -286 867 q -282 874 -283 872 q -267 896 -276 882 q -250 922 -258 910 q -235 944 -242 935 q -229 954 -229 954 l -221 961 l -119 961 l 135 582 l 425 582 l 574 492 l 589 476 l 779 194 l 779 190 q 773 172 778 188 q 760 134 768 157 q 749 99 753 111 q 747 96 749 99 q 746 92 746 93 q 731 69 740 83 q 714 43 722 56 q 699 21 706 31 q 692 11 692 11 l 681 0 l 579 0 l 322 378 l 276 378 l 456 111 q 460 99 460 104 q 456 88 460 96 q 441 66 450 79 q 424 40 432 53 q 408 17 415 26 q 401 7 401 7 l 394 0 l 294 0 q 292 1 294 0 q 288 4 289 3 q 244 29 271 14 q 194 59 218 44 q 152 85 169 74 q 135 96 135 96 l 126 103 m 440 92 l 368 92 q 360 83 361 92 q 347 65 354 76 q 331 42 339 53 q 319 24 324 32 q 314 15 314 15 l 314 11 l 386 11 q 394 19 392 11 q 408 38 400 26 q 422 60 415 50 q 435 79 429 71 q 440 88 440 88 l 440 92 m 650 92 l 596 11 l 672 11 q 681 19 678 11 q 694 38 686 26 q 708 60 701 50 q 721 79 715 71 q 726 88 726 88 l 726 92 l 650 92 m 150 103 l 154 99 q 169 90 154 99 q 206 68 185 81 q 249 42 226 56 q 288 19 272 28 q 292 17 289 18 q 294 15 294 15 q 299 18 296 15 q 303 22 301 21 q 316 42 308 31 q 331 64 324 53 q 343 83 338 75 q 349 92 349 92 l 349 99 q 334 108 349 99 q 299 129 319 117 q 258 154 279 142 q 222 175 236 167 q 215 179 219 176 q 207 183 210 182 l 206 183 l 203 183 l 150 103 m 528 99 l 583 17 l 639 99 l 583 182 l 528 99 m 81 194 l 136 111 l 192 194 l 136 278 l 81 194 m 463 194 l 518 111 l 574 194 l 518 278 l 463 194 m 17 290 l 72 207 l 126 290 l 72 374 l 17 290 m 399 290 l 453 207 l 508 290 l 453 374 l 399 290 m -46 385 l 7 303 l 63 385 l 7 468 l -46 385 m 333 385 l 389 303 l 443 385 l 389 468 l 333 385 m 256 411 q 258 400 256 407 q 264 393 260 393 l 318 393 l 325 400 q 338 419 331 408 q 353 442 346 431 q 365 461 360 453 q 371 469 371 469 l 371 474 l 294 474 l 257 415 q 256 414 257 415 q 256 411 256 413 m -111 481 l -56 397 l 0 481 l -56 564 l -111 481 m 211 474 q 226 451 214 468 q 242 428 238 433 q 246 424 242 424 l 278 474 l 211 474 m -175 576 l -121 493 l -65 576 l -121 660 l -175 576 m -240 672 l -185 589 l -129 672 l -185 754 l -240 672 m -306 767 l -250 683 l -194 767 l -250 850 l -306 767 m -244 904 q -272 864 -261 892 q -290 817 -283 836 q -277 831 -285 821 q -262 855 -269 842 q -250 881 -256 868 q -244 903 -244 894 l -244 904 m -240 915 q -243 911 -243 915 q -240 908 -243 908 q -237 911 -237 908 q -240 915 -237 915 z "},"i":{"ha":444,"x_min":-303,"x_max":472,"o":"m 140 103 l -40 374 q -43 388 -43 388 l -43 393 q -38 411 -42 399 q -30 438 -35 424 q -20 466 -25 453 q -12 485 -15 479 q -11 488 -12 486 q -10 492 -10 490 q 3 514 -6 500 q 19 540 11 528 q 34 563 28 553 q 42 572 40 572 l 49 579 l 151 579 l 469 111 q 472 99 472 97 q 472 96 472 99 q 469 88 471 93 q 455 66 464 79 q 438 40 446 53 q 422 17 429 26 q 415 7 415 7 l 408 0 l 308 0 q 306 1 308 0 q 301 4 303 3 q 258 29 285 14 q 208 59 232 44 q 166 85 183 74 q 149 96 149 96 l 140 103 m 454 92 l 381 92 q 378 89 381 92 q 374 83 375 86 q 360 65 368 76 q 345 42 353 53 q 333 24 338 32 q 328 15 328 15 l 328 11 l 400 11 l 408 19 q 421 38 413 26 q 436 60 429 50 q 449 79 443 71 q 454 88 454 88 l 454 92 m 164 103 l 168 99 q 183 90 168 99 q 219 68 199 81 q 263 42 240 56 q 301 19 286 28 q 306 17 303 18 q 308 15 308 15 q 313 18 310 15 q 317 22 315 21 q 330 42 322 31 q 344 64 338 53 q 357 83 351 75 q 363 92 363 92 l 363 99 q 348 108 363 99 q 313 129 333 117 q 272 154 293 142 q 236 175 250 167 q 228 179 233 176 q 221 183 224 182 l 218 183 l 217 183 l 164 103 m 94 194 l 150 111 l 206 194 l 150 278 l 94 194 m 31 290 l 86 207 l 140 290 l 86 372 l 31 290 m -32 385 l 21 303 l 76 385 l 21 468 l -32 385 m 26 522 q -1 483 8 511 q -17 435 -11 454 q -6 449 -12 439 q 9 473 1 460 q 22 499 17 486 q 26 521 26 513 l 26 522 m 31 533 q 28 529 28 533 q 31 526 28 526 q 33 529 33 526 q 31 533 33 533 m -175 572 l -299 756 q -303 767 -303 761 q -299 778 -303 771 q -284 800 -293 786 q -267 826 -275 814 q -252 849 -258 839 q -246 858 -246 858 l -237 865 l -40 865 l 79 683 q 83 671 83 676 q 79 660 83 665 q 65 638 74 651 q 49 612 57 625 q 33 589 40 599 q 26 579 26 579 l 18 572 l -175 572 m -104 664 l -158 583 l -82 583 q -74 592 -76 583 q -60 610 -68 599 q -46 633 -53 622 q -33 651 -39 643 q -28 660 -28 660 l -28 664 l -104 664 m -10 664 l -62 583 l 11 583 q 14 586 11 583 q 18 592 17 589 q 31 610 24 599 q 46 633 39 622 q 58 651 53 643 q 64 660 64 660 l 64 664 l -10 664 m -226 671 l -171 589 l -115 671 l -171 754 l -226 671 m -292 767 l -236 683 l -181 767 l -236 850 l -292 767 z "},"j":{"ha":526,"x_min":-226,"x_max":617,"o":"m 258 -87 q 263 -75 258 -82 q 269 -65 264 -72 q 279 -49 274 -57 q 290 -33 285 -40 q 297 -22 294 -25 l 297 -11 l 33 374 q 30 381 31 379 q 29 388 29 382 q 30 390 29 388 q 31 393 31 392 q 35 411 32 399 q 44 438 39 424 q 53 466 49 453 q 61 485 58 479 q 63 488 61 486 q 64 492 64 490 q 78 514 69 500 q 96 540 88 528 q 111 563 104 553 q 118 572 118 572 l 125 579 l 226 579 l 617 4 l 617 0 q 610 -17 615 -3 q 598 -52 606 -31 q 586 -87 590 -74 q 585 -90 586 -87 q 583 -94 583 -93 q 569 -117 578 -103 q 551 -143 560 -131 q 536 -165 543 -156 q 529 -175 529 -175 l 518 -186 l 324 -186 l 315 -179 q 305 -162 314 -176 q 283 -128 296 -149 q 263 -99 269 -108 q 258 -87 258 -93 m 392 -94 l 339 -175 l 415 -175 q 418 -172 415 -175 q 422 -167 421 -169 q 435 -148 428 -160 q 450 -126 443 -136 q 463 -107 457 -115 q 468 -99 468 -99 l 468 -94 l 392 -94 m 488 -94 l 435 -175 l 510 -175 q 518 -167 515 -175 q 531 -148 524 -160 q 546 -126 539 -136 q 558 -107 553 -115 q 564 -99 564 -99 l 564 -94 l 488 -94 m 271 -87 l 325 -169 l 381 -87 l 325 -4 l 271 -87 m 300 4 l 308 -3 l 324 10 l 404 10 l 404 15 l 356 88 l 300 4 m 236 100 l 292 17 l 346 100 l 292 182 l 236 100 m 171 194 l 226 111 l 282 194 l 226 278 l 171 194 m 107 290 l 161 207 l 217 290 l 161 372 l 107 290 m 42 385 l 97 303 l 151 385 l 97 468 l 42 385 m 103 522 q 74 483 85 511 q 57 435 63 454 q 70 449 63 439 q 85 473 78 460 q 97 499 92 486 q 103 521 103 513 l 103 522 m 107 533 q 104 529 104 533 q 107 526 104 526 q 110 529 110 526 q 107 533 110 533 m -99 572 l -222 756 q -226 767 -226 760 q -222 778 -226 771 q -208 800 -217 786 q -190 826 -199 814 q -176 849 -182 839 q -169 858 -169 858 l -161 865 l 32 865 l 156 682 q 160 671 160 678 q 156 660 160 665 q 141 638 150 651 q 124 611 132 624 q 109 589 115 599 q 103 579 103 579 l 94 572 l -99 572 m -28 664 l -82 583 l -6 583 q 0 592 -3 583 q 13 610 6 599 q 28 633 21 622 q 40 651 35 643 q 46 660 46 660 l 46 664 l -28 664 m 64 664 l 11 583 l 88 583 q 90 586 88 583 q 94 592 93 589 q 108 610 100 599 q 122 633 115 622 q 135 651 129 643 q 140 660 140 660 l 140 664 l 64 664 m -150 671 l -94 589 l -40 671 l -94 754 l -150 671 m -215 767 l -160 683 l -104 767 l -160 850 l -215 767 z "}}}
